<?xml version="1.0" encoding="UTF-8" standalone="no"?>
<!-- Generator: Adobe Illustrator 14.0.0, SVG Export Plug-In . SVG Version: 6.00 Build 43363)  -->

<svg
   xmlns:dc="http://purl.org/dc/elements/1.1/"
   xmlns:cc="http://creativecommons.org/ns#"
   xmlns:rdf="http://www.w3.org/1999/02/22-rdf-syntax-ns#"
   xmlns:svg="http://www.w3.org/2000/svg"
   xmlns="http://www.w3.org/2000/svg"
   xmlns:sodipodi="http://sodipodi.sourceforge.net/DTD/sodipodi-0.dtd"
   xmlns:inkscape="http://www.inkscape.org/namespaces/inkscape"
   version="1.1"
   x="0px"
   y="0px"
   width="600px"
   height="400px"
   viewBox="0 0 600 400"
   enable-background="new 0 0 600 400"
   xml:space="preserve"
   id="svg2"
   inkscape:version="0.48.4 r9939"
   sodipodi:docname="ShababFlag.svg"><metadata
   id="metadata56"><rdf:RDF><cc:Work
       rdf:about=""><dc:format>image/svg+xml</dc:format><dc:type
         rdf:resource="http://purl.org/dc/dcmitype/StillImage" /></cc:Work></rdf:RDF></metadata><defs
   id="defs54" /><sodipodi:namedview
   pagecolor="#ffffff"
   bordercolor="#666666"
   borderopacity="1"
   objecttolerance="10"
   gridtolerance="10"
   guidetolerance="10"
   inkscape:pageopacity="0"
   inkscape:pageshadow="2"
   inkscape:window-width="1366"
   inkscape:window-height="705"
   id="namedview52"
   showgrid="false"
   inkscape:zoom="0.70834054"
   inkscape:cx="311.90284"
   inkscape:cy="245.06433"
   inkscape:window-x="-8"
   inkscape:window-y="-8"
   inkscape:window-maximized="1"
   inkscape:current-layer="svg2" />
<g
   id="Layer_4">
	<rect
   fill-rule="evenodd"
   clip-rule="evenodd"
   width="600"
   height="400"
   id="rect5" />
</g>
<g
   id="Layer_1">
	<path
   fill-rule="evenodd"
   clip-rule="evenodd"
   fill="#FFFFFF"
   d="M89.333,71.333C81.667,71.667,74,79.333,72,83   s0.333,12.667,4.667,16c4.333,3.333,14.333,0.333,19,1c4.667,0.667,10.333,5.333,13.667,5.333c3.333,0,42.667,0.667,47-0.667   c4.333-1.333,14-7,14.333-12c0.333-5-1.667-17.667-2-24C168.333,62.333,167,45,164.667,41c-2.333-4-5.333-6.333-9-3.333   c-3.667,3-4.333,7.667-2.667,12c1.667,4.333,4.333,32,3,35.667c-1.333,3.667-2.333,6-7,6S139,92,138,86s-3.667-26.667-3.667-29.333   c0-2.667-2-10.667-6.333-8.667s-5.333,9.667-3.333,21s3.667,22-3,21.333C115,89.667,107,88.333,105.333,80   c-0.654-3.269,0.408-20.817-7.592-21.484C89.741,57.85,97,71,89.333,71.333z"
   id="path8" />
	<path
   fill-rule="evenodd"
   clip-rule="evenodd"
   d="M86.144,79.111c0,0-8.18,2.636-7.34,6.887c0.84,4.251,3.38,8.846,10.714,4.678   c7.333-4.167,7.282-1.933,7.282-9.933S86.144,79.111,86.144,79.111z"
   id="path10" />
	<path
   fill-rule="evenodd"
   clip-rule="evenodd"
   fill="#FFFFFF"
   d="M189,36c-10-7.5-0.5,53,0.5,60.5s8.369,19.71,11-2   c4.674-38.558-2.922-41.299-1.422-49.299S191.066,37.549,189,36z"
   id="path12" />
	<path
   fill-rule="evenodd"
   clip-rule="evenodd"
   fill="#FFFFFF"
   d="M247.5,54c-4.5,0.5-12,15.5-10,27s5,16.5,0,17s-9.5,3-10.5,7   s-4,6,2.5,6s46,1,51-4s9.5-8.5,9.5-21s-0.5-35-10-34.5s0.5,53-7.5,51s-14.5-0.5-19-8.5S252,53.5,247.5,54z"
   id="path14" />
	<path
   fill-rule="evenodd"
   clip-rule="evenodd"
   fill="#FFFFFF"
   d="M309.5,44.5c-3.057,0-5.745,19.136-5.521,34.008   c0.143,9.451,2.355,15.689,3.521,18.992c3,8.5,8-5.5,9.5-18S314.5,44.5,309.5,44.5z"
   id="path16" />
	<path
   fill-rule="evenodd"
   clip-rule="evenodd"
   fill="#FFFFFF"
   d="M364,81.5c0,0-17,1.5-24,5.5s-10,17-4.5,22   c3.125,2.84,13.026,3.824,20.997,1.984c6.06-1.398,4.003-5.484,10.503-5.484s0.5,0.5,6.5,4s24.5,2.5,28.5-1s2.5-42,2.5-42   s4.5-5.5,3-10s-8.5-10.5-8.5-5s-2.5,8.5-4.5,9.5S394,95.5,387,96.5s-13,2-13.5-5.5s-3-20.5-6-20S364,81.5,364,81.5z"
   id="path18" />
	<path
   fill-rule="evenodd"
   clip-rule="evenodd"
   fill="#FFFFFF"
   d="M313,108.5c0,0-11,2.5-9,7.5s6.5,7.5,9.5,7s3.5-10,3.5-10   s-5.5,7.5-7.5,5.5S313,108.5,313,108.5z"
   id="path20" />
	<path
   fill-rule="evenodd"
   clip-rule="evenodd"
   d="M364.5,92.5c-5.5-6.5-22.5-2-22.5,1s0,12,7.5,11.5s10.784-2.763,14.5-3   C367.897,101.752,370,99,364.5,92.5z"
   id="path22" />
	<path
   fill-rule="evenodd"
   clip-rule="evenodd"
   fill="#FFFFFF"
   d="M451.333,92c0,0-8.333,4.333-5.333,7.667   c3,3.333,7,5.667,14.333,4.667c7.333-1,21.667,4.333,25.667-15.667S493.333,38,493.333,38s-7.667-4-9.333,3.667   c-0.905,4.165-4.182,19.479-5.565,32.084c-1.164,10.603-0.768,16.249-3.768,18.916c-3,2.667-6,1.667-10.667,0   c-4.667-1.667-2-10.667-1-13c1-2.333,4.333-32,3-34.333c-1.333-2.333-8,3-11.667,11C450.667,64.333,451.333,92,451.333,92z"
   id="path24" />
	<path
   fill-rule="evenodd"
   clip-rule="evenodd"
   fill="#FFFFFF"
   d="M424.5,42c-3-4-11.5,15-11.5,19s2.5,46.5,2.5,46.5s6-3.5,7.5-8   s4.5-21,4.5-27.5S427.5,46,424.5,42z"
   id="path26" />
	<path
   fill-rule="evenodd"
   clip-rule="evenodd"
   fill="#FFFFFF"
   d="M422.5,111c0,0-6,7.5-3.5,11s-2.5,5-2,7s3,3,6,1s6.5-12,6.5-12   s-6.3,4.1-7.8,1.1s3.3-1.6,3.3-3.6S422.5,111,422.5,111z"
   id="path28" />
</g>


<g
   transform="matrix(0.56248439,0,0,0.56248439,780.22139,95.137819)"
   id="g3796"><path
     sodipodi:type="arc"
     style="opacity:0.98999999;fill:#ffffff;fill-opacity:1;stroke:none"
     id="path3794"
     sodipodi:cx="183.61697"
     sodipodi:cy="200.59619"
     sodipodi:rx="188.23627"
     sodipodi:ry="188.23627"
     d="m 371.85324,200.59619 c 0,103.96002 -84.27625,188.23627 -188.23627,188.23627 -103.960016,0 -188.2362632,-84.27625 -188.2362632,-188.23627 0,-103.960018 84.2762472,-188.236266 188.2362632,-188.236266 103.96002,0 188.23627,84.276248 188.23627,188.236266 z"
     transform="matrix(0.92666576,0,0,0.92666576,-1023.9022,126.39881)" /><path
     inkscape:connector-curvature="0"
     style="fill:#000000;stroke:none"
     d="m -874.87611,179.68209 c -3.36603,0.64178 -10.04205,14.19929 -9.67207,37.87746 0.37836,24.2144 -9.06802,21.37123 -11.14895,21.37123 -2.08092,0 -10.41544,-1.43274 -7.93457,-20.99477 3.22503,-25.42989 -5.31319,-24.96206 -8.33999,-24.96206 -3.0268,0 -7.17598,3.39248 -8.31104,8.31103 -1.13504,4.91856 -6.96869,10.10677 -10.9752,13.6104 -6.68966,5.85003 -16.16425,2.98354 -21.89247,12.04666 -4.75533,7.5238 -7.82195,15.21401 -1.39,27.51039 9.18111,17.55214 42.56985,-3.59272 53.92036,-3.21437 15.27844,1.62455 52.37894,30.81345 60.92827,-16.65103 9.83711,-41.6185 -1.12966,-43.13244 -3.96728,-43.32162 -2.83762,-0.18917 -6.64717,-2.45828 -9.29562,28.75559 -2.64845,31.21389 -17.7723,22.38099 -16.99852,16.07186 0.71845,-5.85804 3.91951,-47.27473 2.05604,-49.1712 -1.55191,-1.57937 -3.21467,-4.7378 -6.05229,-7.00791 -0.26603,-0.21282 -0.57845,-0.29805 -0.92667,-0.23166 z m -47.0862,38.83308 c 2.4139,-0.11105 4.23585,0.9507 5.27041,3.475 2.36469,5.76984 1.60363,18.9217 -4.92291,22.32685 -6.52653,3.40515 -19.80421,3.08749 -20.24186,-6.8052 -0.14716,-3.3265 0.003,-6.99117 8.13729,-13.23394 4.57567,-3.51157 8.65349,-5.61992 11.75707,-5.76271 z"
     id="path2995" /><path
     style="fill:#000000;stroke:none"
     d="m -819.07936,210.36888 c -0.58827,10.80599 -4.72937,39.72676 3.0268,40.29428 7.75617,0.56752 13.62061,-31.59223 14.18812,-38.97005 0.56753,-7.37783 3.02681,-31.59224 -6.43195,-32.53811 -9.45874,-0.94588 -10.11356,18.91733 -10.78297,31.21388 z"
     id="path2997"
     inkscape:connector-curvature="0"
     sodipodi:nodetypes="sssss" /><path
     style="fill:#000000;stroke:none"
     d="m -989.14772,356.03366 c 0,0 16.26906,-5.67525 13.99895,-41.42934 -2.2701,-35.75408 -2.45927,-29.70048 -2.45927,-29.70048 0,0 4.72938,-3.40515 12.48555,-4.5402 3.97267,12.67472 4.5402,62.99529 -5.48607,71.69734 -10.02629,8.70205 -18.53916,3.97268 -18.53916,3.97268 z"
     id="path2999"
     inkscape:connector-curvature="0"
     sodipodi:nodetypes="csccsc" /><path
     inkscape:connector-curvature="0"
     style="fill:#000000;stroke:none"
     d="m -921.99127,298.15051 c -11.91802,0 -13.43127,6.06043 -17.40394,10.22228 -3.97267,4.16185 -6.42657,11.9122 -3.96729,18.53332 2.45928,6.62113 14.54872,7.38115 15.11624,13.81311 0.56753,6.43195 -7.73187,14.18957 -7.73187,14.18957 22.13349,-0.7567 33.64955,-19.69165 33.64955,-19.69165 0,0 1.51644,0.57917 10.9752,0.57917 9.45875,0 22.70553,5.15471 34.25767,6.22603 13.62534,1.26359 30.06177,2.09446 41.03392,0.20271 10.97215,-1.89175 17.7804,-41.81579 17.7804,-41.81579 l -16.24561,3.41708 c 0,0 0.54802,3.02417 -1.91125,12.10457 -2.45928,9.0804 -9.64397,17.19877 -18.15685,11.90186 -8.51288,-5.29689 0.75291,-20.99477 0.75291,-20.99477 l -15.86915,-0.92666 c 0,0 -9.3e-4,16.24561 -11.35165,16.24561 -11.35051,0 -7.00791,-16.82478 -7.00791,-16.82478 l -14.39228,0.57917 c 0,0 -0.36597,13.79769 -11.14895,13.98686 -3.40988,0.0598 -8.34028,-1.50481 -11.17791,-10.39603 -2.83762,-8.89123 -5.2832,-11.35166 -17.20123,-11.35166 z m 1.30313,13.43665 c 0.30085,-0.008 0.59315,-0.006 0.86874,0.0289 2.89883,0.36342 7.3582,1.86802 6.68937,10.8304 -0.66884,8.96239 -7.32921,6.9817 -11.64124,6.16812 -3.35528,-0.63306 -5.55117,-1.12136 -6.68936,-7.76082 -0.75245,-4.38924 6.25977,-9.14463 10.77249,-9.26666 z"
     id="path3001" /><path
     style="fill:#000000;stroke:none"
     d="m -767.2454,310.25329 c 0,0 -3.40515,7.18866 -3.7835,13.99896 -0.37835,6.8103 0.3645,7.75824 -0.72425,11.18428 -1.88311,5.9257 -8.88171,12.07753 -10.63297,15.15022 -1.69196,2.96865 0.858,8.09536 5.77656,5.82526 4.91855,-2.2701 9.63397,-4.83531 13.45437,-10.45053 3.75155,-5.51402 7.51534,-14.9811 8.67239,-23.76721 1.36229,-10.34471 1.23636,-22.15643 1.23636,-22.15643 0,0 -9.64794,6.43195 -13.99896,10.21545 z"
     id="path3007"
     inkscape:connector-curvature="0"
     sodipodi:nodetypes="csssssscc" /><path
     inkscape:connector-curvature="0"
     style="fill:#000000;stroke:none"
     d="m -765.38476,362.64066 c -3.11473,0 -7.08801,0.9717 -11.69915,2.46145 -12.29637,3.97268 -9.07427,21.77854 -15.6954,21.40019 -6.62113,-0.37835 -13.63936,6.60249 -13.63936,6.60249 3.76157,4.10446 18.6354,19.88644 15.14519,20.70519 -11.07505,2.59804 -30.04381,1.5911 -32.25955,-0.26062 -2.13824,-1.78696 -4.66688,-19.16348 -19.19936,-19.40207 -12.95703,-0.21272 -15.08653,8.26908 -17.17227,9.64312 -2.10767,1.38848 -5.41638,1.69619 -9.29562,0.49229 -3.87924,-1.20391 -3.68564,-5.44768 -10.10645,-17.0854 -6.42081,-11.63773 -18.72749,-11.7653 -23.5431,-12.56791 -4.81561,-0.8026 -23.962,-2.5186 -22.21102,7.35541 1.57637,8.88933 23.10539,7.46555 29.4506,11.64124 5.54782,3.65095 9.75483,6.0217 9.35353,10.56978 -0.40129,4.54808 -2.41366,6.2703 -19.40206,3.99625 -16.9884,-2.27404 -16.30353,5.61791 -16.30353,5.61791 -5.95861,12.62278 62.95535,8.42687 62.95535,8.42687 0,0 11.39429,10.46907 16.65103,10.59874 5.52474,0.13628 16.10082,-7.38437 16.10082,-7.38437 0,0 57.32012,3.98723 57.88765,-8.68749 0.36475,-8.14614 -18.73602,-15.52165 -18.73602,-15.52165 0,0 4.21116,-6.41711 10.45394,-5.84958 6.24278,0.56753 15.08728,-3.80358 15.08728,-7.58708 0,-3.7835 2.64496,-2.44339 3.59083,-14.73977 0.59118,-7.68524 -2.2221,-10.42499 -7.41333,-10.42499 z m -8.10832,6.89207 c 0.16063,-0.004 0.32808,0.006 0.49229,0.0289 3.23004,0.45231 5.38062,2.16657 4.80708,8.51375 -0.48788,5.39927 -6.56442,6.18097 -9.64312,4.05416 -1.8937,-1.30819 -1.69108,-4.23591 -0.83979,-6.97895 0.79808,-2.57159 2.77412,-5.55887 5.18354,-5.61791 z m -74.71243,31.01435 c 1.34974,-0.0591 2.93272,0.0513 4.80708,0.40541 8.51288,1.60799 9.05197,11.54217 7.96354,14.1027 -1.44764,3.40555 -7.08375,7.65221 -13.14708,5.00978 -6.82821,-2.97576 -8.21497,-7.86578 -7.67395,-10.97519 0.46058,-2.64707 0.76183,-8.22329 8.05041,-8.5427 z"
     id="path3011" /></g></svg>