<?xml version="1.0" encoding="UTF-8" ?>
<!DOCTYPE svg PUBLIC "-//W3C//DTD SVG 1.1//EN" "http://www.w3.org/Graphics/SVG/1.1/DTD/svg11.dtd">
<svg width="942pt" height="942pt" viewBox="0 0 942 942" version="1.1" xmlns="http://www.w3.org/2000/svg">
<g id="#ffffffff">
<path fill="#ffffff" opacity="1.00" d=" M 441.50 19.88 C 477.97 17.52 514.72 19.54 550.70 25.99 C 625.37 39.28 696.52 71.79 755.41 119.58 C 796.04 152.46 830.95 192.42 857.91 237.20 C 884.85 281.77 904.04 331.01 914.24 382.08 C 925.56 438.38 926.02 496.86 915.50 553.33 C 904.01 615.81 879.03 675.73 842.93 727.99 C 809.78 775.98 767.25 817.49 718.39 849.38 C 678.48 875.46 634.44 895.23 588.37 907.56 C 546.94 918.77 503.89 923.90 460.99 922.96 C 406.57 921.81 352.40 910.58 301.92 890.25 C 257.55 872.36 216.04 847.38 179.48 816.52 C 143.94 786.52 113.02 751.04 88.29 711.64 C 65.23 674.95 47.45 634.94 35.76 593.21 C 19.08 533.97 14.71 471.29 23.02 410.31 C 29.82 359.70 45.33 310.27 68.68 264.86 C 99.59 204.21 144.59 150.87 198.96 109.94 C 268.75 57.17 354.18 25.48 441.50 19.88 M 411.71 61.61 C 407.23 86.63 402.23 111.56 397.83 136.59 C 400.97 136.26 404.11 135.91 407.25 135.62 C 407.99 130.10 409.11 124.65 410.04 119.17 C 417.04 118.31 424.01 117.27 431.01 116.36 C 433.21 116.11 435.46 115.78 437.69 116.12 C 440.41 120.65 442.04 125.73 444.02 130.61 C 447.37 130.21 450.71 129.81 454.07 129.47 C 444.90 107.83 435.43 86.31 426.34 64.63 C 425.60 63.07 424.91 61.41 423.63 60.22 C 419.62 60.29 415.68 61.11 411.71 61.61 M 513.43 132.34 C 516.22 133.06 518.99 133.90 521.85 134.29 C 525.82 130.42 527.56 124.88 530.30 120.16 C 539.39 122.27 548.44 124.54 557.58 126.47 C 558.06 132.06 558.67 137.64 558.94 143.25 C 562.18 143.88 565.38 144.63 568.59 145.42 C 566.69 119.98 563.87 94.62 561.60 69.21 C 557.48 68.31 553.37 67.35 549.24 66.49 C 537.47 88.52 525.22 110.31 513.43 132.34 M 367.58 70.32 C 354.03 74.70 340.50 79.12 326.90 83.32 C 327.57 86.02 328.24 88.71 328.86 91.42 C 335.29 89.50 341.66 87.38 348.18 85.74 C 353.47 106.24 359.38 126.57 364.62 147.08 C 367.59 146.11 370.57 145.20 373.58 144.35 C 368.21 123.70 362.24 103.21 356.98 82.54 C 363.38 80.66 369.69 78.54 375.98 76.35 C 375.26 73.83 374.59 71.30 373.68 68.85 C 371.59 69.13 369.57 69.69 367.58 70.32 M 600.23 90.14 C 593.64 94.85 590.95 104.26 594.35 111.68 C 598.22 120.53 606.57 126.13 612.19 133.73 C 614.07 136.38 615.66 139.59 615.19 142.93 C 614.65 146.18 612.65 149.41 609.48 150.63 C 606.36 151.80 602.93 151.18 599.83 150.25 C 591.88 147.76 584.87 143.06 578.39 137.93 C 577.46 140.93 576.44 143.90 575.41 146.87 C 582.84 151.94 590.61 156.93 599.45 159.13 C 604.62 160.33 610.37 160.68 615.24 158.19 C 623.01 154.11 626.96 144.01 623.98 135.74 C 621.64 129.17 616.46 124.24 611.75 119.32 C 608.43 115.84 604.86 112.29 603.23 107.66 C 601.65 103.58 603.45 98.29 607.53 96.45 C 610.90 94.88 614.79 95.59 618.19 96.71 C 624.23 98.80 629.48 102.56 634.72 106.12 C 635.62 103.42 636.57 100.73 637.56 98.06 C 631.23 93.57 624.57 89.12 616.86 87.50 C 611.27 86.32 604.97 86.69 600.23 90.14 M 630.24 173.78 C 632.89 175.31 635.46 176.96 637.99 178.68 C 643.93 168.82 649.10 158.51 655.13 148.69 C 656.67 162.13 657.78 175.61 659.10 189.07 C 659.39 190.58 659.32 192.42 660.63 193.48 C 663.36 195.88 666.59 197.60 669.57 199.67 C 667.38 183.55 665.93 167.33 663.99 151.17 C 677.00 146.27 690.05 141.46 703.05 136.56 C 700.13 134.53 697.35 132.15 693.98 130.92 C 691.82 131.16 689.81 132.04 687.81 132.81 C 677.50 137.13 667.10 141.25 656.76 145.49 C 662.07 135.85 667.47 126.26 672.89 116.68 C 670.27 114.99 667.69 113.26 665.14 111.48 C 653.42 132.19 641.81 152.98 630.24 173.78 M 210.07 155.08 C 211.68 157.24 213.21 159.45 214.68 161.71 C 218.68 158.24 223.02 155.19 227.22 151.96 C 237.12 167.09 247.42 181.95 257.34 197.07 C 253.25 200.36 249.23 203.74 245.11 207.00 C 246.55 209.27 247.98 211.55 249.36 213.86 C 260.36 205.42 271.19 196.77 282.00 188.10 C 280.49 185.91 279.03 183.70 277.61 181.46 C 273.38 184.68 269.00 187.72 264.98 191.20 C 254.64 176.22 244.78 160.91 234.38 145.97 C 238.70 142.82 242.76 139.33 246.99 136.08 C 245.52 133.91 244.08 131.72 242.66 129.52 C 231.52 137.67 220.87 146.47 210.07 155.08 M 453.52 151.84 C 403.92 154.79 355.04 169.79 312.49 195.47 C 260.12 226.78 217.56 273.93 190.99 328.78 C 179.84 352.04 171.42 376.61 166.09 401.84 C 151.69 469.68 159.74 542.08 188.83 605.04 C 211.43 654.53 246.94 697.98 290.74 730.23 C 325.66 756.01 365.93 774.54 408.32 783.96 C 461.63 796.05 518.11 793.66 570.23 777.21 C 599.33 768.08 627.04 754.55 652.19 737.29 C 696.79 706.70 733.25 664.39 757.01 615.81 C 779.72 569.81 790.83 518.24 789.70 466.99 C 788.82 424.02 779.32 381.24 761.95 341.93 C 733.21 276.62 682.07 221.43 619.03 187.96 C 568.58 161.00 510.61 148.39 453.52 151.84 M 673.53 202.23 C 675.97 204.40 678.35 206.63 680.72 208.89 C 685.02 205.87 689.50 203.13 693.86 200.19 C 700.72 206.94 707.93 213.33 714.88 219.99 C 713.32 224.03 711.63 228.01 710.15 232.07 C 709.87 233.19 709.14 234.36 709.54 235.54 C 711.40 238.15 713.98 240.11 716.32 242.28 C 725.75 218.93 734.34 195.25 743.59 171.83 C 740.50 168.77 737.33 165.78 734.09 162.88 C 713.87 175.95 693.63 188.98 673.53 202.23 M 185.11 185.24 C 179.82 186.99 175.32 190.50 171.48 194.46 C 166.69 199.40 162.28 204.70 157.75 209.87 C 173.86 226.62 189.65 243.67 205.98 260.20 C 210.94 254.71 216.18 249.43 220.47 243.39 C 224.83 237.17 227.80 229.69 227.39 222.00 C 226.97 213.85 223.01 206.32 217.90 200.12 C 213.34 194.65 208.02 189.59 201.54 186.49 C 196.48 184.05 190.47 183.46 185.11 185.24 M 771.37 200.07 C 769.47 201.84 767.54 203.58 765.59 205.30 C 769.60 211.00 773.88 216.51 778.14 222.02 C 763.06 235.82 747.76 249.37 732.66 263.14 C 734.59 265.70 736.50 268.28 738.32 270.93 C 753.67 257.33 768.75 243.45 784.07 229.82 C 788.36 235.31 792.68 240.77 796.65 246.50 C 798.62 244.59 800.64 242.73 802.68 240.90 C 792.36 227.20 781.89 213.62 771.37 200.07 M 126.74 255.77 C 141.23 275.85 155.20 296.31 169.80 316.31 C 171.51 313.50 173.27 310.72 175.10 307.99 C 171.85 303.70 168.93 299.17 165.64 294.90 C 170.69 286.42 176.01 278.11 181.26 269.76 C 186.19 271.30 191.15 272.73 196.06 274.35 C 197.88 271.34 199.73 268.36 201.66 265.41 C 179.02 258.47 156.42 251.37 133.81 244.34 C 131.35 248.09 128.98 251.89 126.74 255.77 M 806.05 280.24 C 788.94 284.21 771.73 287.80 754.66 291.93 C 756.14 294.83 757.60 297.75 759.00 300.70 C 764.10 299.54 769.24 298.51 774.33 297.30 C 778.81 306.17 783.83 314.76 788.13 323.72 C 784.73 327.72 780.83 331.42 778.28 336.05 C 779.29 339.21 781.21 341.97 782.87 344.83 C 786.33 340.95 789.65 336.95 792.94 332.93 C 805.25 317.94 817.60 302.99 829.91 288.01 C 827.82 284.16 825.79 280.29 823.84 276.37 C 817.89 277.56 811.96 278.84 806.05 280.24 M 102.31 301.39 C 101.62 304.01 103.10 306.52 104.12 308.85 C 109.57 319.70 114.60 330.76 120.00 341.64 C 110.47 336.85 100.95 332.05 91.25 327.61 C 90.17 330.68 89.02 333.72 87.83 336.75 C 108.25 346.51 128.49 356.65 148.93 366.37 C 150.07 363.34 151.29 360.34 152.55 357.36 C 142.65 352.44 132.61 347.84 122.83 342.69 C 134.47 339.80 146.06 336.78 157.71 333.95 C 159.47 333.41 161.40 333.10 162.90 331.96 C 165.00 328.79 165.98 325.05 167.21 321.50 C 152.77 324.96 138.52 329.20 124.13 332.88 C 118.16 319.51 112.13 306.16 106.10 292.82 C 104.76 295.64 103.21 298.38 102.31 301.39 M 826.50 337.50 C 821.50 343.05 821.07 350.93 820.82 358.01 C 820.45 364.33 821.08 370.93 818.74 376.94 C 817.07 381.90 810.30 383.87 806.10 380.93 C 803.28 378.96 801.58 375.85 800.22 372.79 C 796.84 364.93 795.18 356.42 794.65 347.91 C 791.96 349.02 789.26 350.09 786.54 351.12 C 787.66 360.39 789.71 369.67 793.78 378.13 C 796.34 383.29 799.88 388.39 805.25 390.92 C 812.11 394.25 821.13 391.61 825.29 385.26 C 828.46 380.54 829.02 374.69 829.37 369.17 C 829.82 362.65 829.21 355.99 830.97 349.63 C 831.75 346.53 833.90 343.56 837.18 342.87 C 840.93 341.78 844.73 344.12 846.73 347.21 C 851.49 354.36 852.62 363.10 853.94 371.39 C 856.42 370.54 858.91 369.68 861.42 368.87 C 859.95 357.37 857.40 344.69 848.22 336.72 C 842.26 331.21 831.97 331.40 826.50 337.50 M 78.91 368.53 C 74.91 377.16 71.41 386.41 71.86 396.07 C 72.09 402.27 74.31 408.81 79.42 412.66 C 84.19 416.47 91.42 417.16 96.52 413.57 C 104.73 407.92 108.43 398.17 114.95 390.94 C 117.01 388.74 119.69 386.56 122.89 386.72 C 126.42 387.02 129.85 389.38 130.98 392.82 C 132.02 395.98 131.84 399.39 131.42 402.65 C 130.15 411.18 126.97 419.30 122.98 426.90 C 125.84 427.54 128.69 428.26 131.53 429.02 C 135.50 419.79 139.09 410.16 139.68 400.03 C 139.95 394.47 139.31 388.54 136.16 383.79 C 132.80 378.60 126.39 375.51 120.23 376.35 C 116.51 376.87 113.26 379.05 110.63 381.64 C 105.68 386.54 102.42 392.77 98.28 398.30 C 96.22 400.97 93.88 403.66 90.67 404.92 C 87.29 406.20 83.28 404.47 81.46 401.46 C 79.72 398.64 79.57 395.18 79.83 391.97 C 80.49 384.51 83.55 377.56 86.53 370.79 C 83.99 370.04 81.44 369.29 78.91 368.53 M 829.45 405.76 C 823.76 406.90 817.78 408.32 813.39 412.36 C 808.70 416.47 806.89 422.94 807.10 429.00 C 807.28 437.32 809.62 446.30 816.14 451.93 C 821.43 456.62 829.05 457.30 835.75 456.02 C 850.18 453.24 864.54 450.06 878.98 447.32 C 878.48 444.13 878.17 440.85 876.96 437.83 C 872.89 438.13 868.94 439.20 864.97 440.00 C 855.41 442.00 845.84 443.89 836.28 445.90 C 831.31 446.85 825.63 447.77 821.13 444.83 C 816.67 441.83 815.23 436.13 814.97 431.07 C 814.67 427.05 815.84 422.70 819.04 420.06 C 822.70 417.04 827.57 416.30 832.07 415.32 C 845.43 412.75 858.72 409.83 872.09 407.28 C 871.42 404.04 870.84 400.79 870.33 397.53 C 856.68 400.19 843.09 403.09 829.45 405.76 M 63.86 436.48 C 63.74 439.74 63.58 442.99 63.44 446.25 C 77.57 447.42 91.71 448.55 105.84 449.63 C 110.61 450.05 115.86 450.96 119.21 454.72 C 122.48 458.24 122.80 463.42 122.29 467.97 C 121.83 471.99 120.38 476.38 116.78 478.65 C 112.95 480.96 108.27 480.63 103.98 480.43 C 89.68 479.28 75.38 478.04 61.07 477.03 C 60.99 480.33 60.83 483.64 60.62 486.94 C 75.44 488.02 90.23 489.31 105.04 490.44 C 111.21 490.87 118.10 490.23 122.85 485.82 C 128.49 480.55 130.02 472.39 130.13 464.99 C 130.34 457.40 127.63 449.30 121.33 444.68 C 116.40 440.86 110.02 439.93 103.98 439.52 C 90.60 438.58 77.24 437.32 63.86 436.48 M 814.21 473.40 C 814.27 476.52 814.30 479.63 814.30 482.75 C 832.59 482.43 850.89 482.12 869.18 481.86 C 850.75 490.72 832.89 500.72 814.69 510.04 C 814.78 514.36 814.84 518.68 814.85 523.01 C 837.25 522.63 859.65 522.32 882.05 521.91 C 881.89 518.85 881.78 515.80 881.68 512.75 C 863.42 512.90 845.16 513.27 826.91 513.60 C 845.38 504.67 863.32 494.71 881.47 485.15 C 881.37 480.94 881.32 476.72 881.31 472.50 C 858.94 472.58 836.58 473.30 814.21 473.40 M 120.31 509.55 C 121.10 519.99 122.23 530.39 123.05 540.83 C 115.39 541.70 107.72 542.52 100.04 543.21 C 99.24 533.19 98.24 523.20 97.39 513.19 C 94.83 513.46 92.28 513.72 89.72 513.96 C 90.48 524.06 91.73 534.12 92.22 544.24 C 85.37 544.87 78.54 545.77 71.66 546.08 C 70.88 535.81 69.70 525.57 69.01 515.29 C 66.46 515.41 63.91 515.57 61.37 515.73 C 62.24 529.53 63.81 543.28 64.96 557.06 C 87.19 554.81 109.37 552.11 131.61 549.97 C 130.72 536.18 129.20 522.44 127.96 508.68 C 125.41 508.96 122.86 509.25 120.31 509.55 M 814.72 530.60 C 814.35 534.01 813.92 537.42 813.51 540.84 C 818.11 543.05 822.47 545.73 827.01 548.07 C 825.63 558.13 824.12 568.17 822.55 578.20 C 817.48 578.87 812.45 579.77 807.39 580.51 C 806.95 584.05 806.45 587.59 805.96 591.14 C 829.20 587.45 852.34 583.10 875.58 579.37 C 876.23 574.88 876.89 570.38 877.57 565.90 C 859.93 555.62 842.01 545.85 824.31 535.66 C 821.16 533.88 817.94 532.23 814.72 530.60 M 474.16 797.07 C 472.42 799.19 471.35 801.74 470.17 804.18 C 466.73 811.68 463.02 819.06 459.60 826.57 C 458.54 828.71 457.61 830.97 456.06 832.83 C 454.17 833.56 452.11 833.54 450.13 833.71 C 440.74 834.08 431.36 834.77 421.96 835.12 C 418.98 835.31 415.93 835.26 413.06 836.14 C 410.16 836.93 408.58 840.88 410.46 843.33 C 412.04 845.47 414.23 847.05 416.28 848.72 C 423.01 853.94 429.48 859.49 436.19 864.75 C 438.06 866.27 440.02 867.72 441.59 869.58 C 441.75 872.08 440.83 874.48 440.17 876.86 C 437.63 884.85 435.39 892.93 432.85 900.93 C 432.12 903.45 431.22 906.00 431.26 908.67 C 431.46 911.73 435.06 913.64 437.86 912.80 C 440.50 912.07 442.87 910.64 445.26 909.34 C 452.71 905.08 460.34 901.17 467.79 896.91 C 470.18 895.61 472.53 894.14 475.16 893.36 C 477.28 893.69 479.09 894.97 480.94 896.00 C 488.84 900.84 496.87 905.45 504.76 910.31 C 507.15 911.69 509.52 913.29 512.27 913.90 C 514.73 914.35 517.71 912.99 518.40 910.47 C 518.79 908.32 518.22 906.15 517.82 904.07 C 515.18 892.87 512.39 881.71 510.05 870.46 C 519.43 863.75 528.52 856.63 537.87 849.86 C 539.78 848.41 541.79 847.01 543.32 845.14 C 545.37 842.83 544.08 838.70 541.16 837.84 C 538.47 836.94 535.60 836.87 532.81 836.62 C 521.25 835.83 509.72 834.66 498.16 833.83 C 494.04 823.67 489.74 813.59 485.71 803.40 C 484.82 801.27 484.00 799.09 482.64 797.23 C 480.73 794.54 476.17 794.50 474.16 797.07 Z" />
<path fill="#ffffff" opacity="1.00" d=" M 418.60 69.87 C 423.85 82.28 429.14 94.67 434.13 107.17 C 426.67 108.09 419.23 109.10 411.75 109.92 C 413.93 96.55 416.46 83.25 418.60 69.87 Z" />
<path fill="#ffffff" opacity="1.00" d=" M 534.82 112.18 C 540.70 100.24 547.05 88.53 553.42 76.85 C 554.35 90.31 555.93 103.73 556.57 117.22 C 549.30 115.64 542.07 113.86 534.82 112.18 Z" />
<path fill="#ffffff" opacity="1.00" d=" M 446.48 164.89 C 488.27 161.30 530.79 166.55 570.41 180.32 C 638.47 203.69 697.23 252.35 733.80 314.24 C 752.25 345.18 765.06 379.41 771.86 414.76 C 781.90 466.97 778.48 521.76 761.59 572.20 C 746.50 617.73 720.40 659.57 686.18 693.18 C 665.10 714.07 640.81 731.68 614.52 745.43 C 579.75 763.55 541.36 774.66 502.29 777.99 C 465.00 781.16 427.13 777.35 391.27 766.66 C 331.80 749.18 278.42 712.57 239.75 664.24 C 221.29 641.18 206.10 615.49 194.91 588.15 C 173.88 537.11 166.76 480.45 174.41 425.79 C 179.68 387.68 192.14 350.56 211.09 317.07 C 229.46 284.55 253.86 255.44 282.69 231.68 C 328.83 193.47 386.81 169.94 446.48 164.89 M 610.61 340.22 C 608.50 347.65 605.92 354.95 603.50 362.29 C 580.60 432.15 557.56 501.96 534.66 571.82 C 531.97 580.05 528.99 588.20 526.78 596.58 C 540.53 596.53 554.29 596.48 568.05 596.60 C 572.00 584.09 575.41 571.42 579.05 558.82 C 580.36 554.54 581.11 550.04 583.00 545.96 C 584.39 544.95 586.29 545.38 587.91 545.20 C 610.46 545.39 633.02 545.13 655.58 545.35 C 660.47 562.44 665.93 579.36 670.77 596.46 C 684.58 596.64 698.38 596.47 712.19 596.56 C 709.31 586.94 705.96 577.47 702.88 567.92 C 679.18 496.39 655.40 424.89 631.72 353.36 C 630.27 349.00 628.77 344.65 627.51 340.23 C 621.88 339.98 616.24 339.98 610.61 340.22 M 226.28 343.67 C 226.42 427.97 226.28 512.27 226.35 596.57 C 270.80 596.52 315.25 596.50 359.70 596.58 C 359.80 583.31 359.70 570.03 359.77 556.75 C 327.84 556.58 295.90 556.66 263.97 556.71 C 263.75 531.42 263.90 506.12 263.90 480.83 C 287.18 480.75 310.47 480.84 333.76 480.78 C 333.76 468.10 333.73 455.43 333.77 442.75 C 310.51 442.59 287.24 442.66 263.97 442.71 C 263.81 422.92 263.78 403.13 263.99 383.34 C 296.42 383.43 328.86 383.45 361.29 383.33 C 361.37 370.09 361.37 356.85 361.29 343.61 C 327.53 343.44 293.76 343.59 260.00 343.54 C 248.76 343.59 237.52 343.40 226.28 343.67 M 375.68 343.61 C 375.59 356.85 375.59 370.09 375.68 383.34 C 398.08 383.43 420.48 383.44 442.88 383.33 C 442.96 444.22 442.89 505.11 442.91 566.00 C 442.95 576.21 442.80 586.41 443.05 596.62 C 455.46 596.49 467.88 596.49 480.30 596.61 C 480.44 590.41 480.52 584.20 480.46 578.00 C 480.43 513.13 480.49 448.26 480.43 383.40 C 503.88 383.34 527.34 383.52 550.79 383.31 C 550.76 370.09 550.75 356.86 550.80 343.64 C 545.86 343.57 540.93 343.51 536.00 343.52 C 482.56 343.61 429.12 343.43 375.68 343.61 M 375.65 558.78 C 369.64 560.95 364.53 565.94 362.92 572.21 C 361.26 578.24 363.16 585.00 367.54 589.43 C 373.02 595.17 381.67 597.31 389.31 595.49 C 396.10 593.97 402.24 589.02 404.44 582.33 C 406.62 576.02 404.76 568.65 400.07 563.96 C 393.91 557.56 383.88 555.76 375.65 558.78 M 496.52 558.66 C 489.98 560.51 484.03 565.49 482.25 572.22 C 480.56 578.16 482.46 584.84 486.86 589.13 C 496.04 598.47 513.34 597.93 521.54 587.56 C 526.35 581.77 526.63 572.85 522.20 566.76 C 516.61 558.79 505.63 556.02 496.52 558.66 M 723.29 564.01 C 717.16 565.35 711.45 569.68 709.55 575.81 C 707.83 581.01 709.37 586.96 713.13 590.88 C 721.32 599.71 737.31 599.26 744.91 589.87 C 749.16 584.80 749.42 576.91 745.50 571.57 C 740.70 564.59 731.27 562.14 723.29 564.01 Z" />
<path fill="#ffffff" opacity="1.00" d=" M 701.10 195.33 C 711.59 188.54 721.70 181.13 732.43 174.70 C 728.27 187.08 722.99 199.04 718.34 211.24 C 712.36 206.19 706.76 200.72 701.10 195.33 Z" />
<path fill="#ffffff" opacity="1.00" d=" M 169.66 208.34 C 174.55 203.05 179.06 196.55 186.30 194.39 C 192.22 192.65 198.24 195.55 202.78 199.21 C 208.29 203.70 213.31 209.07 216.41 215.53 C 218.89 220.69 219.44 226.84 217.38 232.24 C 215.29 238.14 210.75 242.64 206.72 247.25 C 200.18 240.80 193.98 234.02 187.60 227.42 C 181.63 221.05 175.43 214.89 169.66 208.34 Z" />
<path fill="#ffffff" opacity="1.00" d=" M 136.89 255.35 C 148.89 259.25 160.91 263.10 172.89 267.10 C 168.87 274.02 164.38 280.65 160.41 287.60 C 152.60 276.82 144.74 266.09 136.89 255.35 Z" />
<path fill="#ffffff" opacity="1.00" d=" M 782.80 295.22 C 794.71 292.45 806.51 289.18 818.53 286.90 C 810.73 297.17 802.02 306.70 793.87 316.67 C 790.30 309.46 786.23 302.50 782.80 295.22 Z" />
<path fill="#ffffff" opacity="1.00" d=" M 615.26 431.36 C 616.27 426.76 617.92 422.35 619.10 417.81 C 627.62 448.77 636.11 479.74 644.35 510.78 C 627.49 510.96 610.64 510.84 593.79 510.84 C 600.72 484.29 608.16 457.87 615.26 431.36 Z" />
<path fill="#ffffff" opacity="1.00" d=" M 834.63 552.22 C 845.74 558.53 857.11 564.36 868.20 570.72 C 855.90 572.68 843.62 574.83 831.28 576.56 C 832.21 568.42 833.61 560.35 834.63 552.22 Z" />
</g>
<g id="#000000ff">
<path fill="#000000" opacity="1.00" d=" M 458.66 0.00 L 473.40 0.00 C 555.16 0.33 636.71 22.49 707.38 63.62 C 782.90 107.28 845.74 172.47 886.65 249.51 C 922.19 316.02 941.27 391.16 942.00 466.55 L 942.00 475.45 C 941.71 492.35 940.76 509.26 938.75 526.05 C 930.89 593.15 908.34 658.46 873.15 716.13 C 839.44 771.52 794.13 819.79 740.97 856.92 C 688.28 893.86 627.90 919.76 564.84 932.55 C 534.82 938.70 504.19 941.74 473.56 942.00 L 468.45 942.00 C 389.68 941.57 311.11 921.06 242.30 882.70 C 186.70 851.89 137.52 809.62 98.61 759.36 C 50.93 697.89 18.87 624.44 6.30 547.66 C 2.31 523.80 0.33 499.63 0.00 475.45 L 0.00 466.55 C 0.64 398.80 16.12 331.26 45.04 269.99 C 71.14 214.68 108.13 164.52 153.32 123.31 C 199.71 80.85 254.74 47.88 314.04 26.97 C 348.08 14.87 383.56 6.84 419.46 2.83 C 432.48 1.35 445.57 0.67 458.66 0.00 M 441.50 19.88 C 354.18 25.48 268.75 57.17 198.96 109.94 C 144.59 150.87 99.59 204.21 68.68 264.86 C 45.33 310.27 29.82 359.70 23.02 410.31 C 14.71 471.29 19.08 533.97 35.76 593.21 C 47.45 634.94 65.23 674.95 88.29 711.64 C 113.02 751.04 143.94 786.52 179.48 816.52 C 216.04 847.38 257.55 872.36 301.92 890.25 C 352.40 910.58 406.57 921.81 460.99 922.96 C 503.89 923.90 546.94 918.77 588.37 907.56 C 634.44 895.23 678.48 875.46 718.39 849.38 C 767.25 817.49 809.78 775.98 842.93 727.99 C 879.03 675.73 904.01 615.81 915.50 553.33 C 926.02 496.86 925.56 438.38 914.24 382.08 C 904.04 331.01 884.85 281.77 857.91 237.20 C 830.95 192.42 796.04 152.46 755.41 119.58 C 696.52 71.79 625.37 39.28 550.70 25.99 C 514.72 19.54 477.97 17.52 441.50 19.88 Z" />
<path fill="#000000" opacity="1.00" d=" M 411.71 61.61 C 415.68 61.11 419.62 60.29 423.63 60.22 C 424.91 61.41 425.60 63.07 426.34 64.63 C 435.43 86.31 444.90 107.83 454.07 129.47 C 450.71 129.81 447.37 130.21 444.02 130.61 C 442.04 125.73 440.41 120.65 437.69 116.12 C 435.46 115.78 433.21 116.11 431.01 116.36 C 424.01 117.27 417.04 118.31 410.04 119.17 C 409.11 124.65 407.99 130.10 407.25 135.62 C 404.11 135.91 400.97 136.26 397.83 136.59 C 402.23 111.56 407.23 86.63 411.71 61.61 M 418.60 69.87 C 416.46 83.25 413.93 96.55 411.75 109.92 C 419.23 109.10 426.67 108.09 434.13 107.17 C 429.14 94.67 423.85 82.28 418.60 69.87 Z" />
<path fill="#000000" opacity="1.00" d=" M 513.43 132.34 C 525.22 110.31 537.47 88.52 549.24 66.49 C 553.37 67.35 557.48 68.31 561.60 69.21 C 563.87 94.62 566.69 119.98 568.59 145.42 C 565.38 144.63 562.18 143.88 558.94 143.25 C 558.67 137.64 558.06 132.06 557.58 126.47 C 548.44 124.54 539.39 122.27 530.30 120.16 C 527.56 124.88 525.82 130.42 521.85 134.29 C 518.99 133.90 516.22 133.06 513.43 132.34 M 534.82 112.18 C 542.07 113.86 549.30 115.64 556.57 117.22 C 555.93 103.73 554.35 90.31 553.42 76.85 C 547.05 88.53 540.70 100.24 534.82 112.18 Z" />
<path fill="#000000" opacity="1.00" d=" M 367.58 70.32 C 369.57 69.69 371.59 69.13 373.68 68.85 C 374.59 71.30 375.26 73.83 375.98 76.35 C 369.69 78.54 363.38 80.66 356.98 82.54 C 362.24 103.21 368.21 123.70 373.58 144.35 C 370.57 145.20 367.59 146.11 364.62 147.08 C 359.38 126.57 353.47 106.24 348.18 85.74 C 341.66 87.38 335.29 89.50 328.86 91.42 C 328.24 88.71 327.57 86.02 326.90 83.32 C 340.50 79.12 354.03 74.70 367.58 70.32 Z" />
<path fill="#000000" opacity="1.00" d=" M 600.23 90.14 C 604.97 86.69 611.27 86.32 616.86 87.50 C 624.57 89.12 631.23 93.57 637.56 98.06 C 636.57 100.73 635.62 103.42 634.72 106.12 C 629.48 102.56 624.23 98.80 618.19 96.71 C 614.79 95.59 610.90 94.88 607.53 96.45 C 603.45 98.29 601.65 103.58 603.23 107.66 C 604.86 112.29 608.43 115.84 611.75 119.32 C 616.46 124.24 621.64 129.17 623.98 135.74 C 626.96 144.01 623.01 154.11 615.24 158.19 C 610.37 160.68 604.62 160.33 599.45 159.13 C 590.61 156.93 582.84 151.94 575.41 146.87 C 576.44 143.90 577.46 140.93 578.39 137.93 C 584.87 143.06 591.88 147.76 599.83 150.25 C 602.93 151.18 606.36 151.80 609.48 150.63 C 612.65 149.41 614.65 146.18 615.19 142.93 C 615.66 139.59 614.07 136.38 612.19 133.73 C 606.57 126.13 598.22 120.53 594.35 111.68 C 590.95 104.26 593.64 94.85 600.23 90.14 Z" />
<path fill="#000000" opacity="1.00" d=" M 630.24 173.78 C 641.81 152.98 653.42 132.19 665.14 111.48 C 667.69 113.26 670.27 114.99 672.89 116.68 C 667.47 126.26 662.07 135.85 656.76 145.49 C 667.10 141.25 677.50 137.13 687.81 132.81 C 689.81 132.04 691.82 131.16 693.98 130.92 C 697.35 132.15 700.13 134.53 703.05 136.56 C 690.05 141.46 677.00 146.27 663.99 151.17 C 665.93 167.33 667.38 183.55 669.57 199.67 C 666.59 197.60 663.36 195.88 660.63 193.48 C 659.32 192.42 659.39 190.58 659.10 189.07 C 657.78 175.61 656.67 162.13 655.13 148.69 C 649.10 158.51 643.93 168.82 637.99 178.68 C 635.46 176.96 632.89 175.31 630.24 173.78 Z" />
<path fill="#000000" opacity="1.00" d=" M 210.07 155.08 C 220.87 146.47 231.52 137.67 242.66 129.52 C 244.08 131.72 245.52 133.91 246.99 136.08 C 242.76 139.33 238.70 142.82 234.38 145.97 C 244.78 160.91 254.64 176.22 264.98 191.20 C 269.00 187.72 273.38 184.68 277.61 181.46 C 279.03 183.70 280.49 185.91 282.00 188.10 C 271.19 196.77 260.36 205.42 249.36 213.86 C 247.98 211.55 246.55 209.27 245.11 207.00 C 249.23 203.74 253.25 200.36 257.34 197.07 C 247.42 181.95 237.12 167.09 227.22 151.96 C 223.02 155.19 218.68 158.24 214.68 161.71 C 213.21 159.45 211.68 157.24 210.07 155.08 Z" />
<path fill="#000000" opacity="1.00" d=" M 453.52 151.84 C 510.61 148.39 568.58 161.00 619.03 187.96 C 682.07 221.43 733.21 276.62 761.95 341.93 C 779.32 381.24 788.82 424.02 789.70 466.99 C 790.83 518.24 779.72 569.81 757.01 615.81 C 733.25 664.39 696.79 706.70 652.19 737.29 C 627.04 754.55 599.33 768.08 570.23 777.21 C 518.11 793.66 461.63 796.05 408.32 783.96 C 365.93 774.54 325.66 756.01 290.74 730.23 C 246.94 697.98 211.43 654.53 188.83 605.04 C 159.74 542.08 151.69 469.68 166.09 401.84 C 171.42 376.61 179.84 352.04 190.99 328.78 C 217.56 273.93 260.12 226.78 312.49 195.47 C 355.04 169.79 403.92 154.79 453.52 151.84 M 446.48 164.89 C 386.81 169.94 328.83 193.47 282.69 231.68 C 253.86 255.44 229.46 284.55 211.09 317.07 C 192.14 350.56 179.68 387.68 174.41 425.79 C 166.76 480.45 173.88 537.11 194.91 588.15 C 206.10 615.49 221.29 641.18 239.75 664.24 C 278.42 712.57 331.80 749.18 391.27 766.66 C 427.13 777.35 465.00 781.16 502.29 777.99 C 541.36 774.66 579.75 763.55 614.52 745.43 C 640.81 731.68 665.10 714.07 686.18 693.18 C 720.40 659.57 746.50 617.73 761.59 572.20 C 778.48 521.76 781.90 466.97 771.86 414.76 C 765.06 379.41 752.25 345.18 733.80 314.24 C 697.23 252.35 638.47 203.69 570.41 180.32 C 530.79 166.55 488.27 161.30 446.48 164.89 Z" />
<path fill="#000000" opacity="1.00" d=" M 673.53 202.23 C 693.63 188.98 713.87 175.95 734.09 162.88 C 737.33 165.78 740.50 168.77 743.59 171.83 C 734.34 195.25 725.75 218.93 716.32 242.28 C 713.98 240.11 711.40 238.15 709.54 235.54 C 709.14 234.36 709.87 233.19 710.15 232.07 C 711.63 228.01 713.32 224.03 714.88 219.99 C 707.93 213.33 700.72 206.94 693.86 200.19 C 689.50 203.13 685.02 205.87 680.72 208.89 C 678.35 206.63 675.97 204.40 673.53 202.23 M 701.10 195.33 C 706.76 200.72 712.36 206.19 718.34 211.24 C 722.99 199.04 728.27 187.08 732.43 174.70 C 721.70 181.13 711.59 188.54 701.10 195.33 Z" />
<path fill="#000000" opacity="1.00" d=" M 185.11 185.24 C 190.47 183.46 196.48 184.05 201.54 186.49 C 208.02 189.59 213.34 194.65 217.90 200.12 C 223.01 206.32 226.97 213.85 227.39 222.00 C 227.80 229.69 224.83 237.17 220.47 243.39 C 216.18 249.43 210.94 254.71 205.98 260.20 C 189.65 243.67 173.86 226.62 157.75 209.87 C 162.28 204.70 166.69 199.40 171.48 194.46 C 175.32 190.50 179.82 186.99 185.11 185.24 M 169.66 208.34 C 175.43 214.89 181.63 221.05 187.60 227.42 C 193.98 234.02 200.18 240.80 206.72 247.25 C 210.75 242.64 215.29 238.14 217.38 232.24 C 219.44 226.84 218.89 220.69 216.41 215.53 C 213.31 209.07 208.29 203.70 202.78 199.21 C 198.24 195.55 192.22 192.65 186.30 194.39 C 179.06 196.55 174.55 203.05 169.66 208.34 Z" />
<path fill="#000000" opacity="1.00" d=" M 771.37 200.07 C 781.89 213.62 792.36 227.20 802.68 240.90 C 800.64 242.73 798.62 244.59 796.65 246.50 C 792.68 240.77 788.36 235.31 784.07 229.82 C 768.75 243.45 753.67 257.33 738.32 270.93 C 736.50 268.28 734.59 265.70 732.66 263.14 C 747.76 249.37 763.06 235.82 778.14 222.02 C 773.88 216.51 769.60 211.00 765.59 205.30 C 767.54 203.58 769.47 201.84 771.37 200.07 Z" />
<path fill="#000000" opacity="1.00" d=" M 126.74 255.77 C 128.98 251.89 131.35 248.09 133.81 244.34 C 156.42 251.37 179.02 258.47 201.66 265.41 C 199.73 268.36 197.88 271.34 196.06 274.35 C 191.15 272.73 186.19 271.30 181.26 269.76 C 176.01 278.11 170.69 286.42 165.64 294.90 C 168.93 299.17 171.85 303.70 175.10 307.99 C 173.27 310.72 171.51 313.50 169.80 316.31 C 155.20 296.31 141.23 275.85 126.74 255.77 M 136.89 255.35 C 144.74 266.09 152.60 276.82 160.41 287.60 C 164.38 280.65 168.87 274.02 172.89 267.10 C 160.91 263.10 148.89 259.25 136.89 255.35 Z" />
<path fill="#000000" opacity="1.00" d=" M 806.05 280.24 C 811.96 278.84 817.89 277.56 823.84 276.37 C 825.79 280.29 827.82 284.16 829.91 288.01 C 817.60 302.99 805.25 317.94 792.94 332.93 C 789.65 336.95 786.33 340.95 782.87 344.83 C 781.21 341.97 779.29 339.21 778.28 336.05 C 780.83 331.42 784.73 327.72 788.13 323.72 C 783.83 314.76 778.81 306.17 774.33 297.30 C 769.24 298.51 764.10 299.54 759.00 300.70 C 757.60 297.75 756.14 294.83 754.66 291.93 C 771.73 287.80 788.94 284.21 806.05 280.24 M 782.80 295.22 C 786.23 302.50 790.30 309.46 793.87 316.67 C 802.02 306.70 810.73 297.17 818.53 286.90 C 806.51 289.18 794.71 292.45 782.80 295.22 Z" />
<path fill="#000000" opacity="1.00" d=" M 102.31 301.39 C 103.21 298.38 104.76 295.64 106.10 292.82 C 112.13 306.16 118.16 319.51 124.13 332.88 C 138.52 329.20 152.77 324.96 167.21 321.50 C 165.98 325.05 165.00 328.79 162.90 331.96 C 161.40 333.10 159.47 333.41 157.71 333.95 C 146.06 336.78 134.47 339.80 122.83 342.69 C 132.61 347.84 142.65 352.44 152.55 357.36 C 151.29 360.34 150.07 363.34 148.93 366.37 C 128.49 356.65 108.25 346.51 87.83 336.75 C 89.02 333.72 90.17 330.68 91.25 327.61 C 100.95 332.05 110.47 336.85 120.00 341.64 C 114.60 330.76 109.57 319.70 104.12 308.85 C 103.10 306.52 101.62 304.01 102.31 301.39 Z" />
<path fill="#000000" opacity="1.00" d=" M 826.50 337.50 C 831.97 331.40 842.26 331.21 848.22 336.72 C 857.40 344.69 859.95 357.37 861.42 368.87 C 858.91 369.68 856.42 370.54 853.94 371.39 C 852.62 363.10 851.49 354.36 846.73 347.21 C 844.73 344.12 840.93 341.78 837.18 342.87 C 833.90 343.56 831.75 346.53 830.97 349.63 C 829.21 355.99 829.82 362.65 829.37 369.17 C 829.02 374.69 828.46 380.54 825.29 385.26 C 821.13 391.61 812.11 394.25 805.25 390.92 C 799.88 388.39 796.34 383.29 793.78 378.13 C 789.71 369.67 787.66 360.39 786.54 351.12 C 789.26 350.09 791.96 349.02 794.65 347.91 C 795.18 356.42 796.84 364.93 800.22 372.79 C 801.58 375.85 803.28 378.96 806.10 380.93 C 810.30 383.87 817.07 381.90 818.74 376.94 C 821.08 370.93 820.45 364.33 820.82 358.01 C 821.07 350.93 821.50 343.05 826.50 337.50 Z" />
<path fill="#000000" opacity="1.00" d=" M 610.61 340.22 C 616.24 339.98 621.88 339.98 627.51 340.23 C 628.77 344.65 630.27 349.00 631.72 353.36 C 655.40 424.89 679.18 496.39 702.88 567.92 C 705.96 577.47 709.31 586.94 712.19 596.56 C 698.38 596.47 684.58 596.64 670.77 596.46 C 665.93 579.36 660.47 562.44 655.58 545.35 C 633.02 545.13 610.46 545.39 587.91 545.20 C 586.29 545.38 584.39 544.95 583.00 545.96 C 581.11 550.04 580.36 554.54 579.05 558.82 C 575.41 571.42 572.00 584.09 568.05 596.60 C 554.29 596.48 540.53 596.53 526.78 596.58 C 528.99 588.20 531.97 580.05 534.66 571.82 C 557.56 501.96 580.60 432.15 603.50 362.29 C 605.92 354.95 608.50 347.65 610.61 340.22 M 615.26 431.36 C 608.16 457.87 600.72 484.29 593.79 510.84 C 610.64 510.84 627.49 510.96 644.35 510.78 C 636.11 479.74 627.62 448.77 619.10 417.81 C 617.92 422.35 616.27 426.76 615.26 431.36 Z" />
<path fill="#000000" opacity="1.00" d=" M 226.28 343.67 C 237.52 343.40 248.76 343.59 260.00 343.54 C 293.76 343.59 327.53 343.44 361.29 343.61 C 361.37 356.85 361.37 370.09 361.29 383.33 C 328.86 383.45 296.42 383.43 263.99 383.34 C 263.78 403.13 263.81 422.92 263.97 442.71 C 287.24 442.66 310.51 442.59 333.77 442.75 C 333.73 455.43 333.76 468.10 333.76 480.78 C 310.47 480.84 287.18 480.75 263.90 480.83 C 263.90 506.12 263.75 531.42 263.97 556.71 C 295.90 556.66 327.84 556.58 359.77 556.75 C 359.70 570.03 359.80 583.31 359.70 596.58 C 315.25 596.50 270.80 596.52 226.35 596.57 C 226.28 512.27 226.42 427.97 226.28 343.67 Z" />
<path fill="#000000" opacity="1.00" d=" M 375.68 343.61 C 429.12 343.43 482.56 343.61 536.00 343.52 C 540.93 343.51 545.86 343.57 550.80 343.64 C 550.75 356.86 550.76 370.09 550.79 383.31 C 527.34 383.52 503.88 383.34 480.43 383.40 C 480.49 448.26 480.43 513.13 480.46 578.00 C 480.52 584.20 480.44 590.41 480.30 596.61 C 467.88 596.49 455.46 596.49 443.05 596.62 C 442.80 586.41 442.95 576.21 442.91 566.00 C 442.89 505.11 442.96 444.22 442.88 383.33 C 420.48 383.44 398.08 383.43 375.68 383.34 C 375.59 370.09 375.59 356.85 375.68 343.61 Z" />
<path fill="#000000" opacity="1.00" d=" M 78.91 368.53 C 81.44 369.29 83.99 370.04 86.53 370.79 C 83.55 377.56 80.49 384.51 79.83 391.97 C 79.57 395.18 79.72 398.64 81.46 401.46 C 83.28 404.47 87.29 406.20 90.67 404.92 C 93.88 403.66 96.22 400.97 98.28 398.30 C 102.42 392.77 105.68 386.54 110.63 381.64 C 113.26 379.05 116.51 376.87 120.23 376.35 C 126.39 375.51 132.80 378.60 136.16 383.79 C 139.31 388.54 139.95 394.47 139.68 400.03 C 139.09 410.16 135.50 419.79 131.53 429.02 C 128.69 428.26 125.84 427.54 122.98 426.90 C 126.97 419.30 130.15 411.18 131.42 402.65 C 131.84 399.39 132.02 395.98 130.98 392.82 C 129.85 389.38 126.42 387.02 122.89 386.72 C 119.69 386.56 117.01 388.74 114.95 390.94 C 108.43 398.17 104.73 407.92 96.52 413.57 C 91.42 417.16 84.19 416.47 79.42 412.66 C 74.31 408.81 72.09 402.27 71.86 396.07 C 71.41 386.41 74.91 377.16 78.91 368.53 Z" />
<path fill="#000000" opacity="1.00" d=" M 829.45 405.76 C 843.09 403.09 856.68 400.19 870.33 397.53 C 870.84 400.79 871.42 404.04 872.09 407.28 C 858.72 409.83 845.43 412.75 832.07 415.32 C 827.57 416.30 822.70 417.04 819.04 420.06 C 815.84 422.70 814.67 427.05 814.97 431.07 C 815.23 436.13 816.67 441.83 821.13 444.83 C 825.63 447.77 831.31 446.85 836.28 445.90 C 845.84 443.89 855.41 442.00 864.97 440.00 C 868.94 439.20 872.89 438.13 876.96 437.83 C 878.17 440.85 878.48 444.13 878.98 447.32 C 864.54 450.06 850.18 453.24 835.75 456.02 C 829.05 457.30 821.43 456.62 816.14 451.93 C 809.62 446.30 807.28 437.32 807.10 429.00 C 806.89 422.94 808.70 416.47 813.39 412.36 C 817.78 408.32 823.76 406.90 829.45 405.76 Z" />
<path fill="#000000" opacity="1.00" d=" M 63.86 436.48 C 77.24 437.32 90.60 438.58 103.98 439.52 C 110.02 439.93 116.40 440.86 121.33 444.68 C 127.63 449.30 130.34 457.40 130.13 464.99 C 130.02 472.39 128.49 480.55 122.85 485.82 C 118.10 490.23 111.21 490.87 105.04 490.44 C 90.23 489.31 75.44 488.02 60.62 486.94 C 60.83 483.64 60.99 480.33 61.07 477.03 C 75.38 478.04 89.68 479.28 103.98 480.43 C 108.27 480.63 112.95 480.96 116.78 478.65 C 120.38 476.38 121.83 471.99 122.29 467.97 C 122.80 463.42 122.48 458.24 119.21 454.72 C 115.86 450.96 110.61 450.05 105.84 449.63 C 91.71 448.55 77.57 447.42 63.44 446.25 C 63.58 442.99 63.74 439.74 63.86 436.48 Z" />
<path fill="#000000" opacity="1.00" d=" M 814.21 473.40 C 836.58 473.30 858.94 472.58 881.31 472.50 C 881.32 476.72 881.37 480.94 881.47 485.15 C 863.32 494.71 845.38 504.67 826.91 513.60 C 845.16 513.27 863.42 512.90 881.68 512.75 C 881.78 515.80 881.89 518.85 882.05 521.91 C 859.65 522.32 837.25 522.63 814.85 523.01 C 814.84 518.68 814.78 514.36 814.69 510.04 C 832.89 500.72 850.75 490.72 869.18 481.86 C 850.89 482.12 832.59 482.43 814.30 482.75 C 814.30 479.63 814.27 476.52 814.21 473.40 Z" />
<path fill="#000000" opacity="1.00" d=" M 120.31 509.55 C 122.86 509.25 125.41 508.96 127.96 508.68 C 129.20 522.44 130.72 536.18 131.61 549.97 C 109.37 552.11 87.19 554.81 64.96 557.06 C 63.81 543.28 62.24 529.53 61.37 515.73 C 63.91 515.57 66.46 515.41 69.01 515.29 C 69.70 525.57 70.88 535.81 71.66 546.08 C 78.54 545.77 85.37 544.87 92.22 544.24 C 91.73 534.12 90.48 524.06 89.72 513.96 C 92.28 513.72 94.83 513.46 97.39 513.19 C 98.24 523.20 99.24 533.19 100.04 543.21 C 107.72 542.52 115.39 541.70 123.05 540.83 C 122.23 530.39 121.10 519.99 120.31 509.55 Z" />
<path fill="#000000" opacity="1.00" d=" M 814.72 530.60 C 817.94 532.23 821.16 533.88 824.31 535.66 C 842.01 545.85 859.93 555.62 877.57 565.90 C 876.89 570.38 876.23 574.88 875.58 579.37 C 852.34 583.10 829.20 587.45 805.96 591.14 C 806.45 587.59 806.95 584.05 807.39 580.51 C 812.45 579.77 817.48 578.87 822.55 578.20 C 824.12 568.17 825.63 558.13 827.01 548.07 C 822.47 545.73 818.11 543.05 813.51 540.84 C 813.92 537.42 814.35 534.01 814.72 530.60 M 834.63 552.22 C 833.61 560.35 832.21 568.42 831.28 576.56 C 843.62 574.83 855.90 572.68 868.20 570.72 C 857.11 564.36 845.74 558.53 834.63 552.22 Z" />
<path fill="#000000" opacity="1.00" d=" M 375.65 558.78 C 383.88 555.76 393.91 557.56 400.07 563.96 C 404.76 568.65 406.62 576.02 404.44 582.33 C 402.24 589.02 396.10 593.97 389.31 595.49 C 381.67 597.31 373.02 595.17 367.54 589.43 C 363.16 585.00 361.26 578.24 362.92 572.21 C 364.53 565.94 369.64 560.95 375.65 558.78 Z" />
<path fill="#000000" opacity="1.00" d=" M 496.52 558.66 C 505.63 556.02 516.61 558.79 522.20 566.76 C 526.63 572.85 526.35 581.77 521.54 587.56 C 513.34 597.93 496.04 598.47 486.86 589.13 C 482.46 584.84 480.56 578.16 482.25 572.22 C 484.03 565.49 489.98 560.51 496.52 558.66 Z" />
<path fill="#000000" opacity="1.00" d=" M 723.29 564.01 C 731.27 562.14 740.70 564.59 745.50 571.57 C 749.42 576.91 749.16 584.80 744.91 589.87 C 737.31 599.26 721.32 599.71 713.13 590.88 C 709.37 586.96 707.83 581.01 709.55 575.81 C 711.45 569.68 717.16 565.35 723.29 564.01 Z" />
<path fill="#000000" opacity="1.00" d=" M 474.16 797.07 C 476.17 794.50 480.73 794.54 482.64 797.23 C 484.00 799.09 484.82 801.27 485.71 803.40 C 489.74 813.59 494.04 823.67 498.16 833.83 C 509.72 834.66 521.25 835.83 532.81 836.62 C 535.60 836.87 538.47 836.94 541.16 837.84 C 544.08 838.70 545.37 842.83 543.32 845.14 C 541.79 847.01 539.78 848.41 537.87 849.86 C 528.52 856.63 519.43 863.75 510.05 870.46 C 512.39 881.71 515.18 892.87 517.82 904.07 C 518.22 906.15 518.79 908.32 518.40 910.47 C 517.71 912.99 514.73 914.35 512.27 913.90 C 509.52 913.29 507.15 911.69 504.76 910.31 C 496.87 905.45 488.84 900.84 480.94 896.00 C 479.09 894.97 477.28 893.69 475.16 893.36 C 472.53 894.14 470.18 895.61 467.79 896.91 C 460.34 901.17 452.71 905.08 445.26 909.34 C 442.87 910.64 440.50 912.07 437.86 912.80 C 435.06 913.64 431.46 911.73 431.26 908.67 C 431.22 906.00 432.12 903.45 432.85 900.93 C 435.39 892.93 437.63 884.85 440.17 876.86 C 440.83 874.48 441.75 872.08 441.59 869.58 C 440.02 867.72 438.06 866.27 436.19 864.75 C 429.48 859.49 423.01 853.94 416.28 848.72 C 414.23 847.05 412.04 845.47 410.46 843.33 C 408.58 840.88 410.16 836.93 413.06 836.14 C 415.93 835.26 418.98 835.31 421.96 835.12 C 431.36 834.77 440.74 834.08 450.13 833.71 C 452.11 833.54 454.17 833.56 456.06 832.83 C 457.61 830.97 458.54 828.71 459.60 826.57 C 463.02 819.06 466.73 811.68 470.17 804.18 C 471.35 801.74 472.42 799.19 474.16 797.07 Z" />
</g>
</svg>
