<?xml version="1.0" encoding="utf-8"?>
<svg version="1.1" xmlns="http://www.w3.org/2000/svg" xmlns:xlink="http://www.w3.org/1999/xlink" x="0px" y="0px"
	 viewBox="0 0 800 445" style="enable-background:new 0 0 800 445;" xml:space="preserve">
<style type="text/css">
	.st0{fill:#ED020F;}
	.st1{fill:#FFFFFF;}
</style>
<rect class="st0" width="800" height="445"/>
<g>
	<path class="st1" d="M230,133.9l4.6,9.1l-5.8,2.9L215.8,120l9.8-4.9c2.8-1.4,5.5-1.8,8-1c2.5,0.7,4.4,2.4,5.6,4.9s1.5,5,0.5,7.3
		c-0.9,2.3-2.9,4.2-5.8,5.7L230,133.9L230,133.9z M227.8,129.5l4-2c1.1-0.6,1.8-1.3,2.1-2.3c0.3-1,0.1-2.1-0.5-3.3
		c-0.6-1.3-1.5-2.2-2.5-2.6c-1-0.5-2-0.4-3.1,0.1l-4,2L227.8,129.5L227.8,129.5z"/>
	<path class="st1" d="M255.3,127.1l10.1-5.1l2.2,4.3l-15.9,8l-13.1-25.9l5.8-2.9L255.3,127.1L255.3,127.1z"/>
	<path class="st1" d="M287.7,112.6c-0.6,1.7-1.5,3.2-2.9,4.5c-1.3,1.4-3,2.5-4.9,3.5c-3.3,1.7-6.3,2-9.1,1.1s-5-3.1-6.9-6.6
		l-2.4-4.7c-1.8-3.6-2.3-6.8-1.6-9.6s2.8-5,6.1-6.7c3.1-1.6,5.8-2.1,8.1-1.4c0.7,0.2,3.7,1.6,3.8,2.7l-3.4,5.2
		c-1-1.6-1.9-2.5-2.8-2.8c-0.9-0.3-2-0.1-3.3,0.5c-1.6,0.8-2.4,1.9-2.6,3.3s0.3,3.2,1.4,5.5l2.4,4.7c1.2,2.4,2.4,3.9,3.8,4.6
		s2.9,0.6,4.6-0.3c1.1-0.6,2-1.2,2.5-2l0.4-0.6l-2.4-4.8l-4,2l-2-3.9l9.9-5L287.7,112.6L287.7,112.6z"/>
	<path class="st1" d="M304.3,101.3l-7.9,4l1.1,6.1l-6.1,3.1L287.3,84l5.3-2.7l22,21.4l-6.2,3.1L304.3,101.3L304.3,101.3z
		 M295.4,100.3l5.4-2.7l-7.3-7.9L295.4,100.3L295.4,100.3z"/>
</g>
<path class="st1" d="M499.1,297.2c-17.4,13.7-36,21.7-56.7,24.9c-20.3,3.1-40.3,1.4-59.8-4.6c-7.1-2.2-13.5-6.3-20.3-9.5
	c-2.8-1.3-6-2.3-8.6-3.9c-5.4-3.5-10.6-7.2-15.7-11.1c-2.5-1.9-4.5-4.4-7-6.3c-1-0.8-3.1-1.5-3.8-1c-1.2,1-2.7,3-2.5,4.2
	c0.8,4.4-1,5.4-4.9,7.1c-6,2.5-11.7,6.5-16.4,11c-9.4,8.9-17.8,18.8-27,28c-4.2,4.2-9.6,6.6-15.9,5.9c-11.6-1.3-16.2-11.7-9.5-21.2
	c6.2-8.9,15.4-14,24.2-19.7c5.6-3.6,11.1-7.4,16.4-11.3c2-1.4,4-3.3,5.1-5.4c2.9-5.4,5.7-10.6,13.3-8.5c5.1-5.1,13.2-4.8,18.2-8.5
	c6.5-4.9,9.7-4.2,16.1-0.1c12.3,8,25.5,15,39,20.9c7.1,3.1,15.5,3.5,23.4,3.9c21.2,1,41.5-2.2,59.7-14.1c2.5-1.6,4.8-3.5,7.5-5.6
	c-35.4-36.6-70.6-72.9-105.1-108.6c-8.6,7.8-16.8,15.3-24.7,22.5c-9.7-9.4-19.6-19.1-30-29.1c1.4-1.5,2.6-3,4-4.4
	c16.2-16.1,32.5-32.1,48.6-48.2c3.4-3.7,3.4-3.7,3.4-3.7c13.3,3.8,47,13.2,49.3,14c-11.3,10.2-22.1,19.9-33.2,30
	c35,34.4,69.7,68.5,105.2,103.3c3.6-9.3,6.4-18,5.8-27.3c-1.1-19.2-6.4-37.4-15.5-54.3c-8.8-16.4-22-29.3-36.4-40.7
	c-13.2-10.4-50.1-35.3-49.9-35.7c1.7,0.4,71.7,22.1,96.1,53c13.2,12.1,24.1,25.8,31.6,41.8c13.8,29.3,13,58.6-2.9,87.2
	c-0.4,0.7-0.8,1.5-1.2,2.2c-0.1,0.1-0.1,0.3,0.1-0.5c10,10.5,19.5,20.7,29.4,30.5c3.1,3.1,3.7,5.7,2.1,9.6
	c-3.3,8.3-9.4,13.2-17.9,15.2c-1.7,0.4-4.5-0.8-5.9-2.2C518.8,318.6,500.4,298.9,499.1,297.2z"/>
<g>
	<g>
		<path class="st1" d="M488.9,158.9c-3.6-0.7-7.1,1.8-8.2,4.4c-0.9,2.1-1.7,4-3.9,5c-0.2,0.1-0.4,0.4-0.6,0.6c-1,1-2,1.9-3.5,2
			c-0.5,0-1,0.4-1.4,0.8c-3.4,2.8-6.7,5.7-9.6,9c-1.1,1.2-1.2,2.7-1.9,4c-0.1,0.1,0,0.3,0,0.5c0.4,2.2,0.2,4.5,1.2,6.6
			c1,2.1-0.4,4.4-2.6,5c-1.1,0.3-2.4,0.7-3.1,1.5c-3.5,3.5-6.9,7.1-10.3,10.8c-3.8,4.1-7.4,8.3-11.1,12.4c-2.4,2.6-4.8,5.2-7.2,7.8
			c-2.8,3.1-5.7,6.2-8.5,9.4c-0.8,0.9-1.8,1.3-2.9,1.3c-1.6,0.1-3.2,0.1-4.3,1.6c-0.7,0.9-1.7,1.8-2.5,2.6c-1.7,1.8-3.3,3.6-5,5.4
			c-0.7,0.7-1.4,1.4-1.9,2.2c-1,1.4-0.8,2.6,0.5,3.7c1.8,1.5,3.7,3.1,5.6,4.5c3.4,2.5,6.8,5.1,10.3,7.4c3.4,2.3,6.9,4.4,10.4,6.5
			c0.3,0.2,0.7,0.4,0.9,0.3c1.4-0.8,2.6,0.1,3.9,0.6c0.3,0.1,0.6,0.5,0.6,0.8c0,1,0,2.1-0.4,3c-1,2-2.2,3.9-3.3,5.9
			c-1.6,2.9-3.2,5.8-4.9,8.6c-1.5,2.5-3,5-4.6,7.4c-0.6,1-1.5,1-2.4,0.4c-1.1-0.8-2.2-1.5-3.3-2.3c-2.7-1.8-5.4-3.5-8.1-5.2
			c-2.2-1.4-4.4-2.7-6.4-4.1c-2.7-1.9-5.3-3.9-7.9-5.9c-0.5-0.4-1-0.5-1.6-0.2c-2.5,1.6-3.5,2.6-2,5.1c0,0,0,0.1,0,0.1
			c0,0.4,0,0.8,0,1.3c-0.4-0.2-0.8-0.4-1.1-0.7c-0.1-0.1-0.1-0.2-0.2-0.3c-0.8-1.2-1.3-1.4-2.3-0.3c-2,2.1-3.9,4.3-5.8,6.5
			c-2.1,2.3-4.1,4.8-6.3,7c-2.2,2.2-4.4,2.5-7.1,1c-0.8-0.5-1.5-0.6-2.2,0.1c-1.1,1-1.3,1.8-0.8,2.9c1.7,4,3.3,8,4.9,12
			c1.3,3.1,2.6,6.2,4,9.3c1,2.3,2.3,4.5,3.1,6.9c0.5,1.4,1.1,2.1,2.5,2.2c1.6,0.2,2.5,2,1.5,3.3c-0.6,0.7-1.4,1.4-2.2,1.9
			c-1.3,0.7-2.7,1.3-4.1,1.8c-3.1,1.3-6.2,2.7-9.4,3.9c-1.9,0.7-3,0.2-3.6-1.6c-0.7-1.7-1.3-3.4-2-5c-2-4.9-3.9-9.8-6-14.7
			c-1-2.4-2.1-4.7-3.2-7c-0.8-1.6-2-2.5-3.9-2.2c-1,0.1-2.1,0-3.2-0.1c-1.2-0.1-1.9,0.3-2.5,1.4c-0.3,0.5-0.7,1-1.2,1.4
			c-2,1.8-4.2,3.5-6.1,5.3c-1.1,1.1-1.9,2.5-2.9,3.7c-3.3,4.1-25.3,54.7-26.9,58.9c-0.3,0.8-5,12.4-5.9,14.8
			c-1.2,3.4-2.6,6.4-6.2,7.9c-0.3,0.1-1.8,0.9-2.4,0.3c0.2-0.4,0.5-0.8,0.6-1.3c0.1-0.3,0-0.8-0.2-1.1c-1.4-1.9-28.7-32.6-29.7-34
			c-1.2-1.7-1.1-2.3,0.4-3.8c1.5-1.6,3.1-3,4.6-4.6c1.3-1.4,2.8-2.4,4.6-2.9c1.3-0.3,2.3-1.2,3.2-2.2c1.7-2.1,3.4-4.2,5.1-6.3
			c3-3.5,29.3-32.1,34.5-37.7c2.5-2.7,4.9-5.4,7.3-8.2c0.6-0.6,1.2-1.2,1.7-1.8c0.7-1,1.3-2,1-3.4c-0.2-1-0.1-1.8-1.3-2.1
			c0,0,0-0.8,0.2-1.1c0.4-0.5,1-0.9,1.4-1.4c0.5-0.5,1.3-1,1.4-1.7c0.5-1.8,0.6-3.7,1-5.5c0.3-1.3,0.5-2.7,1.2-3.8
			c0.6-0.9,0.6-1.7,0.2-2.5c-0.4-0.9-1-1.6-1.6-2.4c-0.8-1.1-1.3-2.4-1-3.6c0.4-2.2,1.9-4.2,4.9-4.4c0.8-0.1,1.9,0,2.5,0.5
			c1.2,0.8,2.1,1.9,3.1,2.9c0.9,0.9,2.1,1,3,0.2c0.4-0.4,0.8-0.9,1.2-1.3c3.1-2.9,6.2-5.8,9.3-8.7c1.8-1.7,2-2.5,1-4.7
			c-0.5-1-0.3-1.9,0.4-2.7c0.4-0.5,0.9-1,1.4-1.5c1.5-1.8,3.7-2.9,5.2-4.8c1-1.3,2.3-2.4,3.5-3.5c1.1-1,2.3-1.9,3.4-2.9
			c0.9,0.8,1.6,1.3,2.3,1.9c0.7,0.7,1.2,0.6,1.8,0c0.8-0.7,1.6-1.5,2.4-2.3c2.4-2.4,4.8-4.8,7.2-7.1c1.9-1.9,3.9-3.7,5.9-5.5
			c0.6-0.5,0.8-1,0.5-1.9c-0.1-0.3,0-0.9,0.2-1.2c1.8-1.9,3.5-3.7,5.4-5.4c0.8-0.7,1-1,0.5-2c-1-1.8-0.1-3.3,1.9-3.7
			c0.7-0.1,1.4-0.3,2-0.6c1.2-0.5,1.3-0.7,0.4-1.7c-1.4-1.6-3-3.1-4.5-4.7c-1.5-1.5-2.6-1.8-4.4-0.8c-1.4,0.8-2.7,1.8-4,2.8
			c-0.8,0.6-0.8,1.3-0.2,2.2c1.2,1.6,0.8,2.8-1,3.4c-2.1,0.7-3.7,1.9-4.6,3.9c-0.5,1.2-1.4,1.8-2.6,2.2c-2,0.6-3.6,1.9-4.6,3.7
			c-0.8,1.5-1.9,2.3-3.3,2.9c-1.9,0.9-3.6,2.2-4.6,4.2c-0.3,0.6-0.9,1.2-1.5,1.6c-0.8,0.6-1.7,1-2.6,1.5c-1.2,0.7-2.1,1.7-2.7,3.1
			c-0.5,1.2-1.6,1.5-2.4,0.5c-1.3-1.5-2.5-3.1-3.8-4.7c-0.9-1.1-0.9-1.4,0.2-2.3c0.3-0.2,0.6-0.4,0.9-0.6c1.5-0.8,2.9-1.7,3.9-3.2
			c0.7-1,1.7-1.9,2.8-2.5c2.1-1.2,3.8-2.8,5.2-4.7c0.4-0.6,1-1.2,1.7-1.5c2.1-1.2,4.3-2.3,5.5-4.3c1-1.6,2.3-2.6,4-3.3
			c1.3-0.6,2.2-1.5,2.8-2.9c0.3-0.6,1-1.3,1.7-1.5c0.6-0.1,1.4,0.4,2,0.8c0.8,0.5,1.4,0.4,2.1-0.1c1.5-1,3-2.1,4.6-2.8
			c1.7-0.8,3.6-1.2,5.4,0c0.9,0.6,1.6,1.4,2.4,2.1c1.1,1,2.3,1.9,3.5,2.9c0.6,0.4,1.3,0.5,1.6-0.2c0.5-1.1,1.3-1.4,2.5-1
			c0.8-1.2,0.6-2.3,0.1-3.5c-0.2-0.4-0.2-0.9-0.1-1.3c0.7-1.3,1.9-2.2,3.1-2.8c0.2-0.1,0.8,0.3,1,0.7c0.7,1.6,1.7,2,3,0.8
			c2.6-2.3,5.2-4.6,7.8-7c1.5-1.4,2.8-2.9,3.6-4.8c0.3-0.7,0.4-1.5,0.9-2c0.8-1.1,1.5-2.1,1.4-3.5c0-0.5,0.5-1.1,1-1.5
			c1.2-1.1,2.5-2.1,3.7-3.3c2.5-2.6,4.9-5.2,7.3-7.9c0.8-0.8,1.5-0.9,2.5-0.3c1,0.6,1.2,1.6,1.5,2.6c0.1,0.4,0,0.9-0.2,1.2
			c-1.5,1.9-3.1,3.7-4.7,5.5c-0.5,0.5-0.5,1.1-0.1,1.4c0.3,0.3,1,0.3,1.4,0.2c0.7-0.3,1.3-0.8,1.8-1.3c3-2.8,6-5.5,9-8.3
			c1.6-1.5,3.2-3.1,4.9-4.6c1.2-1.2,2.5-2.3,3.6-3.5c0.4-0.4,0.6-1,0.7-1.5c0.1-0.5,0-1,0.1-1.5c0-0.3,0.3-0.7,0.2-0.9
			c-0.5-0.8,0-1.4,0.5-1.9c0.8-0.7,1.7-1.4,2.6-2c0.9-0.6,1.8-1.1,1.8-2.4c0-0.3,0.4-0.8,0.6-1c0.9-0.8,1.8-1.5,2.7-2.2
			c0.5-0.4,0.9-0.9,1.6-1.5c0-0.1,0.1-0.5,0.2-0.9c0.1-0.4,0.4-0.7,0.6-1.1c-0.2-0.2-0.3-0.4-0.5-0.5c-1.3-1.4-1.4-1.8-0.5-3.6
			c0.1-0.2,0.1-0.4,0.1-0.6c-0.1-0.6-0.2-1.3-0.5-1.8c-0.5-1.1,0.5-1.4,0.9-1.9c0.3-0.3,1.1-0.5,1.4-0.3c1,0.4,1.9,1,2.7,1.6
			c1.5,1.3,3,2.8,4.4,4.2c0.8,0.8,1.4,1.8,2.2,2.5c0.8,0.6,0.9,1.8,2.2,1.9c0.5,0,1.8,0.1,1.7,1.4c0.3,0,0.6,0.1,0.8,0
			c0.4-0.2,0.8-0.4,1.1-0.7c1.4-1.4,3-2.7,4-4.4c0.8-1.3,1.5-2.5,2.8-3c1.6-0.7,2.8-2,4.1-3.1c0.6-0.5,1.3-0.9,0.9-1.9
			c-0.1-0.1,0.2-0.5,0.4-0.6c0.3-0.3,0.7-0.5,1.1-0.8c0.9-0.8,1.6-2.1,3.1-1.7c0.1,0,0.2-0.1,0.3-0.2c1.7-1.5,3.3-3,4.9-4.5
			c0.4-0.4,0.5-1,0.6-1.6c0.1-1.5,0.5-2.8,2-3.4c0.7-0.3,1.5-0.4,2-0.8c1.5-1.3,3-2.6,4.4-4c1.9-1.9,3.9-3.7,5.5-5.8
			c1.2-1.6,2.6-3,4-4.4c2.2-2.1,4.4-4.2,6.6-6.4c0.7-0.7,2-0.9,2.8-0.3c1.1,0.8,3.9,4.6,3.9,4.6c-0.3,0.6-0.6,1.2-1,1.7
			c-1.4,1.4-2.8,2.7-4.2,4c-1.6,1.4-3.1,2.9-4.8,4.2c-1.2,1-2.7,1.6-3.8,2.6c-2.4,2.2-4.7,4.6-7.1,7c-0.7,0.7-1.5,1.4-1.9,2.3
			c-0.8,2-2.1,2.9-4.1,3.2c-0.6,0.1-1.2,0.3-1.6,0.7c-1.4,1.3-2.7,2.8-4,4.2c-0.7,0.7-0.7,1.3,0.2,2c0.5,0.4,1,0.8,1.3,1.3
			c0.2,0.4,0.4,1.1,0.2,1.5c-0.4,0.8-1.1,1.5-1.7,2.2c-0.6,0.6-1.2,0.6-1.9,0.1c-0.7-0.6-1.4-1.2-2.1-1.7c-0.4-0.2-1.3-0.2-1.6,0.1
			c-1.2,1.1-2.3,2.4-3.4,3.6c-0.4,0.5-0.5,1,0.1,1.3c1.6,0.9,1.3,2.2,0.8,3.7C489.9,159,489.4,159,488.9,158.9z M379.9,292.9
			c0.9-1,1.7-2.2,2.5-3.2c0.6-0.7,0.6-1.5-0.1-2.1c-1.6-1.5-3.3-2.9-4.9-4.4c-0.7-0.6-1.3-1.2-2-1.8c-0.5-0.5-1-0.5-1.5,0.1
			c-1.7,1.9-3.5,3.8-5.1,5.9c-1,1.3-1.2,3-0.8,4.6c0.5,1.7,2.2,3,4,2.8c1.1-0.1,2.1-0.7,3.1-1c0.4-0.1,0.9-0.3,1.2-0.1
			c0.3,0.2,0.3,0.7,0.4,1.1c0,0.2,0,0.4-0.1,0.6c0.1,0.1,0.2,0.1,0.2,0.2C377.9,294.6,379,293.8,379.9,292.9z M463.2,166.8
			c-0.2,0.2-0.3,0.5-0.3,0.7c0,1.5-1.2,2.2-2,3.2c-1.5,1.7-3.9,1.8-5.4,3.6c-0.8,1-0.3,1.6,0.1,2.2c0.5,0.9,1.1,0.2,1.6,0
			c0.4-0.2,0.7-0.5,1-0.8c2.7-2.6,5.4-5.1,8.1-7.7c1.7-1.7,1.6-2.4-0.7-3.5C464.8,165.2,464,166,463.2,166.8z M374,297
			c-0.1,0.2-0.1,0.7-0.1,0.8c0.3,0.1,0.9,0.3,1,0.1c0.6-0.6,1-1.3,1.7-2.2C375.1,295.7,374.5,296.3,374,297z M368,302.3
			c0.7-0.6,1.3-1,1.8-1.4C368.9,300.7,368.3,301.2,368,302.3z M371.5,301c0.1,0.1,0.2,0.2,0.2,0.3c0.3-0.2,0.6-0.4,0.9-0.6
			c-0.1-0.1-0.2-0.3-0.3-0.4C372.1,300.5,371.8,300.7,371.5,301z"/>
	</g>
</g>
</svg>
