<svg xmlns="http://www.w3.org/2000/svg" width="3000" height="2000" viewBox="0 0 3000 2000" version="1.1"><path d="M 1479 502.135 C 1434.440 503.659, 1390.037 511.552, 1346.500 525.687 C 1216.577 567.870, 1109.266 661.346, 1049.385 784.498 C 1024.731 835.203, 1009.862 885.118, 1003.017 940.162 C 988.710 1055.214, 1015.852 1172.469, 1079.483 1270.500 C 1135.889 1357.398, 1218.966 1425.870, 1314.500 1464.198 C 1441.600 1515.190, 1582.285 1511.552, 1708 1454.022 C 1770.435 1425.451, 1823.987 1385.665, 1873.588 1331 C 1883.466 1320.114, 1891.904 1309.429, 1908.577 1286.696 C 1911.923 1282.134, 1924.235 1262.937, 1927.943 1256.500 C 1930.231 1252.528, 1930.216 1252.535, 1925.873 1257.491 C 1909.279 1276.427, 1899.404 1286.350, 1880.523 1303.060 C 1831.216 1346.695, 1762.973 1379.234, 1692.718 1392.608 C 1671.151 1396.713, 1655.231 1398.188, 1627 1398.696 C 1588.530 1399.388, 1564.289 1397.057, 1530.030 1389.373 C 1369.750 1353.426, 1247.961 1221.341, 1224.027 1057.500 C 1219.219 1024.588, 1218.761 981.177, 1222.902 950.804 C 1235.410 859.042, 1275.401 779.623, 1341.650 714.975 C 1398.754 659.251, 1470.996 621.848, 1549.112 607.562 C 1596.711 598.857, 1651.208 599.563, 1700.081 609.516 C 1771.054 623.971, 1839.522 659.291, 1891.964 708.500 C 1902.768 718.638, 1917.235 733.669, 1923.967 741.750 C 1926.830 745.188, 1929.361 748, 1929.590 748 C 1930.506 748, 1915.645 724.855, 1905.984 711.236 C 1889.886 688.543, 1875.142 671.188, 1853.500 649.455 C 1811.567 607.347, 1768.009 576.218, 1715.798 551.047 C 1655.455 521.957, 1585.232 504.246, 1523 502.422 C 1513.925 502.156, 1504.700 501.832, 1502.500 501.703 C 1500.300 501.573, 1489.725 501.768, 1479 502.135 M 1771.453 773 C 1767.577 778.225, 1743.540 811.207, 1718.038 846.293 C 1682.533 895.139, 1671.298 909.938, 1670.084 909.452 C 1663.566 906.842, 1502.374 854.988, 1501.475 855.213 C 1500.842 855.371, 1523.898 887.900, 1552.711 927.500 C 1583.628 969.993, 1604.928 1000.149, 1604.685 1001.084 C 1604.459 1001.956, 1580.794 1034.976, 1552.097 1074.462 C 1523.401 1113.948, 1500.057 1146.390, 1500.223 1146.557 C 1500.389 1146.723, 1538.539 1134.516, 1584.999 1119.429 C 1631.459 1104.343, 1670.154 1092.013, 1670.986 1092.029 C 1671.822 1092.044, 1695.327 1123.466, 1723.500 1162.231 C 1751.550 1200.827, 1775.498 1233.552, 1776.718 1234.953 L 1778.937 1237.500 1778.968 1146.949 L 1779 1056.398 1832.250 1039.124 C 1861.537 1029.624, 1900.091 1017.108, 1917.924 1011.312 C 1938.064 1004.766, 1949.808 1000.487, 1948.924 1000.016 C 1948.141 999.599, 1909.590 986.969, 1863.255 971.949 L 1779.011 944.642 1778.755 854.071 L 1778.500 763.500 1771.453 773" stroke="none" fill="#e03c31" fill-rule="evenodd"/><path d="M 0 1 C 0 1.666, 250.499 2, 749.498 2 L 1498.996 2 1499.248 251.750 L 1499.500 501.500 1519 502.146 C 1608.104 505.097, 1696.520 533.407, 1773 583.475 C 1803.732 603.594, 1826.026 621.867, 1853.500 649.455 C 1875.142 671.188, 1889.886 688.543, 1905.984 711.236 C 1915.645 724.855, 1930.506 748, 1929.590 748 C 1929.361 748, 1926.830 745.187, 1923.967 741.750 C 1917.235 733.669, 1902.768 718.638, 1891.964 708.500 C 1839.522 659.291, 1771.054 623.971, 1700.081 609.516 C 1636.339 596.534, 1566.880 599.416, 1507.581 617.504 L 1498.997 620.122 1499.249 1000.731 L 1499.500 1381.340 1509.143 1384.096 C 1548.215 1395.262, 1582.405 1399.498, 1627 1398.696 C 1668.659 1397.947, 1697.330 1393.593, 1734.500 1382.373 C 1789.778 1365.686, 1841.503 1337.592, 1880.523 1303.060 C 1899.404 1286.350, 1909.279 1276.427, 1925.873 1257.491 C 1930.216 1252.535, 1930.231 1252.528, 1927.943 1256.500 C 1924.235 1262.937, 1911.923 1282.134, 1908.577 1286.696 C 1886.617 1316.638, 1879.933 1324.700, 1858.992 1346.500 C 1843.778 1362.338, 1829.761 1375.275, 1813.500 1388.487 C 1743.211 1445.596, 1656.792 1482.960, 1566 1495.496 C 1550.621 1497.619, 1520.807 1499.954, 1508.750 1499.979 L 1499 1500 1499 1748.500 L 1499 1997 2248.500 1997 L 2998 1997 2998 998.500 L 2998 0 1499 0 C 500.333 0, 0 0.334, 0 1 M 1771.453 773 C 1767.577 778.225, 1743.540 811.207, 1718.038 846.293 C 1682.533 895.139, 1671.298 909.938, 1670.084 909.452 C 1663.566 906.842, 1502.374 854.988, 1501.475 855.213 C 1500.842 855.371, 1523.898 887.900, 1552.711 927.500 C 1583.628 969.993, 1604.928 1000.149, 1604.685 1001.084 C 1604.459 1001.956, 1580.794 1034.976, 1552.097 1074.462 C 1523.401 1113.948, 1500.057 1146.390, 1500.223 1146.557 C 1500.389 1146.723, 1538.539 1134.516, 1584.999 1119.429 C 1631.459 1104.343, 1670.154 1092.013, 1670.986 1092.029 C 1671.822 1092.044, 1695.327 1123.466, 1723.500 1162.231 C 1751.550 1200.827, 1775.498 1233.552, 1776.718 1234.953 L 1778.937 1237.500 1778.968 1146.949 L 1779 1056.398 1832.250 1039.124 C 1861.537 1029.624, 1900.091 1017.108, 1917.924 1011.312 C 1938.064 1004.766, 1949.808 1000.487, 1948.924 1000.016 C 1948.141 999.599, 1909.590 986.969, 1863.255 971.949 L 1779.011 944.642 1778.755 854.071 L 1778.500 763.500 1771.453 773" stroke="none" fill="#ffffff" fill-rule="evenodd"/><path d="M 0 1000.500 L 0 1999 750.107 1999 C 1433.696 1999, 1500.160 1998.860, 1499.607 1997.418 C 1499.273 1996.548, 1499 1884.273, 1499 1747.918 L 1499 1500 1489.211 1500 C 1470.979 1500, 1434.880 1496.345, 1411.500 1492.133 C 1292.517 1470.694, 1185.567 1406.609, 1108.373 1310.500 C 1062.390 1253.248, 1028.512 1183.559, 1012.120 1112.500 C 989.357 1013.820, 996.960 912.619, 1034.209 818.500 C 1079.932 702.970, 1169.294 606.652, 1281.500 551.961 C 1343.963 521.515, 1411.856 504.392, 1479 502.151 L 1498.500 501.500 1498.752 251.750 L 1499.004 2 749.502 2 L 0 2 0 1000.500 M 1483.500 625.379 C 1449.565 638.297, 1423.817 651.533, 1396.500 670.102 C 1318.346 723.229, 1260.125 803.305, 1234.958 892.284 C 1225.526 925.630, 1221.144 955.054, 1220.309 990.645 C 1218.772 1056.145, 1231.377 1114.970, 1259.544 1173.743 C 1299.465 1257.041, 1368.932 1325.289, 1452.500 1363.314 C 1462.896 1368.045, 1490.058 1378.590, 1496.750 1380.495 L 1499 1381.135 1499 1000.567 C 1499 791.255, 1498.662 620.011, 1498.250 620.025 C 1497.838 620.039, 1491.200 622.448, 1483.500 625.379" stroke="none" fill="#009639" fill-rule="evenodd"/></svg>