<svg xmlns="http://www.w3.org/2000/svg" width="1280" height="960" viewBox="0 0 1024 768"><path d="M0 384v384h1024V0H0v384z"/><path d="M391.3 85.108c0 .657 1.662 3.023 3.707 5.256 6.903 7.622 8.054 13.667 8.82 45.072.512 29.304-.255 37.845-5.752 57.556-4.346 16.03-7.67 20.893-13.04 19.054-3.195-1.052-4.602-5.257-7.03-21.814-2.43-16.294-2.557-29.83-.64-41.918.767-4.73 1.534-18.002 1.662-29.566.384-22.207.895-24.573 7.03-31.143 3.452-3.68 5.242-4.6 5.242-2.497zm147.908 5.388c1.534 1.314 4.09 5.913 5.625 10.118 2.685 6.965 2.94 9.987 3.452 37.976l.51 30.355-4.858 18.66c-2.556 10.38-5.88 20.104-7.16 21.944-2.684 3.417-7.542 4.205-9.715 1.445-.64-.788-2.557-9.855-4.22-19.842-2.812-17.477-2.812-19.316-1.15-35.48.894-9.46 2.045-26.674 2.428-38.238.895-24.18 2.557-29.566 8.82-29.566 2.046 0 4.858 1.182 6.264 2.628zm191.885.394c8.182 8.936 10.994 25.36 10.1 58.08-.64 21.156-1.15 25.1-4.475 36.794l-4.602 17.082c-1.534 6.57-4.22 9.856-8.437 9.856-2.302 0-4.22-.92-4.986-2.366-.64-1.182-2.43-10.906-3.835-21.287-2.3-16.426-2.43-20.63-1.28-30.88.767-6.57 1.8-22.734 2.3-36.137s1.534-25.887 2.43-27.858c2.684-6.57 8.437-8.016 12.783-3.285zm-388.627 3.417c10.1 5.256 9.587 3.153 9.46 48.488-.128 22.34-.767 44.415-1.407 49.277-2.684 19.58-9.97 22.602-52.54 22.47-23.778-.13-35.667-1.708-40.908-5.52-6.264-4.6-7.287-4.467-13.68 2.234-6.775 7.096-13.55 9.856-28.763 11.827-15.724 2.102-25.696-2.366-33.877-15.243-4.475-6.833-4.858-8.147-4.73-16.69 0-8.4.64-10.512 5.497-20.105 7.286-14.323 10.354-16.294 27.1-17.608 14.2-.92 19.048-3.154 19.048-8.4 0-4.336 4.347-16.03 7.16-19.185 7.67-8.804 20.838 5.782 20.965 22.996 0 8.278 2.046 21.287 4.22 27.463 2.684 7.885 12.016 9.856 16.362 3.548 1.918-2.76 2.557-7.5 3.452-29.96l1.15-26.675 4.73-6.965c6.648-9.987 10.1-12.877 14.318-12.352 6.904.79 7.543 4.337 7.67 42.444l.256 34.165 4.22 3.548c4.986 4.337 6.264 4.468 10.227 1.183l3.068-2.497.128-37.187c.128-39.816.767-44.94 6.264-50.59 3.707-3.81 4.474-3.81 10.6-.657zm156.6.263c1.534.788 4.09 2.76 5.753 4.204l2.812 2.628v47.832c0 52.825-.128 53.876-7.926 59.92-4.218 3.286-5.497 3.68-31.192 7.097-5.24.657-38.48-1.71-41.803-3.023-2.94-1.182-4.73-6.7-4.73-14.848 0-8.542 2.812-13.667 8.18-15.112 4.603-1.183 5.88-6.702 6.648-30.88.384-11.958.895-23.653 1.278-26.02.64-4.6 10.74-19.316 14.83-21.55 1.406-.788 3.835-1.05 5.37-.657 5.753 1.445 6.392 5.65 6.903 42.838l.51 34.822 3.324 2.89c4.475 3.81 7.287 3.81 11.122-.262 2.685-2.63 3.196-4.468 3.196-10.776 0-4.205-.51-9.592-1.15-11.958-1.28-4.204.255-46.386 1.917-57.03.895-5.65 5.625-11.563 9.46-11.563 1.534 0 3.963.657 5.497 1.445zm337.237 2.496c3.068 1.446 6.903 2.628 8.3 2.628 1.533 0 2.94 1.05 3.195 2.234.256 1.314.256 24.18 0 50.985l-.383 48.62-8.95 5.913c-10.355 6.965-14.318 7.753-42.314 8.673-21.477.79-35.156-.788-37.713-4.336-1.022-1.577-1.534-5.782-1.278-12.746l.384-10.513 5.752-3.416c7.03-4.205 7.16-5.125 8.693-37.582 1.023-23.653 1.15-23.653 4.986-29.566 6.136-8.805 10.483-13 13.55-13 7.8.132 8.566 3.81 8.566 42.576 0 31.406.128 33.508 2.557 36.662 3.324 4.205 6.392 5.256 10.6 3.68 4.858-1.972 6.52-8.805 4.986-21.157-1.406-12.22.128-58.344 2.173-63.732 3.58-8.935 7.415-10.38 16.875-5.913zm-143.818 8.936c3.835 2.628 4.347 7.62 4.986 52.825.64 49.408.255 53.22-5.497 56.372-6.776 3.68-37.713-.13-45.894-5.65-5.88-4.074-8.82-3.417-12.656 2.497-6.52 10.25-37.712 16.425-50.24 9.986-5.753-3.153-12.53-10.643-15.085-17.082-2.43-5.913-1.534-23.4 1.534-31.012 5.88-14.192 13.423-19.185 30.937-20.105 13.423-.657 17.002-2.76 17.002-9.592 0-4.862 3.196-12.747 6.648-16.557 4.218-4.6 8.948-3.943 14.2 2.102 5.37 6.045 6.647 10.512 8.31 28.384.767 7.227 2.045 15.505 3.068 18.396 1.918 6.045 6.648 9.33 11.633 8.016 6.264-1.577 7.032-4.6 8.182-33.77 1.023-25.23 1.406-27.332 4.22-31.537 7.67-11.564 14.318-16.295 18.664-13.272zM538.696 224.66c1.534.92 3.196 2.234 3.707 3.023 2.813 4.336-.895 11.3-6.136 11.3s-4.602 2.63 1.15 5.126c10.995 4.862 8.95 11.826-4.985 17.87-4.858 2.103-8.95 4.337-9.204 4.863-1.023 2.365-6.904.92-9.844-2.628-4.346-4.994-4.1-9.33.895-13.535 3.963-3.417 4.1-3.548 1.917-6.833-3.58-5.65-2.684-9.2 3.58-15.243 4.73-4.468 6.52-5.388 10.866-5.388 2.94 0 6.52.657 8.054 1.446zm195.21.526c7.16 3.8 6.136 13.272-1.534 14.06-5.88.526-5.625 2.76.5 5.65 4.987 2.365 5.498 3.154 5.498 7.227 0 4.468-.384 4.862-10.227 9.987-13.167 7.096-16.875 7.227-20.966 1.183-2.556-3.942-2.812-5.125-1.66-7.885.894-1.84 2.94-3.942 4.73-4.862 3.835-1.84 3.963-2.365.64-6.307-1.406-1.708-2.557-4.336-2.557-5.782 0-2.9 9.076-12.878 12.784-14.323 3.707-1.314 9.076-.92 12.784 1.05zM558.966 357.17c17.54 2.773 35.46 14.997 54.905 37.176 8.897 10.08 19.827 29.362 32.664 57.212L652 463.53v60.49c0 60.236 0 60.614-2.923 66.79-4.32 9.45-14.5 22.18-26.818 33.772-16.395 15.5-28.977 23.187-60.497 37.175-12.456 5.545-23.767 6.553-67.615 6.175l-29.36-.252-20.08-9.955c-38.638-19.28-54.017-33.9-73.208-69.3l-6.736-12.6-.763-64.773 3.94-14.87c2.16-8.19 4.957-17.4 6.228-20.54s4.83-12.728 7.753-21.423c7.88-23.565 28.215-60.614 39.908-72.838 8.897-9.325 29.74-18.903 51.6-23.44 9.787-2.14 73.844-2.646 85.537-.755z" fill="#fff"/><path d="M221.658 165.003c-3.708.788-9.716 6.833-12.4 12.615-2.94 6.57-2.813 17.476.383 19.316 3.707 1.97 17.386 1.708 19.176-.394 3.196-4.074 6.775-27.464 4.474-29.83-1.534-1.576-7.926-2.496-11.633-1.707zm386.965 2.76c-5.752 2.89-12.783 14.717-12.783 21.288 0 7.884 2.3 9.724 12.528 10.25 10.6.656 10.866.394 14.445-16.163 2.94-13 2.94-11.827-.383-15.112-3.452-3.285-7.926-3.417-13.807-.263zM455.03 463.468l4.5-.73c3.415-.506 7.775-2.154 9.962-3.764.55-.405 1.8-1.715 2.776-2.9s1.963-2.277 2.2-2.402c.5-.28 2.564-.264 3.656.03.446.12 1.334.566 1.975.993 1.7 1.13 6.23 2.573 9.517 3.027 2.3.318 3.68.426 11.836.92 1.646.103 5.393.183 8.326.18l5.333-.01 3.274-.644c1.8-.354 4.453-.76 5.894-.9s3.18-.425 3.864-.63c2.17-.656 4.498-2.486 5.676-4.464.968-1.625 2-4.518 2.16-6.117.348-3.242.75-9.787.936-15.244.182-5.2.167-5.937-.2-9.213-.543-5.067-.54-14.864.008-21.54.368-4.492.373-4.832.087-6.247-.654-3.2-2.054-5-4.962-6.38-1.912-.907-3.198-1.068-4.686-.587-1.707.553-3.494 2.503-4.144 4.522-.92 2.858-1.535 10.452-1.82 22.48-.185 7.616-.13 9.667.356 13.318.1.803.276 3.37.378 5.705.242 5.554.12 6.134-1.673 7.767-1.258 1.148-2.247 1.572-3.678 1.577-2.194.01-4.733-1.697-5.892-3.955l-.637-1.24V427.7c0-7.93.053-9.73.346-12.165.298-2.445.315-3.08.125-4.38-.127-.836-.296-3.777-.383-6.537s-.24-5.47-.34-6.02c-.472-2.606-1.626-4.36-3.106-4.723-1.2-.298-2.84-.25-3.63.106-.955.43-4.15 3.594-4.85 4.804-.626 1.082-2.475 5.464-2.954 6.997-.34 1.093-.593 4.6-.837 11.61l-.726 15.8c-.224 3.488-.585 4.675-1.776 5.844-.998.98-3.417 1.794-4.91 1.65-1.956-.2-3.663-1.34-4.8-3.25-.617-1.025-1.424-4.26-2.27-9.09-.57-3.258-.68-4.354-.747-7.433-.1-4.917-.35-6.155-1.762-8.902a102.328 102.328 0 0 1-1.726-3.518c-.897-1.98-2.628-3.3-4.32-3.32-2.666-.015-5.054 1.332-5.943 3.353-.418.95-1.058 3.68-1.22 5.2-.15 1.384-.85 3.306-1.53 4.174-.745.952-2.563 2.175-4.887 3.286l-2.108 1.008-2.57.146c-8.55.472-10.607 1.143-14.19 4.623-2.483 2.412-3.187 3.55-3.996 6.457-.317 1.138-.69 2.288-.832 2.555s-.607 1.74-1.037 3.27c-.947 3.366-1.237 5.74-.955 7.805.248 1.82.34 2.13 1.437 4.885 2.535 6.36 6.8 10.162 12.876 11.47 3.6.775 4.54.782 8.617.07zm-.098-14.09c-1.946-.32-3.297-1.2-4.494-2.934-.504-.73-.965-1.592-1.025-1.916-.148-.8 1.566-7.36 2.326-8.928.396-.816 1.046-1.655 2.116-2.73 2.112-2.123 3.035-2.705 4.6-2.898.687-.09 1.617-.28 2.067-.437 2.06-.713 4.29-.1 5.63 1.555 1.3 1.6 1.414 3.322.485 6.737-.26.953-.473 2.116-.475 2.584-.012 3.284-1.82 7.02-3.997 8.265-.7.394-1.184.496-3.137.644-2.372.183-3.272.196-4.096.06zm105.733 5.54c1.7-.875 2.526-2.582 3.145-6.508.202-1.255.702-3.605 1.12-5.224s.89-3.784 1.05-4.813.32-1.92.36-1.984.43-1.715.866-3.67l.794-3.558-.035-13.046c-.038-14.1-.137-15.92-1.08-19.98a177.4 177.4 0 0 1-1.005-4.704c-.295-1.483-.742-3.126-.993-3.65-.712-1.486-2.185-2.955-3.412-3.402-1.444-.527-3.022-.503-4.158.066-2.176 1.085-2.676 2.246-3.3 7.7-.247 2.128-.28 3.907-.193 10.426.09 6.315.058 8.285-.17 10.024-.154 1.2-.327 2.78-.39 3.532a133.54 133.54 0 0 1-.476 4.112c-.898 6.877-1.14 15.912-.486 18.147.165.552.383 1.866.492 2.92.594 5.723.996 8.743 1.328 9.98.838 3.12 1.838 4.067 4.3 4.068 1.127 0 1.59-.1 2.245-.424zm-138.017 104.85c2.765-.3 4.013-.672 6.582-1.908 2.162-1.04 4.244-2.6 5.008-3.752 1.335-2.013 2.73-4.974 3.13-6.647a68.96 68.96 0 0 1 1.044-3.725c.715-2.28 1.1-4.56 1.4-8.222l1.04-11.317c.31-2.333.74-18.23.576-21.288-.345-6.413-.655-9.65-1.036-10.813-1.06-3.236-4.092-4.776-7.507-3.81-1.316.372-3.046 1.38-3.632 2.12-.72.904-1.9 3.462-2.45 5.307-.83 2.777-.57 5.34 1.23 12.118.312 1.175.784 3.56 1.05 5.3.67 4.4.576 8.208-.32 12.774-.6 3.06-.616 3.273-.625 8.083-.01 5.526.094 5.064-1.553 7.03-.79.95-1.637 1.646-3.492 2.886-4.117 2.75-4.76 2.904-7.644 1.847-2.774-1.017-2.836-1.057-4.592-3.022-2.002-2.24-3.004-3.828-3.93-6.238-1.025-2.66-1.972-3.58-3.682-3.58-1.43 0-2.7 1.2-3.102 2.974-.192.804-.178 1.276.076 2.726l.4 2.55c.065.438.54 2.136 1.062 3.773a697.92 697.92 0 0 1 1.696 5.403c1.414 4.6 2.51 6.318 5.002 7.9 1.88 1.186 2.737 1.412 6.18 1.624 3.568.22 5.588.204 8.093-.086zm37.326-5.483a73.701 73.701 0 0 0 5.278-1.278l3.554-1.003c.566-.148 1.997-.69 3.18-1.207l2.806-1.182c1.338-.5 3.672-1.675 4.397-2.234.4-.318 1.518-1.074 2.46-1.68 1.94-1.248 2.02-1.34 3.568-4.17.903-1.65 1.17-2.335 1.336-3.412.435-2.845.884-3.6 2.644-4.45 1.933-.93 3.246-1.118 5.706-.82 3.02.368 7.3 1.373 9.496 2.224 3.582 1.396 4.998 1.787 7.433 2.055l4.397.528c1.132.15 3.236.35 4.677.45 6.256.427 9.415.735 10.29 1 .568.178 2.182.35 4.115.45 4.246.217 7.922.494 9.635.725.77.108 3.466.237 5.99.295 4.932.115 5.837.025 7.54-.738l2.818-1.255c1.78-.792 4.56-2.452 7.67-4.578 1.19-.813 1.78-1.404 3.064-3.062 2.286-2.95 3.83-5.752 4.565-8.284l.597-2.057.153-12.69-.598-2.457c-.328-1.352-.705-2.66-.835-2.907s-.753-.986-1.38-1.645c-1.285-1.344-2.062-1.697-4.15-1.884-2.115-.192-2.9.105-4.843 1.795-1.165 1.016-2.1 2.067-3.083 3.428-1.2 1.666-1.516 2.294-2.143 4.132-1.057 3.102-1.116 3.512-1.253 8.756-.083 3.07-.208 4.923-.353 5.278-.397.94-2.27 2.714-3.48 3.295-3.412 1.637-6.65 1.014-9.453-1.82-1.365-1.38-1.646-1.944-1.857-3.73-.152-1.26.3-3.947 1.063-6.348 1.446-4.558.7-8.5-2.143-11.34-1.426-1.418-2.05-1.615-4.7-1.485-2.695.136-3.447.438-5.17 2.105-2.785 2.697-3.956 5.974-3.87 10.834.05 2.833-.102 3.568-.968 4.828-1.118 1.62-2.8 2.3-5.697 2.346-1.592.02-2.03-.042-2.864-.39-1.854-.784-2.8-2.484-2.606-4.737.302-3.698.588-9.406.592-11.802.01-2.696-.01-2.8-.493-3.593-.6-.958-2.75-2.8-3.805-3.247-1.31-.554-2.88-.76-4.11-.54-1.814.322-2.604.8-3.85 2.325-1.58 1.937-2.007 2.867-2.448 5.348-.6 3.367-.616 3.93-.184 5.862.6 2.66.48 4.08-.438 5.114-.243.274-1.59 1.065-2.995 1.756l-2.552 1.258h-3.404c-3.344 0-3.425-.01-4.462-.498-1.882-.887-3.383-2.883-4.438-5.9-1.504-4.3-4.168-8.48-7.457-11.703-1.7-1.676-2.382-1.93-5.12-1.93-4.992 0-8.172 1.447-13.158 5.983-2.533 2.306-4.274 4.368-5.24 6.206-.644 1.228-1.228 3.417-1.225 4.592.01 1.484.672 4.177 1.38 5.563.918 1.796 2.844 4.916 3.562 5.77.332.397 1.1 1.444 1.71 2.33.648.943 2.002 2.485 3.26 3.712 1.896 1.85 2.352 2.196 3.855 2.914.944.45 1.925 1.066 2.198 1.378.656.748.67 1.744.038 2.468-.765.872-6.036 3.605-10.41 5.396-1.016.416-3.747 2.17-4.612 2.964-.335.307-.777 1-.982 1.517-.663 1.702-.44 2.943.77 4.266 1.364 1.49 2.765 1.652 7.047.81zm7.938-29.37c-.75-.313-2.694-1.73-3.17-2.313-.196-.234-.5-.88-.707-1.436-.417-1.18-.286-1.946.654-3.805.807-1.596 4.648-5.876 5.722-6.375 1.04-.483 1.9-.37 2.753.36.533.458.6.622.6 1.473 0 .792-.162 1.255-.91 2.665-1.106 2.08-1.295 3.365-.767 5.213.697 2.437.5 3.635-.657 4.216-.694.344-2.696.345-3.52.01zm126.05 25.87c2.297-.66 3.925-1.462 6.34-3.127 1.173-.8 2.48-1.67 2.905-1.907 1.276-.718 2.22-1.605 2.894-2.716.35-.58.967-1.552 1.37-2.162 1.305-1.98 1.693-3.286 2.015-6.777.182-1.93.33-2.512 1.578-6.018l1.674-4.538c.164-.362.452-1.332.646-2.156s.7-2.67 1.144-4.103c1.05-3.453 1.313-4.845 1.444-7.636.137-2.847-.15-4.055-1.857-7.957-1.205-2.75-1.77-3.43-3.375-4.075-.794-.318-3.216-.367-4.002-.084-1.064.39-2.48 1.63-3.923 3.435-3.28 4.108-3.415 4.473-3.64 9.846-.098 2.223-.296 5.205-.45 6.626s-.278 2.95-.278 3.397c0 1.178-1.045 7.308-1.675 9.828-.297 1.186-.594 2.56-.662 3.054-.178 1.286-1 4.362-1.345 5.015-.165.305-1.55 1.717-3.086 3.14-3.408 3.153-3.758 3.705-3.777 5.948-.01 1.088.077 1.68.29 2.066.325.576 1.004 1.232 1.462 1.4.523.206 2.715-.06 4.308-.513zm-74.523 85.065c2.642-.584 7.394-2.588 13.077-5.518 1.6-.83 1.9-.918 3.02-.918.68 0 2.82.293 4.757.65 9.988 1.85 14.2 2.3 18.46 1.966 2.975-.233 8.33-1.222 10.6-1.956 1.862-.604 7.837-3.6 9.072-4.532a52.1 52.1 0 0 1 2.04-1.462c1.988-1.34 3.42-2.825 4.164-4.328.667-1.343.687-1.448.61-3.1-.07-1.445-.166-1.847-.638-2.68-.75-1.316-2.556-3.17-4.113-4.22a33.471 33.471 0 0 1-2.37-1.789c-.745-.63-2.184-1.453-4.52-2.583-3.64-1.76-4.136-2.158-4.403-3.517-.293-1.496.55-2.2 2.423-2.048 1.438.128 2.515.676 4.088 2.092 1.668 1.5 2.57 2.04 4.47 2.677 1.888.632 4.202.72 5.282.2.68-.327 3.183-3.038 4.755-5.147.477-.64 1.16-1.824 1.515-2.63s.95-1.92 1.32-2.476c1.642-2.456 2.34-4.4 2.617-7.27l.305-2.884c.107-.83.032-1.13-.606-2.485-1.03-2.196-1.605-2.944-3.98-5.188-1.98-1.868-2.247-2.052-4.473-3.08-1.302-.602-2.87-1.22-3.485-1.372-2.37-.592-4.75-.184-7.457 1.29-1.768.958-3.305 2.35-5.696 5.15-1.508 1.764-4.698 6.507-5.115 7.602-.94 2.468-2.416 4.807-3.393 5.375-1.15.67-1.965.65-4.386-.107-3.577-1.116-5.546-.918-7.218.725-1.696 1.666-2.28 3.456-1.847 5.672.22 1.13 1.854 4.046 3.064 5.467 1.425 1.675 5.834 4.575 9.38 6.17s4.554 4.073 2.47 6.078c-.64.617-3.116 1.776-4.764 2.23-1.023.283-1.502.292-5 .095-3.234-.19-4.312-.324-6.553-.848-1.475-.346-3.037-.628-3.47-.628-1.09 0-2.87-.47-3.996-1.056-1.4-.73-2.65-2.142-3.3-3.728-.754-1.837-2.738-4.576-4.613-6.37-2.695-2.576-4.458-3.618-8.088-4.78-1.85-.592-2.145-.635-4.457-.634-1.362 0-3.3.124-4.304.268-2.26.33-7.774 1.95-9.325 2.737-1.778.902-3.435 2.57-4.266 4.294-.753 1.56-2.243 3.774-2.98 4.427-.25.222-.874.58-1.383.796l-.925.393-.996-.47c-2.72-1.288-3.653-2.517-5.037-6.646-.66-1.97-1.11-2.947-1.91-4.142-3.802-5.684-6.34-8.22-11.454-11.44l-4.2-2.688c-.558-.38-1.64-.946-2.404-1.258a47.948 47.948 0 0 1-2.4-1.06c-1.598-.785-5.297-2.102-6.574-2.343-.73-.14-2.12-.19-3.715-.13-2.367.1-2.704.15-4.73.84-2.504.855-2.975 1.13-5.26 3.055-2.17 1.828-2.7 2.8-2.816 5.118-.106 2.03.22 2.936 1.475 4.162.942.92 2.94 2.26 4.588 3.08l.98.485 10.908-.45 1.538.505c3.783 1.244 5.572 2.552 7.607 5.557 1.55 2.3 1.935 3.27 2.058 5.243.084 1.285.023 1.835-.307 2.87-.223.704-.58 1.492-.794 1.752-.868 1.055-3.84 1.496-6.544.97-3.294-.64-7.1-2.037-9.337-3.417-1.834-1.138-3.15-1.504-5.1-1.418-1.98.1-2.96.468-4.395 1.7-2.003 1.73-2.97 3.986-2.994 6.988-.024 2.798.27 3.43 2.66 5.73 2.096 2.017 3.392 2.79 5.955 3.546 1.874.554 5.846 1 7.734.868 2.718-.193 7.96-.982 11.14-1.683 1.693-.374 3.874-.787 4.848-.918 2.237-.3 2.868-.495 4.77-1.47.845-.435 2.62-1.23 3.942-1.765 2.092-.848 2.567-.974 3.655-.968.687.008 1.9.182 2.693.39a33.83 33.83 0 0 0 2.789.594c.744.12 1.776.44 2.308.72 3.675 1.946 4.674 2.602 6.63 4.358 2.804 2.514 8.104 5.7 10.6 6.345 1.88.496 4.383.65 5.722.355zm-3.38-11.32c-2.706-.883-3.85-1.49-5.263-2.794-3.246-2.996-2.988-4.052 1.995-8.15 2.49-2.048 3.248-2.428 4.696-2.352 1.97.107 2.95 1.002 4.172 3.827l1.168 2.664c.64 1.436.644 2.508.012 3.72-.86 1.65-3.465 3.56-4.842 3.547-.295-.008-1.167-.2-1.94-.462zm64.107-34.812c-2.356-.53-3.442-1.808-2.7-3.18.934-1.73 3.262-1.684 4.535.092 1.045 1.452 1.1 2.252.2 2.793-.428.256-1.512.416-2.03.3z"/></svg>