<?xml version="1.0" encoding="UTF-8" standalone="no"?>
<svg
   width="220.12425pt"
   height="279.00214pt"
   viewBox="0 0 220.12425 279.00214"
   version="1.1"
   id="svg53"
   sodipodi:docname="Islamic_State_–_Sinai_Province.svg"
   inkscape:version="1.3 (0e150ed6c4, 2023-07-21)"
   xmlns:inkscape="http://www.inkscape.org/namespaces/inkscape"
   xmlns:sodipodi="http://sodipodi.sourceforge.net/DTD/sodipodi-0.dtd"
   xmlns="http://www.w3.org/2000/svg"
   xmlns:svg="http://www.w3.org/2000/svg">
  <defs
     id="defs57" />
  <sodipodi:namedview
     id="namedview55"
     pagecolor="#ffffff"
     bordercolor="#666666"
     borderopacity="1.0"
     inkscape:pageshadow="2"
     inkscape:pageopacity="0.0"
     inkscape:pagecheckerboard="0"
     inkscape:document-units="pt"
     showgrid="false"
     inkscape:zoom="2.217725"
     inkscape:cx="146.54658"
     inkscape:cy="186.00142"
     inkscape:window-width="1920"
     inkscape:window-height="1007"
     inkscape:window-x="-9"
     inkscape:window-y="-9"
     inkscape:window-maximized="1"
     inkscape:current-layer="text2152"
     inkscape:showpageshadow="2"
     inkscape:deskcolor="#d1d1d1" />
  <g
     id="#000000fe"
     transform="translate(-53.54,-30.44)">
    <path
       fill="#000000"
       opacity="1"
       d="m 149.01,45.17 c -0.41,-5.11 0.5,-11.01 4.31,-14.73 -0.58,4.2 -2.59,8.7 -0.12,12.7 1.99,-0.09 3.88,-0.64 5.74,-1.31 -0.46,2.81 -1.33,6.21 -4.15,7.51 -2.71,1.39 -5.39,-1.67 -5.78,-4.17 z"
       id="path2" />
    <path
       fill="#000000"
       opacity="1"
       d="m 152.99,53.05 c 14.7,-4.87 29.5,-9.54 43.93,-15.18 0.29,0.52 0.88,1.57 1.17,2.09 -3.07,4.75 -6.95,9.59 -12.45,11.62 -7.22,2.91 -14.85,4.79 -21.85,8.27 -18.98,6.05 -37.34,13.95 -55.3,22.54 -4.35,2.15 -8.11,5.5 -12.78,6.95 1.57,-4.83 3.54,-9.85 7.13,-13.54 7.91,-5.75 17.24,-9.04 26.1,-13.01 7.98,-3.35 15.88,-6.86 24.05,-9.74 z"
       id="path4" />
    <path
       fill="#000000"
       opacity="1"
       d="m 114.88,44.02 c 0.15,-1.69 0.02,-5.65 2.66,-4.97 4.74,3.81 6.6,10.16 6.87,16.02 0.01,2.52 0.17,5.51 -2.05,7.23 -0.28,-1.99 -0.33,-4 -0.72,-5.97 -1.17,-4.61 -4.24,-8.37 -6.76,-12.31 z"
       id="path6" />
    <path
       fill="#000000"
       opacity="1"
       d="m 216.19,45.97 c 0.43,-0.34 1.28,-1.01 1.71,-1.35 -0.55,2.8 -1.68,5.53 -1.66,8.41 0.28,2.24 1.2,5.09 3.77,5.51 1.53,-0.7 2.78,-1.85 4.14,-2.81 0.31,4.21 -2.21,8.07 -6.09,9.63 -1.65,-1.49 -3.71,-2.93 -4.09,-5.29 -0.88,-4.76 -0.18,-9.87 2.22,-14.1 z"
       id="path8" />
    <path
       fill="#000000"
       opacity="1"
       d="m 73.11,82.06 c 3.02,-7.86 6.58,-15.92 13.06,-21.55 0.62,1.1 1.57,2.11 1.68,3.42 1.34,7.73 1.62,15.59 2.78,23.34 1.89,16.61 3.43,33.29 5.87,49.85 1.59,9.94 5.74,20.48 14.87,25.76 6.8,3.23 14.33,1.47 21.46,0.89 11.92,-2.8 21.94,-10.2 31.72,-17.19 2.1,-1.62 4.8,-2.35 7.35,-1.36 0.42,3.76 -0.97,8.02 1.3,11.35 1.45,1.9 3.28,3.69 5.68,4.26 4.04,1 9.14,1.22 12.16,-2.18 -0.4,-4.46 -5.39,-7.87 -3.64,-12.57 0.56,-2.68 1.1,-5.37 1.67,-8.04 0.18,-1.2 1.18,-2.64 2.57,-2.06 2.55,3.14 4.19,7.01 5.28,10.89 0.69,7.36 0.14,15.05 -3.13,21.79 -1.54,2.96 -2.65,6.78 -6.09,8.06 -3.2,0.81 -6.57,0.58 -9.81,0.2 -3.87,-0.82 -6.83,-3.75 -9.09,-6.84 -1.89,-3.06 -2.37,-6.7 -3.01,-10.17 -5.84,3.22 -10.57,8.06 -16.36,11.36 -10.21,6.31 -22.44,10.39 -34.53,8.62 -7.74,-1.41 -15.38,-5.44 -19.58,-12.3 -3.36,-4.9 -3.97,-10.97 -4.51,-16.72 -2.22,-14.56 -3.63,-29.24 -5.75,-43.81 -1.11,-9.65 -2.78,-19.25 -3.3,-28.96 -2.91,2.13 -4.32,5.51 -5.95,8.6 -3.51,7.01 -5.64,14.62 -8.92,21.72 0.22,-9.1 3.24,-17.85 6.22,-26.36 z"
       id="path10" />
    <path
       fill="#000000"
       opacity="1"
       d="m 247.75,70.74 c 1.36,-1.97 4.21,-1.22 5.17,0.76 0.06,1.75 -0.78,3.42 -1.15,5.11 -0.78,-0.37 -2.34,-1.13 -3.12,-1.51 -2.56,2.59 -2.44,6.52 -2.69,9.9 -0.25,3.42 0.89,6.77 0.5,10.19 2.39,2.22 5.46,4.28 6.08,7.72 0.01,2.24 -0.84,4.67 -2.95,5.75 -3.16,1.34 -6.93,0.91 -9.67,3.24 -0.35,8.63 4.93,17.07 2.04,25.6 -1.84,-2.88 -2.29,-6.3 -3.02,-9.56 -0.86,-4.28 -2.1,-8.58 -1.65,-12.99 0.31,-2.88 0.22,-6.16 2.25,-8.47 1.65,-2.02 4.36,-2.49 6.69,-3.32 -1.36,-1.64 -3.28,-0.8 -4.84,0.05 0.41,-2.91 2.03,-5.42 2.88,-8.16 -0.9,-3.95 -3.01,-7.62 -5.85,-10.49 -1.96,-1.97 -4.93,-1.71 -7.45,-2.24 0.04,-2.99 -0.33,-6.04 0.36,-8.98 1.09,-0.57 2.11,-0.51 3.09,0.21 4.17,2.77 7.42,6.76 9.77,11.16 1.1,-4.63 0.53,-10 3.56,-13.97 z"
       id="path12" />
    <path
       fill="#000000"
       opacity="1"
       d="m 156.93,77.03 c 0.52,-1.76 1.97,-3.59 4.03,-3.3 1.79,-0.18 2.99,1.37 3.99,2.6 0.62,2.25 0.03,4.6 -1,6.63 -1.41,-0.96 -2.82,-1.93 -4.33,-2.74 l -0.68,0.67 c -0.94,4.01 -0.82,8.17 -1.39,12.24 -0.62,3.82 -0.24,7.83 -1.89,11.43 -2.13,-2.26 -2.4,-5.53 -4.01,-8.1 -1.19,-1.84 -2.44,-3.67 -4,-5.22 -2.14,-1.94 -5.75,-1.39 -7.55,-3.69 -0.04,-3.21 -0.91,-6.92 1.2,-9.68 0.3,0.07 0.89,0.19 1.18,0.26 5.61,3.27 8.95,9.09 12.48,14.32 0.43,-5.16 0.52,-10.42 1.97,-15.42 z"
       id="path14" />
    <path
       fill="#000000"
       opacity="1"
       d="m 185.3,75.29 c 6.21,-0.75 12.52,-1.75 18.78,-0.77 4.02,0.74 9.16,-0.43 11.81,3.55 -2.18,6.81 -5.39,13.36 -9.88,18.95 -1.32,1.46 -2.89,3.21 -5.04,3.11 -3.82,0.01 -7.68,-0.49 -11.47,0.29 -1.58,0.72 -3.83,-1.55 -1.74,-2.61 4.48,-3.42 10.13,-4.89 14.76,-8.1 -6.68,-0.96 -13.6,-1.25 -20.15,0.65 -1.73,1.07 -2.4,3.23 -3.8,4.66 -1.7,0.48 -2.46,-1.6 -2.11,-2.93 0.71,-4.01 2.4,-7.78 4.3,-11.37 1.16,-2.05 2.34,-4.32 4.54,-5.43 z"
       id="path16" />
    <path
       fill="#000000"
       opacity="1"
       d="m 109.64,92.52 c 0.43,-1.43 1.49,-2.5 2.54,-3.51 -0.34,6.22 -4.69,11.69 -3.92,18.07 0.07,2.17 1.56,4.15 3.74,4.59 1.72,-0.88 3.12,-2.33 5,-2.93 -0.43,3.96 -2.39,9.14 -7.05,9.27 -3.86,-1.6 -5.62,-6.14 -4.93,-10.09 0.86,-5.3 2.64,-10.42 4.62,-15.4 z"
       id="path18" />
    <path
       fill="#000000"
       opacity="1"
       d="m 263.15,106.89 c 0.78,-3.9 1.41,-8.04 3.9,-11.28 -0.15,5.46 -2.43,10.87 -1.18,16.34 0.26,1.31 1.1,2.41 2.03,3.33 2.04,0 3.17,-1.97 4.69,-2.99 -0.21,2.99 -0.33,6.59 -3.04,8.52 -1.9,1.34 -4.31,-0.02 -5.37,-1.76 -2.5,-3.57 -1.5,-8.15 -1.03,-12.16 z"
       id="path20" />
    <path
       fill="#000000"
       opacity="1"
       d="m 154.38,119.38 c 1.45,-4.64 3.05,-9.29 5.58,-13.47 l 0.84,1.26 c -1.68,4.88 -3.38,9.77 -4.47,14.82 -0.44,3.03 -0.19,6.6 2.01,8.93 2.5,1.55 5.11,-0.62 7.59,-1.13 -0.52,2.96 -1.33,6.34 -4.33,7.74 -3.51,1.88 -7.32,-1.26 -8.42,-4.55 -1.15,-4.52 -0.08,-9.22 1.2,-13.6 z"
       id="path22" />
    <path
       fill="#000000"
       opacity="1"
       d="m 61.32,107.96 c 0.43,0.04 1.29,0.12 1.73,0.16 -1.23,4.9 -2.62,9.86 -2.03,14.97 -0.11,1.61 1.29,2.7 2.01,3.99 0.65,-0.04 1.95,-0.12 2.6,-0.16 1.04,-0.87 2.06,-1.8 3.37,-2.26 -0.42,2.42 -0.64,5.08 -2.27,7.05 -1.13,1.01 -2.52,1.68 -3.8,2.47 -2.2,-1.45 -4.28,-3.38 -4.72,-6.1 -1.03,-6.85 1.34,-13.59 3.11,-20.12 z"
       id="path24" />
    <path
       fill="#000000"
       opacity="1"
       d="m 216.59,112.52 c 0.42,-0.99 1.15,-1.69 2.19,-2.09 -1.45,6.17 -4.35,12.21 -3.73,18.68 -0.21,2.09 2.22,3.17 3.98,2.82 1.46,-0.92 2.7,-2.14 4.06,-3.19 0.33,3.54 -1.22,7.16 -4.18,9.18 -1.52,0.49 -3.13,0.21 -4.69,0.25 -1.51,-2.08 -2.58,-4.55 -2.29,-7.18 0.42,-6.37 2.18,-12.61 4.66,-18.47 z"
       id="path26" />
    <path
       fill="#000000"
       opacity="1"
       d="m 128.37,114.63 c 3.84,4.09 7.91,7.97 11.61,12.19 -3.36,3.92 -6.49,8.03 -9.97,11.85 -3.53,-3.76 -7.35,-7.24 -10.7,-11.17 3.15,-4.2 5.94,-8.65 9.06,-12.87 z"
       id="path28" />
    <path
       fill="#000000"
       opacity="1"
       d="m 260.23,135.17 c 3.96,-1.35 7.64,-3.36 11.54,-4.88 0.16,0.28 0.5,0.85 0.66,1.14 -0.46,3.45 -3.72,5.16 -6.46,6.64 -3.59,2.13 -7.73,2.97 -11.6,4.43 -9.99,3.83 -20.13,7.35 -29.78,12.01 -3.93,1.77 -8.1,3.38 -11.11,6.6 1.34,0.75 2.69,1.49 4.06,2.17 1.24,0.72 3.31,0.64 3.86,2.19 -0.07,2 -1,3.77 -2.16,5.33 -2.45,-0.73 -5.35,-0.96 -7.07,-3.09 -2.09,-2.07 -1.06,-5.27 -0.21,-7.67 1.17,-3.75 4.37,-6.46 7.73,-8.26 13.15,-6.38 26.76,-11.74 40.54,-16.61 z"
       id="path30" />
    <path
       fill="#000000"
       opacity="1"
       d="m 77.44,135.53 c 2.78,-1.38 7.02,-0.07 7.15,3.43 -0.36,2.53 -1.69,4.76 -2.79,7.02 -1.16,2.13 -2.17,4.46 -4.1,6.02 -2.5,0.5 -3.2,-3.59 -5.73,-2.95 -2.5,0.63 -4.88,1.64 -7.32,2.47 1.82,4.25 5.5,7.72 10.07,8.79 4.59,1.74 9.51,0.14 14.23,0.71 l 0.72,1.09 c -0.52,2.38 -2.21,4.24 -3.41,6.29 -1.48,2.18 -2.64,4.63 -4.55,6.48 -9.5,1.64 -19.3,3.42 -27.74,8.35 -0.11,-0.49 -0.32,-1.48 -0.43,-1.97 1.33,-4.59 4.97,-8.41 5.59,-13.19 -1.32,-3.71 -4.33,-7 -4.08,-11.15 1,-4.63 4.01,-8.47 6.68,-12.27 3.66,-5.17 10.1,-6.94 15.71,-9.12 z"
       id="path32" />
    <path
       fill="#000000"
       opacity="1"
       d="m 268.8,147.89 c 0.48,-1.15 1.43,-2 2.27,-2.88 -2.07,7.91 -5.82,15.73 -5.02,24.12 0.23,1.77 1.73,2.96 2.83,4.24 1.66,-0.95 3.2,-2.09 4.64,-3.33 0.77,3.81 -1.61,8.11 -5.53,8.97 -3.29,-0.31 -5.11,-3.99 -5.03,-6.98 0.1,-8.35 2.4,-16.56 5.84,-24.14 z"
       id="path34" />
    <path
       fill="#000000"
       opacity="1"
       d="m 157.06,187.32 c 3.25,-2.99 6.23,-6.26 9.39,-9.34 2.84,2.67 5.6,5.43 8.57,7.95 0.82,0.88 2.13,1.56 2.27,2.89 -3.14,4.09 -7.12,7.46 -10.31,11.52 -2.51,-2.55 -5.08,-5.06 -7.46,-7.74 -0.87,-0.66 -1.75,-1.31 -2.64,-1.93 -0.03,-1.12 0.03,-2.24 0.18,-3.35 z"
       id="path36" />
    <path
       fill="#000000"
       opacity="1"
       d="m 134.01,190.5 c 3.52,-3.84 6.34,-8.35 10.25,-11.8 3.8,2.69 6.69,6.64 10.83,8.79 0,1.05 -0.02,2.11 -0.07,3.17 -3.15,2.69 -5.15,6.41 -8.11,9.28 l -0.93,0.12 c -3.98,-3.2 -7.95,-6.42 -11.97,-9.56 z"
       id="path38" />
    <path
       fill="#000000"
       opacity="1"
       d="m 249.52,189.44 c 0.91,-3.98 1.43,-8.15 3.48,-11.75 3.22,2.38 5.22,6.3 5.12,10.32 -0.02,6.93 -1.37,13.83 -3.7,20.35 -1.34,3.92 -5.25,6.99 -9.47,6.81 -6.33,0.64 -12.81,-3.34 -15.2,-9.21 -2.78,4.9 -6.19,10.11 -11.73,12.12 -3.99,1.78 -8.58,0.99 -12.44,-0.74 -3.15,-1.12 -6.11,-3.37 -7.3,-6.58 -0.62,-2.4 -0.43,-4.9 -0.53,-7.35 -10.37,5.19 -19.7,12.34 -30.44,16.82 -9.09,3.1 -18.66,5.28 -28.31,4.83 -7.77,0.45 -15.31,-4.49 -18.54,-11.48 -4.15,-8.59 -3.95,-18.53 -3.03,-27.81 0.76,4.28 0.82,8.9 3.29,12.65 4.31,7.4 13.17,10.48 21.25,11.38 14.28,-0.45 28.13,-5.25 40.6,-12.06 5.41,-2.91 10.53,-6.34 15.98,-9.17 1.51,-0.86 4.46,-1.26 4.91,0.95 0.05,2.69 -1.09,5.45 -0.15,8.07 2.07,2.36 5.02,4.27 8.28,4.14 l -0.15,0.92 c 5.46,0.92 11.01,-1.28 14.54,-5.49 3.29,-4.27 5.6,-9.22 9.07,-13.35 0.54,-0.03 1.6,-0.09 2.14,-0.13 0.66,4.04 -1.33,7.95 -1.14,12 2.92,2.09 6.28,3.84 9.97,3.83 2.19,0.11 4.14,-1.09 6.11,-1.89 -0.86,-2.73 -3.52,-5.14 -2.61,-8.18 z"
       id="path40" />
    <path
       fill="#000000"
       opacity="1"
       d="m 95.27,187.19 c 1.67,-2.56 4.83,-1.08 6.96,-0.07 -0.07,2.22 -0.26,4.48 -1.45,6.42 -1.38,-0.7 -2.71,-1.78 -4.37,-1.57 -2.29,2.59 -2.16,6.33 -2.69,9.56 -0.59,3.46 -0.33,6.99 -0.75,10.47 -0.33,0.35 -0.99,1.06 -1.32,1.41 -1.64,-3.41 -2.56,-7.22 -4.85,-10.28 -2.31,-2.95 -6.34,-3 -9.74,-3.37 -0.23,-3.37 -0.17,-6.81 1.18,-9.97 3.64,0.12 6.34,2.8 8.66,5.31 2.14,2.34 3.46,5.26 4.92,8.04 0.75,-5.37 1.09,-10.99 3.45,-15.95 z"
       id="path42" />
    <path
       fill="#000000"
       opacity="1"
       d="m 106.57,213.52 c 0.75,-1.76 1.18,-4.11 3.29,-4.7 -0.92,5.55 -3.85,10.95 -2.69,16.7 1.35,3.15 4.75,0.76 7.01,0.23 -0.26,2.46 -0.74,5.07 -2.48,6.96 -1.14,1.19 -2.89,1.2 -4.39,1.52 -1.72,-1.82 -3.66,-3.72 -3.82,-6.38 -0.29,-4.94 1.47,-9.73 3.08,-14.33 z"
       id="path44" />
    <path
       fill="#000000"
       opacity="1"
       d="m 186.96,217.07 c 0.65,-1.53 1.72,-2.84 3.25,-3.54 -0.87,4.46 -3.52,8.81 -2.14,13.47 0.41,0.48 1.22,1.44 1.63,1.92 1.47,-0.77 2.96,-1.53 4.46,-2.25 0.41,3.85 -2.5,7.46 -6.22,8.2 -1.98,-0.58 -3.2,-2.43 -3.81,-4.29 -0.83,-4.69 0.95,-9.3 2.83,-13.51 z"
       id="path46" />
    <path
       fill="#000000"
       opacity="1"
       d="m 228.91,223.08 c 1.13,1.37 2.57,3.04 1.97,4.98 -0.55,2.74 -1.46,5.52 -3.2,7.75 -2.43,1.81 -5.2,-0.41 -7.67,-0.99 -1.68,2.34 -2.78,6 -6.03,6.48 -3.8,0 -5.31,-4.34 -8.79,-5.2 -5.06,2.36 -9.07,6.34 -13.74,9.31 -7.55,3.96 -16,6.33 -24.56,6.34 -1.11,0.45 -3.33,-1.57 -1.15,-1.97 1.6,-0.94 3.49,-1.21 5.24,-1.79 5.78,-1.56 11.18,-4.22 16.82,-6.21 7.18,-2.5 12.29,-8.61 19.23,-11.58 2.65,0.77 4.47,2.86 6.51,4.56 1.16,0.54 2.98,0.57 3.7,-0.74 1.89,-2.74 3.4,-5.74 5.5,-8.35 0.54,1.28 0.29,3.08 1.64,3.87 0.56,0.18 1.69,0.53 2.26,0.7 0.34,-2.5 1.18,-4.89 2.27,-7.16 z"
       id="path48" />
    <path
       fill="#000000"
       opacity="1"
       d="m 137.97,246.7 c -0.71,-5.82 0.09,-12.63 4.97,-16.52 -1,3.75 -2.64,7.49 -1.87,11.46 0.93,1.97 3.51,1.71 4.81,0.24 0.26,0.29 0.78,0.87 1.04,1.16 -0.85,2.34 -2.3,4.43 -4.18,6.06 -0.56,-0.03 -1.67,-0.11 -2.23,-0.15 -0.85,-0.76 -1.7,-1.5 -2.54,-2.25 z"
       id="path50" />
  </g>
  <g
     aria-label="SINAI WILAYAH"
     id="text2152"
     style="font-weight:300;font-size:28px;line-height:1.25;font-family:'Gotham Rounded';-inkscape-font-specification:'Gotham Rounded, Light';stroke:#000000;stroke-width:0.25"
     transform="translate(-53.54,-30.44)">
    <path
       d="m 62.627754,308.96713 c 3.78,0 6.496,-2.184 6.496,-5.348 v -0.056 c 0,-2.856 -1.904,-4.48 -6.44,-5.404 -4.648,-0.952 -5.712,-2.212 -5.712,-4.284 v -0.056 c 0,-2.044 1.904,-3.696 4.788,-3.696 1.988,0 3.696,0.532 5.404,1.848 0.14,0.112 0.308,0.168 0.476,0.168 0.392,0 0.728,-0.336 0.728,-0.728 0,-0.28 -0.168,-0.476 -0.308,-0.588 -1.792,-1.344 -3.612,-2.016 -6.244,-2.016 -3.64,0 -6.3,2.24 -6.3,5.152 v 0.056 c 0,2.968 1.904,4.564 6.608,5.516 4.452,0.896 5.544,2.1 5.544,4.172 v 0.056 c 0,2.24 -2.016,3.892 -4.956,3.892 -2.688,0 -4.648,-0.784 -6.608,-2.548 -0.112,-0.084 -0.28,-0.168 -0.476,-0.168 -0.392,0 -0.728,0.336 -0.728,0.728 0,0.252 0.14,0.448 0.28,0.56 2.212,1.82 4.508,2.744 7.448,2.744 z"
       style="-inkscape-font-specification:'Gotham Rounded Light';stroke-width:0.95;stroke-miterlimit:4;stroke-dasharray:none"
       id="path9178" />
    <path
       d="m 74.107737,308.07113 c 0,0.392 0.336,0.728 0.728,0.728 0.392,0 0.728,-0.336 0.728,-0.728 v -18.368 c 0,-0.392 -0.336,-0.728 -0.728,-0.728 -0.392,0 -0.728,0.336 -0.728,0.728 z"
       style="-inkscape-font-specification:'Gotham Rounded Light';stroke-width:0.95;stroke-miterlimit:4;stroke-dasharray:none"
       id="path9180" />
    <path
       d="m 81.583688,308.09913 c 0,0.392 0.308,0.7 0.7,0.7 0.392,0 0.7,-0.308 0.7,-0.7 v -16.884 l 13.468,17.08 c 0.224,0.28 0.448,0.476 0.728,0.476 h 0.112 c 0.336,0 0.588,-0.28 0.588,-0.616 v -18.48 c 0,-0.392 -0.308,-0.7 -0.7,-0.7 -0.392,0 -0.7,0.308 -0.7,0.7 v 16.52 l -13.216,-16.772 c -0.196,-0.252 -0.42,-0.42 -0.728,-0.42 h -0.224 c -0.392,0 -0.728,0.336 -0.728,0.728 z"
       style="-inkscape-font-specification:'Gotham Rounded Light';stroke-width:0.95;stroke-miterlimit:4;stroke-dasharray:none"
       id="path9182" />
    <path
       d="m 102.35966,308.18313 c 0,0.336 0.308,0.616 0.672,0.616 0.336,0 0.56,-0.196 0.7,-0.532 l 2.296,-5.068 h 11.564 l 2.296,5.04 c 0.14,0.308 0.392,0.56 0.728,0.56 0.392,0 0.7,-0.308 0.7,-0.672 0,-0.14 -0.028,-0.28 -0.112,-0.448 l -8.344,-18.088 c -0.196,-0.42 -0.476,-0.7 -0.98,-0.7 h -0.056 c -0.504,0 -0.784,0.28 -0.98,0.7 l -8.372,18.144 c -0.084,0.168 -0.112,0.336 -0.112,0.448 z m 4.284,-6.3 5.18,-11.34 5.152,11.34 z"
       style="-inkscape-font-specification:'Gotham Rounded Light';stroke-width:0.95;stroke-miterlimit:4;stroke-dasharray:none"
       id="path9184" />
    <path
       d="m 126.01963,308.07113 c 0,0.392 0.336,0.728 0.728,0.728 0.392,0 0.728,-0.336 0.728,-0.728 v -18.368 c 0,-0.392 -0.336,-0.728 -0.728,-0.728 -0.392,0 -0.728,0.336 -0.728,0.728 z"
       style="-inkscape-font-specification:'Gotham Rounded Light';stroke-width:0.95;stroke-miterlimit:4;stroke-dasharray:none"
       id="path9186" />
    <path
       d="m 147.29956,308.26713 c 0.14,0.392 0.364,0.644 0.756,0.644 h 0.056 c 0.392,0 0.644,-0.28 0.756,-0.644 l 5.544,-16.464 5.544,16.464 c 0.112,0.364 0.364,0.644 0.756,0.644 h 0.056 c 0.392,0 0.616,-0.28 0.756,-0.644 l 6.552,-18.172 c 0.056,-0.14 0.112,-0.28 0.112,-0.392 0,-0.364 -0.364,-0.728 -0.728,-0.728 -0.336,0 -0.56,0.224 -0.7,0.588 l -5.992,16.968 -5.572,-16.996 c -0.112,-0.308 -0.336,-0.56 -0.7,-0.56 h -0.056 c -0.392,0 -0.588,0.252 -0.7,0.56 l -5.572,16.996 -5.964,-16.884 c -0.112,-0.336 -0.392,-0.672 -0.784,-0.672 -0.392,0 -0.756,0.364 -0.756,0.756 0,0.112 0.028,0.224 0.084,0.364 z"
       style="-inkscape-font-specification:'Gotham Rounded Light'"
       id="path9188" />
    <path
       d="m 172.94754,308.07113 c 0,0.392 0.336,0.728 0.728,0.728 0.392,0 0.728,-0.336 0.728,-0.728 v -18.368 c 0,-0.392 -0.336,-0.728 -0.728,-0.728 -0.392,0 -0.728,0.336 -0.728,0.728 z"
       style="-inkscape-font-specification:'Gotham Rounded Light'"
       id="path9190" />
    <path
       d="m 180.42349,307.95913 c 0,0.392 0.336,0.728 0.728,0.728 h 11.676 c 0.364,0 0.672,-0.308 0.672,-0.672 0,-0.364 -0.308,-0.672 -0.672,-0.672 h -10.948 v -17.64 c 0,-0.392 -0.336,-0.728 -0.728,-0.728 -0.392,0 -0.728,0.336 -0.728,0.728 z"
       style="-inkscape-font-specification:'Gotham Rounded Light'"
       id="path9192" />
    <path
       d="m 196.41149,308.18313 c 0,0.336 0.308,0.616 0.672,0.616 0.336,0 0.56,-0.196 0.7,-0.532 l 2.296,-5.068 h 11.564 l 2.296,5.04 c 0.14,0.308 0.392,0.56 0.728,0.56 0.392,0 0.7,-0.308 0.7,-0.672 0,-0.14 -0.028,-0.28 -0.112,-0.448 l -8.344,-18.088 c -0.196,-0.42 -0.476,-0.7 -0.98,-0.7 h -0.056 c -0.504,0 -0.784,0.28 -0.98,0.7 l -8.372,18.144 c -0.084,0.168 -0.112,0.336 -0.112,0.448 z m 4.284,-6.3 5.18,-11.34 5.152,11.34 z"
       style="-inkscape-font-specification:'Gotham Rounded Light'"
       id="path9194" />
    <path
       d="m 223.17943,308.07113 c 0,0.392 0.336,0.728 0.728,0.728 0.392,0 0.728,-0.336 0.728,-0.728 v -7.168 l 7.588,-10.668 c 0.112,-0.168 0.224,-0.364 0.224,-0.56 0,-0.364 -0.364,-0.7 -0.728,-0.7 -0.308,0 -0.476,0.196 -0.644,0.42 l -7.14,10.22 -7.112,-10.22 c -0.168,-0.252 -0.364,-0.42 -0.672,-0.42 -0.392,0 -0.756,0.336 -0.756,0.728 0,0.14 0.056,0.308 0.14,0.448 l 7.644,10.78 z"
       style="-inkscape-font-specification:'Gotham Rounded Light'"
       id="path9196" />
    <path
       d="m 232.41941,308.18313 c 0,0.336 0.308,0.616 0.672,0.616 0.336,0 0.56,-0.196 0.7,-0.532 l 2.296,-5.068 h 11.564 l 2.296,5.04 c 0.14,0.308 0.392,0.56 0.728,0.56 0.392,0 0.7,-0.308 0.7,-0.672 0,-0.14 -0.028,-0.28 -0.112,-0.448 l -8.344,-18.088 c -0.196,-0.42 -0.476,-0.7 -0.98,-0.7 h -0.056 c -0.504,0 -0.784,0.28 -0.98,0.7 l -8.372,18.144 c -0.084,0.168 -0.112,0.336 -0.112,0.448 z m 4.284,-6.3 5.18,-11.34 5.152,11.34 z"
       style="-inkscape-font-specification:'Gotham Rounded Light'"
       id="path9198" />
    <path
       d="m 255.88339,308.07113 c 0,0.392 0.336,0.728 0.728,0.728 0.392,0 0.728,-0.336 0.728,-0.728 v -8.568 h 12.544 v 8.568 c 0,0.392 0.336,0.728 0.728,0.728 0.392,0 0.728,-0.336 0.728,-0.728 v -18.368 c 0,-0.392 -0.336,-0.728 -0.728,-0.728 -0.392,0 -0.728,0.336 -0.728,0.728 v 8.456 h -12.544 v -8.456 c 0,-0.392 -0.336,-0.728 -0.728,-0.728 -0.392,0 -0.728,0.336 -0.728,0.728 z"
       style="-inkscape-font-specification:'Gotham Rounded Light'"
       id="path9200" />
  </g>
</svg>
