<?xml version="1.0" encoding="UTF-8"?>
<svg xmlns="http://www.w3.org/2000/svg" width="900" height="600">
<rect width="900" height="600" fill="#da251d"/>
<path fill="#fff" d="M 292.94798,282.00867 L 341.27169,323.35045 L 377.14837,275.11837 L 613.64168,463.45317 L 640,429.00168 L 397.64934,242.96365 L 432.06167,202.38745 L 362.50483,197.02833 L 292.94798,282.00867 z"/>
<path fill="#fff" d="M 260,444.31345 L 311.98459,369.28577 C 311.98459,369.28577 412.03218,441.10058 502.3507,398.37814 C 559.47738,371.3561 559.86033,286.07585 531.32961,234.7877 C 502.56705,183.08277 439.38345,132.71889 439.38345,132.71889 C 526.09217,160.30789 589.21053,239.00687 591.01289,300.38279 C 598.32527,482.83616 436.89603,471.6823 325.89596,417.51785 L 291.48363,467.28111 L 260,444.31345 z"/> 
</svg>
