<?xml version="1.0" encoding="UTF-8" standalone="no"?>
<!-- Created with Inkscape (http://www.inkscape.org/) -->

<svg
   id="svg2"
   height="1049.9944"
   width="1500"
   y="0.00000000"
   x="0.00000000"
   version="1.0"
   inkscape:version="1.1.2 (b8e25be833, 2022-02-05)"
   sodipodi:docname="ft.svg"
   xmlns:inkscape="http://www.inkscape.org/namespaces/inkscape"
   xmlns:sodipodi="http://sodipodi.sourceforge.net/DTD/sodipodi-0.dtd"
   xmlns="http://www.w3.org/2000/svg"
   xmlns:svg="http://www.w3.org/2000/svg"
   xmlns:rdf="http://www.w3.org/1999/02/22-rdf-syntax-ns#"
   xmlns:cc="http://creativecommons.org/ns#"
   xmlns:dc="http://purl.org/dc/elements/1.1/">
  <title
     id="title8154">MILF Flag</title>
  <metadata
     id="metadata13">
    <rdf:RDF>
      <cc:Work
         rdf:about="">
        <dc:format>image/svg+xml</dc:format>
        <dc:type
           rdf:resource="http://purl.org/dc/dcmitype/StillImage" />
        <dc:title>MILF Flag</dc:title>
      </cc:Work>
    </rdf:RDF>
  </metadata>
  <sodipodi:namedview
     pagecolor="#ffffff"
     bordercolor="#666666"
     borderopacity="1"
     objecttolerance="10"
     gridtolerance="10"
     guidetolerance="10"
     inkscape:pageopacity="0"
     inkscape:pageshadow="2"
     inkscape:window-width="1920"
     inkscape:window-height="1009"
     id="namedview11"
     showgrid="false"
     inkscape:zoom="0.5"
     inkscape:cx="1377"
     inkscape:cy="264"
     inkscape:window-x="-8"
     inkscape:window-y="-8"
     inkscape:window-maximized="1"
     inkscape:current-layer="svg2"
     fit-margin-top="0"
     fit-margin-left="0"
     fit-margin-right="0"
     fit-margin-bottom="0"
     inkscape:pagecheckerboard="0"
     showguides="false" />
  <defs
     id="defs3">
    <clipPath
       id="Clip0">
      <path
         inkscape:connector-curvature="0"
         d="m 0,0 449.104,0 0,506.999 L 0,506.999 0,0 z"
         transform="translate(-0.0520002,0)"
         id="path6071" />
    </clipPath>
    <clipPath
       id="Clip1">
      <path
         inkscape:connector-curvature="0"
         d="m 0,0 449.104,0 0,506.999 L 0,506.999 0,0 z"
         transform="translate(-0.0520002,0)"
         id="path6074" />
    </clipPath>
    <clipPath
       id="Clip2">
      <path
         inkscape:connector-curvature="0"
         d="m 0,0 449.104,0 0,506.999 L 0,506.999 0,0 z"
         transform="translate(-0.0520002,0)"
         id="path6077" />
    </clipPath>
    <clipPath
       id="Clip3">
      <path
         inkscape:connector-curvature="0"
         d="m 0,0 449.104,0 0,506.999 L 0,506.999 0,0 z"
         transform="translate(-0.0520002,0)"
         id="path6080" />
    </clipPath>
    <clipPath
       id="Clip4">
      <path
         inkscape:connector-curvature="0"
         d="m 0,0 375.752,0 0,121.393 L 0,121.393 0,0 z"
         transform="translate(36.6242,16.5161)"
         id="path6083" />
    </clipPath>
    <clipPath
       id="Clip5">
      <path
         inkscape:connector-curvature="0"
         d="m 0,0 360.456,0 0,411.566 L 0,411.566 0,0 z"
         transform="translate(44.2732,73.2731)"
         id="path6086" />
    </clipPath>
    <clipPath
       id="Clip6">
      <path
         inkscape:connector-curvature="0"
         d="m 0,0 151.719,0 0,42.3673 L 0,42.3673 0,0 z"
         transform="translate(148.64,423.044)"
         id="path6089" />
    </clipPath>
    <clipPath
       id="Clip7">
      <path
         inkscape:connector-curvature="0"
         d="m 0,0 151.719,0 0,21.7837 L 0,21.7837 0,0 z"
         transform="translate(148.64,423.044)"
         id="path6092" />
    </clipPath>
    <clipPath
       id="Clip8">
      <path
         inkscape:connector-curvature="0"
         d="m 0,0 106.883,0 0,17.6682 L 0,17.6682 0,0 z"
         transform="translate(171.305,447.743)"
         id="path6095" />
    </clipPath>
    <clipPath
       id="Clip9">
      <path
         inkscape:connector-curvature="0"
         d="m 0,0 21.8321,0 0,38.7308 L 0,38.7308 0,0 z"
         transform="translate(213.585,83.8204)"
         id="path6098" />
    </clipPath>
    <clipPath
       id="Clip10">
      <path
         inkscape:connector-curvature="0"
         d="m 0,0 21.8321,0 0,38.7308 L 0,38.7308 0,0 z"
         transform="translate(213.585,83.8204)"
         id="path6101" />
    </clipPath>
    <clipPath
       id="Clip11">
      <path
         inkscape:connector-curvature="0"
         d="m 0,0 347.946,0 0,283.328 L 0,283.328 0,0 z"
         transform="translate(51.5802,141.46)"
         id="path6104" />
    </clipPath>
    <clipPath
       id="Clip12">
      <path
         inkscape:connector-curvature="0"
         d="m 0,0 172.369,0 0,281.852 L 0,281.852 0,0 z"
         transform="translate(227.157,141.46)"
         id="path6107" />
    </clipPath>
    <clipPath
       id="Clip13">
      <path
         inkscape:connector-curvature="0"
         d="m 0,0 118.825,0 0,241.064 L 0,241.064 0,0 z"
         transform="translate(280.701,141.46)"
         id="path6110" />
    </clipPath>
    <clipPath
       id="Clip14">
      <path
         inkscape:connector-curvature="0"
         d="m 0,0 167.123,0 0,280.261 L 0,280.261 0,0 z"
         transform="translate(227.157,143.051)"
         id="path6113" />
    </clipPath>
    <clipPath
       id="Clip15">
      <path
         inkscape:connector-curvature="0"
         d="m 0,0 84.8794,0 0,269.523 L 0,269.523 0,0 z"
         transform="translate(307.307,148.911)"
         id="path6116" />
    </clipPath>
    <clipPath
       id="Clip16">
      <path
         inkscape:connector-curvature="0"
         d="m 0,0 172.318,0 0,276.427 L 0,276.427 0,0 z"
         transform="translate(51.5802,148.36)"
         id="path6119" />
    </clipPath>
    <clipPath
       id="Clip17">
      <path
         inkscape:connector-curvature="0"
         d="m 0,0 120.379,0 0,276.427 L 0,276.427 0,0 z"
         transform="translate(51.5802,148.36)"
         id="path6122" />
    </clipPath>
    <clipPath
       id="Clip18">
      <path
         inkscape:connector-curvature="0"
         d="m 0,0 37.5702,0 0,62.8958 L 0,62.8958 0,0 z"
         transform="translate(134.389,361.892)"
         id="path6125" />
    </clipPath>
    <clipPath
       id="Clip19">
      <path
         inkscape:connector-curvature="0"
         d="m 0,0 49.6282,0 0,57.2181 L 0,57.2181 0,0 z"
         transform="translate(109.587,366.577)"
         id="path6128" />
    </clipPath>
    <clipPath
       id="Clip20">
      <path
         inkscape:connector-curvature="0"
         d="m 0,0 11.5451,0 0,22.7558 L 0,22.7558 0,0 z"
         transform="translate(134.866,372.046)"
         id="path6131" />
    </clipPath>
    <clipPath
       id="Clip21">
      <path
         inkscape:connector-curvature="0"
         d="m 0,0 19.4461,0 0,22.1798 L 0,22.1798 0,0 z"
         transform="translate(129.036,149.684)"
         id="path6134" />
    </clipPath>
    <clipPath
       id="Clip22">
      <path
         inkscape:connector-curvature="0"
         d="m 0,0 19.7111,0 0,30.5528 L 0,30.5528 0,0 z"
         transform="translate(111.084,148.36)"
         id="path6137" />
    </clipPath>
    <clipPath
       id="Clip23">
      <path
         inkscape:connector-curvature="0"
         d="m 0,0 28.9001,0 0,21.1546 L 0,21.1546 0,0 z"
         transform="translate(116.628,166.639)"
         id="path6140" />
    </clipPath>
    <clipPath
       id="Clip24">
      <path
         inkscape:connector-curvature="0"
         d="m 0,0 18.6971,0 0,20.8866 L 0,20.8866 0,0 z"
         transform="translate(112.373,165.069)"
         id="path6143" />
    </clipPath>
    <clipPath
       id="Clip25">
      <path
         inkscape:connector-curvature="0"
         d="m 0,0 36.9502,0 0,19.4414 L 0,19.4414 0,0 z"
         transform="translate(101.252,185.009)"
         id="path6146" />
    </clipPath>
    <clipPath
       id="Clip26">
      <path
         inkscape:connector-curvature="0"
         d="m 0,0 16.0371,0 0,34.5973 L 0,34.5973 0,0 z"
         transform="translate(99.4234,159.118)"
         id="path6149" />
    </clipPath>
    <clipPath
       id="Clip27">
      <path
         inkscape:connector-curvature="0"
         d="m 0,0 14.3841,0 0,40.137 L 0,40.137 0,0 z"
         transform="translate(89.6594,164.067)"
         id="path6152" />
    </clipPath>
    <clipPath
       id="Clip28">
      <path
         inkscape:connector-curvature="0"
         d="m 0,0 13.3701,0 0,20.5826 L 0,20.5826 0,0 z"
         transform="translate(102.697,179.471)"
         id="path6155" />
    </clipPath>
    <clipPath
       id="Clip29">
      <path
         inkscape:connector-curvature="0"
         d="m 0,0 34.3972,0 0,18.7843 L 0,18.7843 0,0 z"
         transform="translate(90.6494,202.397)"
         id="path6158" />
    </clipPath>
    <clipPath
       id="Clip30">
      <path
         inkscape:connector-curvature="0"
         d="m 0,0 15.1691,0 0,39.1509 L 0,39.1509 0,0 z"
         transform="translate(79.0674,182.529)"
         id="path6161" />
    </clipPath>
    <clipPath
       id="Clip31">
      <path
         inkscape:connector-curvature="0"
         d="m 0,0 32.3481,0 0,19.7415 L 0,19.7415 0,0 z"
         transform="translate(82.4984,219.183)"
         id="path6164" />
    </clipPath>
    <clipPath
       id="Clip32">
      <path
         inkscape:connector-curvature="0"
         d="m 0,0 14.7801,0 0,25.8042 L 0,25.8042 0,0 z"
         transform="translate(90.3934,190.405)"
         id="path6167" />
    </clipPath>
    <clipPath
       id="Clip33">
      <path
         inkscape:connector-curvature="0"
         d="m 0,0 11.4971,0 0,27.9285 L 0,27.9285 0,0 z"
         transform="translate(83.4524,204.965)"
         id="path6170" />
    </clipPath>
    <clipPath
       id="Clip34">
      <path
         inkscape:connector-curvature="0"
         d="m 0,0 12.6361,0 0,37.5517 L 0,37.5517 0,0 z"
         transform="translate(71.2333,203.674)"
         id="path6173" />
    </clipPath>
    <clipPath
       id="Clip35">
      <path
         inkscape:connector-curvature="0"
         d="m 0,0 29.1311,0 0,25.5062 L 0,25.5062 0,0 z"
         transform="translate(76.6023,235.064)"
         id="path6176" />
    </clipPath>
    <clipPath
       id="Clip36">
      <path
         inkscape:connector-curvature="0"
         d="m 0,0 13.2191,0 0,26.8333 L 0,26.8333 0,0 z"
         transform="translate(76.7963,222.724)"
         id="path6179" />
    </clipPath>
    <clipPath
       id="Clip37">
      <path
         inkscape:connector-curvature="0"
         d="m 0,0 12.6951,0 0,25.9312 L 0,25.9312 0,0 z"
         transform="translate(71.5883,238.412)"
         id="path6182" />
    </clipPath>
    <clipPath
       id="Clip38">
      <path
         inkscape:connector-curvature="0"
         d="m 0,0 13.3921,0 0,47.7839 L 0,47.7839 0,0 z"
         transform="translate(64.9613,214.848)"
         id="path6185" />
    </clipPath>
    <clipPath
       id="Clip39">
      <path
         inkscape:connector-curvature="0"
         d="m 0,0 24.0211,0 0,29.4717 L 0,29.4717 0,0 z"
         transform="translate(74.3013,250.359)"
         id="path6188" />
    </clipPath>
    <clipPath
       id="Clip40">
      <path
         inkscape:connector-curvature="0"
         d="m 0,0 16.6391,0 0,44.9266 L 0,44.9266 0,0 z"
         transform="translate(56.6113,233.681)"
         id="path6191" />
    </clipPath>
    <clipPath
       id="Clip41">
      <path
         inkscape:connector-curvature="0"
         d="m 0,0 11.8501,0 0,34.1222 L 0,34.1222 0,0 z"
         transform="translate(67.4573,251.454)"
         id="path6194" />
    </clipPath>
    <clipPath
       id="Clip42">
      <path
         inkscape:connector-curvature="0"
         d="m 0,0 18.4251,0 0,36.5415 L 0,36.5415 0,0 z"
         transform="translate(51.8012,258.963)"
         id="path6197" />
    </clipPath>
    <clipPath
       id="Clip43">
      <path
         inkscape:connector-curvature="0"
         d="m 0,0 26.0881,0 0,31.3009 L 0,31.3009 0,0 z"
         transform="translate(69.6383,270.047)"
         id="path6200" />
    </clipPath>
    <clipPath
       id="Clip44">
      <path
         inkscape:connector-curvature="0"
         d="m 0,0 16.1711,0 0,32.306 L 0,32.306 0,0 z"
         transform="translate(66.1983,271.509)"
         id="path6203" />
    </clipPath>
    <clipPath
       id="Clip45">
      <path
         inkscape:connector-curvature="0"
         d="m 0,0 26.5611,0 0,33.3721 L 0,33.3721 0,0 z"
         transform="translate(71.3903,283.166)"
         id="path6206" />
    </clipPath>
    <clipPath
       id="Clip46">
      <path
         inkscape:connector-curvature="0"
         d="m 0,0 20.6411,0 0,35.2394 L 0,35.2394 0,0 z"
         transform="translate(51.5802,277.992)"
         id="path6209" />
    </clipPath>
    <clipPath
       id="Clip47">
      <path
         inkscape:connector-curvature="0"
         d="m 0,0 12.5761,0 0,31.1329 L 0,31.1329 0,0 z"
         transform="translate(65.7213,290.717)"
         id="path6212" />
    </clipPath>
    <clipPath
       id="Clip48">
      <path
         inkscape:connector-curvature="0"
         d="m 0,0 23.3801,0 0,34.2233 L 0,34.2233 0,0 z"
         transform="translate(73.5903,299.882)"
         id="path6215" />
    </clipPath>
    <clipPath
       id="Clip49">
      <path
         inkscape:connector-curvature="0"
         d="m 0,0 24.7921,0 0,31.0439 L 0,31.0439 0,0 z"
         transform="translate(53.1512,300.189)"
         id="path6218" />
    </clipPath>
    <clipPath
       id="Clip50">
      <path
         inkscape:connector-curvature="0"
         d="m 0,0 14.3671,0 0,30.5618 L 0,30.5618 0,0 z"
         transform="translate(66.9443,304.834)"
         id="path6221" />
    </clipPath>
    <clipPath
       id="Clip51">
      <path
         inkscape:connector-curvature="0"
         d="m 0,0 23.8721,0 0,35.0694 L 0,35.0694 0,0 z"
         transform="translate(76.8613,312.724)"
         id="path6224" />
    </clipPath>
    <clipPath
       id="Clip52">
      <path
         inkscape:connector-curvature="0"
         d="m 0,0 29.1471,0 0,32.6061 L 0,32.6061 0,0 z"
         transform="translate(52.7052,316.906)"
         id="path6227" />
    </clipPath>
    <clipPath
       id="Clip53">
      <path
         inkscape:connector-curvature="0"
         d="m 0,0 22.2611,0 0,30.5358 L 0,30.5358 0,0 z"
         transform="translate(68.9163,325.453)"
         id="path6230" />
    </clipPath>
    <clipPath
       id="Clip54">
      <path
         inkscape:connector-curvature="0"
         d="m 0,0 20.4371,0 0,39.4379 L 0,39.4379 0,0 z"
         transform="translate(82.6054,322.868)"
         id="path6233" />
    </clipPath>
    <clipPath
       id="Clip55">
      <path
         inkscape:connector-curvature="0"
         d="m 0,0 32.8791,0 0,26.0342 L 0,26.0342 0,0 z"
         transform="translate(58.4433,339.599)"
         id="path6236" />
    </clipPath>
    <clipPath
       id="Clip56">
      <path
         inkscape:connector-curvature="0"
         d="m 0,0 38.4052,0 0,16.6651 L 0,16.6651 0,0 z"
         transform="translate(62.6203,358.07)"
         id="path6239" />
    </clipPath>
    <clipPath
       id="Clip57">
      <path
         inkscape:connector-curvature="0"
         d="m 0,0 37.4492,0 0,16.6321 L 0,16.6321 0,0 z"
         transform="translate(70.1933,367.248)"
         id="path6242" />
    </clipPath>
    <clipPath
       id="Clip58">
      <path
         inkscape:connector-curvature="0"
         d="m 0,0 11.5211,0 0,39.0509 L 0,39.0509 0,0 z"
         transform="translate(107.637,343.156)"
         id="path6245" />
    </clipPath>
    <clipPath
       id="Clip59">
      <path
         inkscape:connector-curvature="0"
         d="m 0,0 28.5901,0 0,12.2335 L 0,12.2335 0,0 z"
         transform="translate(85.6644,379.619)"
         id="path6248" />
    </clipPath>
    <clipPath
       id="Clip60">
      <path
         inkscape:connector-curvature="0"
         d="m 0,0 28.6571,0 0,63.4669 L 0,63.4669 0,0 z"
         transform="translate(111.048,329.33)"
         id="path6251" />
    </clipPath>
    <clipPath
       id="Clip61">
      <path
         inkscape:connector-curvature="0"
         d="m 0,0 68.7583,0 0,27.9685 L 0,27.9685 0,0 z"
         transform="translate(63.3293,383.573)"
         id="path6254" />
    </clipPath>
    <clipPath
       id="Clip62">
      <path
         inkscape:connector-curvature="0"
         d="m 0,0 67.9933,0 0,20.1695 L 0,20.1695 0,0 z"
         transform="translate(65.8903,394.288)"
         id="path6257" />
    </clipPath>
    <clipPath
       id="Clip63">
      <path
         inkscape:connector-curvature="0"
         d="m 0,0 26.3211,0 0,26.5853 L 0,26.5853 0,0 z"
         transform="translate(77.2423,345.262)"
         id="path6260" />
    </clipPath>
    <clipPath
       id="Clip64">
      <path
         inkscape:connector-curvature="0"
         d="m 0,0 14.2551,0 0,37.3336 L 0,37.3336 0,0 z"
         transform="translate(94.5774,336.909)"
         id="path6263" />
    </clipPath>
    <clipPath
       id="Clip65">
      <path
         inkscape:connector-curvature="0"
         d="m 0,0 125.11,0 0,28.7746 L 0,28.7746 0,0 z"
         transform="translate(98.7884,368.766)"
         id="path6266" />
    </clipPath>
    <clipPath
       id="Clip66">
      <path
         inkscape:connector-curvature="0"
         d="m 0,0 68.2533,0 0,61.6847 L 0,61.6847 0,0 z"
         transform="translate(189.884,361.401)"
         id="path6269" />
    </clipPath>
    <clipPath
       id="Clip67">
      <path
         inkscape:connector-curvature="0"
         d="m 0,0 68.2533,0 0,61.6847 L 0,61.6847 0,0 z"
         transform="translate(189.884,361.401)"
         id="path6272" />
    </clipPath>
    <clipPath
       id="Clip68">
      <path
         inkscape:connector-curvature="0"
         d="m 0,0 32.6251,0 0,28.7046 L 0,28.7046 0,0 z"
         transform="translate(190.346,394.381)"
         id="path6275" />
    </clipPath>
    <clipPath
       id="Clip69">
      <path
         inkscape:connector-curvature="0"
         d="m 0,0 32.6251,0 0,28.7046 L 0,28.7046 0,0 z"
         transform="translate(190.346,394.381)"
         id="path6278" />
    </clipPath>
    <clipPath
       id="Clip70">
      <path
         inkscape:connector-curvature="0"
         d="m 0,0 68.2533,0 0,61.6847 L 0,61.6847 0,0 z"
         transform="translate(189.884,361.401)"
         id="path6281" />
    </clipPath>
    <clipPath
       id="Clip71">
      <path
         inkscape:connector-curvature="0"
         d="m 0,0 33.8122,0 0,34.9513 L 0,34.9513 0,0 z"
         transform="translate(224.325,361.401)"
         id="path6284" />
    </clipPath>
    <clipPath
       id="Clip72">
      <path
         inkscape:connector-curvature="0"
         d="m 0,0 33.8122,0 0,34.9523 L 0,34.9523 0,0 z"
         transform="translate(189.884,361.401)"
         id="path6287" />
    </clipPath>
    <clipPath
       id="Clip73">
      <path
         inkscape:connector-curvature="0"
         d="m 0,0 32.6241,0 0,28.7046 L 0,28.7046 0,0 z"
         transform="translate(225.454,394.381)"
         id="path6290" />
    </clipPath>
    <clipPath
       id="Clip74">
      <path
         inkscape:connector-curvature="0"
         d="m 0,0 21.5711,0 0,22.2418 L 0,22.2418 0,0 z"
         transform="translate(213.428,382.386)"
         id="path6293" />
    </clipPath>
    <clipPath
       id="Clip75">
      <path
         inkscape:connector-curvature="0"
         d="m 0,0 126.457,0 0,237.208 L 0,237.208 0,0 z"
         transform="translate(161.272,121.045)"
         id="path6296" />
    </clipPath>
    <clipPath
       id="Clip76">
      <path
         inkscape:connector-curvature="0"
         d="m 0,0 76.8453,0 0,26.6153 L 0,26.6153 0,0 z"
         transform="translate(185.669,313.723)"
         id="path6299" />
    </clipPath>
    <clipPath
       id="Clip77">
      <path
         inkscape:connector-curvature="0"
         d="m 0,0 9.78404,0 0,14.5528 L 0,14.5528 0,0 z"
         transform="translate(219.301,325.389)"
         id="path6302" />
    </clipPath>
    <clipPath
       id="Clip78">
      <path
         inkscape:connector-curvature="0"
         d="m 0,0 126.457,0 0,20.8366 L 0,20.8366 0,0 z"
         transform="translate(161.272,337.417)"
         id="path6305" />
    </clipPath>
    <clipPath
       id="Clip79">
      <path
         inkscape:connector-curvature="0"
         d="m 0,0 126.457,0 0,16.4 L 0,16.4 0,0 z"
         transform="translate(161.272,327.906)"
         id="path6308" />
    </clipPath>
    <clipPath
       id="Clip80">
      <path
         inkscape:connector-curvature="0"
         d="m 0,0 36.5612,0 0,181.497 L 0,181.497 0,0 z"
         transform="translate(206.494,121.045)"
         id="path6311" />
    </clipPath>
    <clipPath
       id="Clip81">
      <path
         inkscape:connector-curvature="0"
         d="m 0,0 106.548,0 0,14.1768 L 0,14.1768 0,0 z"
         transform="translate(170.386,300.942)"
         id="path6314" />
    </clipPath>
    <clipPath
       id="Clip82">
      <path
         inkscape:connector-curvature="0"
         d="m 0,0 341.914,0 0,26.5323 L 0,26.5323 0,0 z"
         transform="translate(53.5432,29.5247)"
         id="path6317" />
    </clipPath>
    <clipPath
       id="Clip83">
      <path
         inkscape:connector-curvature="0"
         d="m 0,0 147.119,0 0,26.5323 L 0,26.5323 0,0 z"
         transform="translate(53.5432,29.5247)"
         id="path6320" />
    </clipPath>
    <clipPath
       id="Clip84">
      <path
         inkscape:connector-curvature="0"
         d="m 0,0 153.063,0 0,26.1072 L 0,26.1072 0,0 z"
         transform="translate(242.394,29.5247)"
         id="path6323" />
    </clipPath>
    <clipPath
       id="Clip85">
      <path
         inkscape:connector-curvature="0"
         d="m 0,0 449.104,0 0,506.999 L 0,506.999 0,0 z"
         transform="translate(-0.0520002,0)"
         id="path6326" />
    </clipPath>
    <radialGradient
       id="SVGID_1_"
       cx="183.35249"
       cy="278.8306"
       r="166.2702"
       gradientUnits="userSpaceOnUse">
      <stop
         offset="0.3152"
         style="stop-color:#FFFFFF"
         id="stop4410" />
      <stop
         offset="1"
         style="stop-color:#71CFEB"
         id="stop4412" />
    </radialGradient>
  </defs>
  <g
     id="g3419"
     transform="matrix(-1,0,0,1,1500,-0.00551344)">
    <g
       id="g4014"
       style="fill:#007a3d;fill-opacity:1">
      <g
         id="g3914"
         transform="translate(0,-24)"
         style="fill:#007a3d;fill-opacity:1" />
    </g>
    <g
       id="g3197"
       transform="matrix(-1,0,0,1,1500,0)">
      <g
         style="fill:#007a3d;fill-opacity:1;stroke:none"
         transform="matrix(0.71715729,0,0,1.0499944,424.26407,0.00551344)"
         id="layer1">
        <rect
           width="1500"
           height="1000"
           x="0"
           y="0"
           style="fill:#007a3d;fill-opacity:1;stroke:none"
           id="rect3635" />
      </g>
      <g
         id="g3958"
         transform="matrix(1,0,0,0.99747034,0,2.6561392)">
        <rect
           y="-2.6569433"
           x="4.749265e-009"
           height="1052.6569"
           width="411"
           id="rect3910-1"
           style="fill:#ffffff;fill-rule:evenodd;stroke:none" />
        <rect
           y="-2.6569433"
           x="340"
           height="1052.6569"
           width="90.603027"
           id="rect3910"
           style="fill:#ce1126;fill-opacity:1;fill-rule:evenodd;stroke:none" />
      </g>
      <g
         id="g3190">
        <circle
           transform="matrix(0.64695006,0.78847331,-0.74236932,0.68712816,136.54546,20.911553)"
           d="M 538.75,311.25 C 538.75,387.87951 476.62951,450 400,450 323.37049,450 261.25,387.87951 261.25,311.25 261.25,234.62049 323.37049,172.5 400,172.5 c 76.62951,0 138.75,62.12049 138.75,138.75 z"
           style="fill:#ffcc00"
           sodipodi:ry="138.75"
           sodipodi:rx="138.75"
           sodipodi:cy="311.25"
           sodipodi:cx="400"
           r="138.75"
           cy="311.25"
           cx="400"
           id="Gold_circle" />
        <circle
           transform="matrix(0.74656845,0.89256681,-0.85430968,0.77564775,113.16363,-37.999353)"
           d="m 497.5,264 c 0,53.84776 -43.65224,97.5 -97.5,97.5 -53.84776,0 -97.5,-43.65224 -97.5,-97.5 0,-53.84776 43.65224,-97.5 97.5,-97.5 53.84776,0 97.5,43.65224 97.5,97.5 z"
           sodipodi:ry="97.5"
           sodipodi:rx="97.5"
           sodipodi:cy="264"
           sodipodi:cx="400"
           r="97.5"
           cy="264"
           cx="400"
           id="Blue_circle"
           style="fill:#ffffff" />
        <path
           transform="matrix(0.35564385,0.58634861,-0.56678156,0.33463295,150.9658,90.062161)"
           inkscape:transform-center-y="5.2354914"
           inkscape:transform-center-x="-0.21895788"
           d="m 605.28343,174.60181 -63.65757,-16.09086 -33.496,56.47318 -4.36796,-65.51429 -64.06002,-14.40542 60.95803,-24.3992 -6.09527,-65.37622 42.04209,50.434756 60.29293,-25.999305 -34.97458,55.569599 z"
           inkscape:randomized="0"
           inkscape:rounded="0"
           inkscape:flatsided="false"
           sodipodi:arg2="1.1768679"
           sodipodi:arg1="0.5485494"
           sodipodi:r2="33.114483"
           sodipodi:r1="89.498604"
           sodipodi:cy="127.93276"
           sodipodi:cx="528.91589"
           sodipodi:sides="5"
           id="path3952"
           style="fill:#ffcc00;fill-rule:evenodd;stroke:none"
           sodipodi:type="star" />
      </g>
      <g
         id="g3186">
        <path
           style="fill:#ffffff;fill-rule:evenodd;stroke:none"
           d="m 800.34375,646.21875 c -4.4017,-0.11004 -10.86164,2.95695 -20.34375,9.0625 l -15.03125,9.6875 L 644.375,665.5 c -66.3371,0.30214 -133.87399,1.75017 -150.0625,3.21875 -21.017,1.90663 -41.1912,0.92302 -70.5625,-3.46875 -39.0249,-5.83523 -44.3667,-5.84309 -104.0625,0.0937 -51.6895,5.14049 -67.37775,5.50536 -87.90625,2.03125 -22.1592,-3.75013 -30.17665,-3.22237 -70.84375,4.5625 -25.2235,4.82854 -54.8033,9.77166 -65.75,11 -23.81,2.67174 -25.6931,9.39027 -5.3125,19 34.0604,16.0599 42.78725,16.5221 333.03125,17.375 151.79455,0.44607 289.69015,1.89054 306.40625,3.21875 28.9333,2.29938 31.0362,3.16385 44,18.03125 17.6006,20.18492 27.9843,20.35403 30.125,0.46875 l 1.625,-15.15625 50.40625,-2.34375 c 43.8968,-2.04924 52.2117,-1.50423 64.25,4.1875 23.9704,11.33345 33.1071,10.43124 37,-3.625 1.9018,-6.86671 6.1218,-16.90945 9.375,-22.3125 11.0172,-18.29855 -11.7799,-36.45069 -35.1875,-28.03125 -6.0714,2.18387 -31.22485,2.60834 -65.21875,1.09375 L 810.375,672.375 808.71875,659 c -1.03934,-8.4408 -3.38641,-12.65653 -8.375,-12.78125 z"
           id="rect3378"
           transform="matrix(-1,0,0,1,1500,0)"
           inkscape:connector-curvature="0" />
      </g>
    </g>
  </g>
  <path
     style="fill:#ffffff;stroke-width:0.52477;fill-opacity:1"
     d="m 963.76124,641.73135 c -0.3301,-3.15726 -1.2261,-8.76883 -1.9911,-12.47017 -2.2866,-11.0634 -1.3768,-16.29508 3.2875,-18.90581 1.0967,-0.61379 2.8794,-1.28048 3.9617,-1.48153 2.3063,-0.4284 2.4767,-0.89801 0.6313,-1.73882 -2.1115,-0.96208 -2.9401,-0.74274 -5.1333,1.35888 l -2.0536,1.96788 0.3698,-2.07467 c 0.2034,-1.14106 0.8192,-2.9556 1.3685,-4.03229 2.5991,-5.09463 6.8999,-4.76571 12.2381,0.93595 2.2992,2.45575 2.6628,3.62782 1.9482,6.28128 l -0.5488,2.03835 -4.6069,0.0165 c -5.1902,0.0186 -7.8598,0.96174 -9.5868,3.38703 -1.0205,1.43321 -1.0195,1.45719 0.3487,8.20043 1.0517,5.18313 1.3851,8.44199 1.4274,13.95022 0.072,9.31238 -0.8125,10.67883 -1.6607,2.56679 z m -370.0975,-13.82097 c -1.0984,-4.2302 -2.6733,-8.01102 -4.4809,-10.75778 -2.0014,-3.04114 -1.9436,-3.00347 -3.3046,-2.1535 -1.9366,1.20939 -6.8941,-1.28033 -6.8941,-3.46226 0,-1.97111 1.645,-5.00859 2.8805,-5.31867 3.9554,-0.99275 10.1,5.84801 12.6441,14.07669 0.512,1.65608 1.0129,2.92911 1.113,2.82896 0.1002,-0.10015 0.531,-2.39971 0.9573,-5.11014 1.8948,-12.04457 3.5746,-15.48308 7.0285,-14.38686 0.5547,0.17608 1.8401,1.24048 2.8564,2.36531 l 1.8476,2.04516 -0.8374,2.1318 -0.8374,2.1318 -1.7216,-1.31313 c -4.0107,-3.0591 -5.7188,-0.9382 -6.7614,8.39511 -0.5182,4.63981 -1.7974,9.87324 -2.5265,10.33652 -1.1147,0.70835 -1.3711,0.47208 -1.9635,-1.80901 z m 654.05146,-0.40027 c -4.5078,-0.99762 -9.5644,-5.64901 -12.2187,-11.23953 -2.2672,-4.77548 -3.2064,-8.85594 -3.5111,-15.25466 -0.2869,-6.02318 0.1811,-9.74362 1.2711,-10.10698 0.4733,-0.15776 0.6425,1.06512 0.6483,4.68436 0.016,10.19771 3.4477,17.84931 9.1711,20.44942 3.7975,1.72516 7.2845,1.01275 10.9846,-2.24423 3.7009,-3.2577 6.0226,-7.06817 12.8136,-21.03091 7.3056,-15.02063 9.9424,-19.29691 15.0556,-24.41701 5.9084,-5.91639 10.5734,-7.33363 15.2051,-4.61932 2.6288,1.54063 3.7422,2.97302 8.1634,10.50276 2.1434,3.65029 4.6255,7.01181 6.7895,9.19482 4.5253,4.56506 7.1145,5.53093 14.6936,5.48131 6.3368,-0.0415 10.9691,-1.06044 16.6614,-3.66494 l 3.8046,-1.74078 V 581.24 c 0,-1.24543 -0.5919,-10.29339 -1.3129,-20.10659 -0.7211,-9.8132 -2.2604,-31.03358 -3.4207,-47.1564 l -2.1097,-29.31423 -5.6296,-7.02537 -5.6297,-7.02537 -2.0991,2.24165 c -4.9653,5.30259 -26.4259,28.55395 -28.392,30.76121 l -2.1535,2.41766 0.9452,11.80732 c 1.2678,15.83568 1.2691,25.66679 0.01,31.74859 -2.1562,10.36814 -3.8402,13.57561 -4.1112,7.83053 -0.4254,-9.01537 -2.9177,-42.63596 -3.2198,-43.43507 -0.2992,-0.79112 -2.4367,1.23862 -11.6055,11.02017 -6.1812,6.59444 -12.6166,13.45394 -14.3008,15.24335 l -3.0621,3.25347 2.4359,3.30616 c 4.7705,6.47518 6.5346,11.39169 6.57,18.3113 0.039,7.63504 -2.4232,14.83932 -6.5967,19.30109 -2.9123,3.1135 -8.5708,6.06409 -13.7228,7.15562 -4.7984,1.01661 -6.8355,0.96039 -9.5311,-0.26301 -1.8723,-0.84976 -2.4813,-1.52308 -3.6123,-3.99344 -1.2781,-2.79158 -1.3432,-3.32431 -1.0769,-8.80582 0.4727,-9.73136 4.0146,-19.24748 10.7549,-28.89524 l 2.9126,-4.16904 -2.576,-2.32958 c -1.4167,-1.28127 -7.5992,-7.17325 -13.7387,-13.0933 -6.1395,-5.92004 -11.3212,-10.60511 -11.5151,-10.41125 -0.1939,0.19385 0.4488,10.79567 1.4283,23.55958 2.1705,28.28611 2.4908,38.52095 1.3885,44.36548 -1.2819,6.79682 -3.0334,12.75438 -3.686,12.53741 -0.3801,-0.12639 -0.804,-3.56645 -1.183,-9.59959 -0.3248,-5.17145 -1.7236,-24.98829 -3.1084,-44.03744 l -2.5177,-34.63482 -6.0811,-6.29724 c -8.8415,-9.15578 -13.49,-14.60944 -21.2148,-24.88936 -4.6578,-6.19846 -7.8358,-9.89404 -9.8607,-11.46645 l -2.9877,-2.3202 0.2931,-6.90049 c 0.1612,-3.79528 0.3636,-6.98338 0.4497,-7.08469 0.5613,-0.65993 25.4146,19.83697 25.4146,20.95978 0,0.64263 -2.4285,0.59887 -4.9034,-0.0883 -1.1093,-0.30806 -2.1448,-0.43238 -2.3009,-0.27627 -0.4364,0.43646 6.7617,8.79123 13.611,15.79816 l 6.1556,6.29724 0.014,-1.83669 c 0.01,-1.01019 -0.8069,-12.44525 -1.8096,-25.41125 -1.6664,-21.54873 -1.9385,-23.87647 -3.1656,-27.08792 l -1.3426,-3.51337 2.5444,-6.20195 c 1.3994,-3.41108 2.7974,-6.28633 3.1068,-6.38945 0.5798,-0.19327 3.9608,8.49198 7.6003,19.52406 2.5725,7.79795 3.5778,12.02562 3.0591,12.86495 -0.3933,0.63632 -0.9065,0.17145 -4.9181,-4.45475 l -1.3652,-1.57431 0.2394,1.57431 c 0.1317,0.86587 0.9792,12.43705 1.8834,25.71373 l 1.6441,24.13942 8.472,8.12129 c 4.6596,4.46671 12.7659,12.31858 18.0142,17.4486 5.2482,5.13002 9.735,9.30187 9.9706,9.27076 0.2356,-0.0311 2.0814,-1.86357 4.1018,-4.07215 2.0204,-2.20859 9.4142,-10.11604 16.4307,-17.57211 l 12.7573,-13.5565 -0.2984,-2.70618 c -0.1671,-1.4884 -1.0219,-12.27011 -1.9025,-23.95936 -2.2327,-29.63968 -2.8069,-34.93686 -4.1145,-37.95814 -0.6037,-1.39489 -1.0976,-2.954 -1.0976,-3.46468 0,-1.01582 4.5173,-12.09435 5.2224,-12.8079 0.9467,-0.95798 11.0455,28.2721 11.0455,31.97023 0,1.81615 -1.141,1.14122 -3.7184,-2.19963 -1.2112,-1.57004 -2.2675,-2.78942 -2.3472,-2.70975 -0.1015,0.10152 3.225,45.74179 3.4231,46.96416 0.028,0.17277 12.9936,-13.69214 21.3944,-22.87824 l 7.3794,-8.06927 -3.5592,-5.31236 c -1.9576,-2.92181 -4.6249,-7.4377 -5.9275,-10.03531 -1.3024,-2.59761 -2.9827,-5.29542 -3.7339,-5.99513 -1.3334,-1.24208 -1.3658,-1.43088 -1.3658,-7.97178 0,-3.68476 0.21,-6.82934 0.4667,-6.98797 0.7239,-0.44742 22.0984,20.63278 22.0984,21.79418 0,1.2488 -0.3873,1.24472 -3.7676,-0.0397 -1.5012,-0.5704 -2.8275,-0.93906 -2.9473,-0.81925 -0.1729,0.17296 3.4708,5.3136 5.1476,7.26221 0.199,0.23132 1.8333,-1.23918 3.6318,-3.26776 l 3.27,-3.68833 -1.4626,-4.12908 -1.4625,-4.12909 2.5999,-6.17575 c 1.4299,-3.39666 2.8155,-6.20789 3.0791,-6.24717 0.2636,-0.0393 1.4262,2.47868 2.5837,5.59547 l 2.1046,5.66688 1.1869,-1.46872 c 0.6529,-0.8078 2.6603,-3.94826 4.4609,-6.97881 5.1725,-8.7056 4.8894,-8.30999 5.0706,-7.08439 0.462,3.12468 -4.196,16.47141 -7.2408,20.74756 l -1.0754,1.51024 1.8564,6.12381 c 2.9344,9.67958 2.4939,11.01799 -1.8342,5.5734 -1.215,-1.52838 -2.2599,-2.70911 -2.322,-2.62385 -0.062,0.0853 0.1899,3.8153 0.5599,8.28897 0.37,4.47366 0.6856,8.85136 0.7013,9.7282 0.023,1.3078 2.5981,4.61438 14.3285,18.40121 7.865,9.2438 16.3862,19.34951 18.936,22.45712 2.5498,3.10762 4.7061,5.57174 4.7917,5.47584 0.1746,-0.19555 -3.4659,-49.79124 -4.6818,-63.78223 -0.6238,-7.17726 -1.0548,-9.69576 -2.099,-12.26549 l -1.3139,-3.23371 2.6705,-6.49503 c 1.4687,-3.5723 2.8569,-6.49506 3.0847,-6.49506 0.5248,0 6.3023,15.62736 8.6908,23.50724 2.9661,9.78546 2.5532,11.72784 -1.4014,6.59139 -1.8007,-2.33877 -2.3412,-2.77356 -2.4594,-1.97822 -0.083,0.56067 1.0467,17.48555 2.5112,37.61085 l 2.6627,36.59145 4.3773,6.51351 c 6.5963,9.81551 10.8525,19.10339 12.6331,27.56829 0.9786,4.65192 1.6268,15.52691 0.9504,15.94494 -0.2877,0.17783 -1.2535,-1.92571 -2.1938,-4.77836 -2.1715,-6.58798 -6.4713,-15.27937 -10.8287,-21.88868 l -3.4598,-5.2477 0.3455,5.18022 c 0.19,2.84912 0.5161,7.76596 0.7247,10.92631 0.5136,7.78233 -0.1095,15.43745 -1.82,22.36153 -0.7838,3.17255 -1.6045,6.05869 -1.8239,6.41364 -0.8868,1.43493 -1.566,-0.228 -1.5721,-3.84942 -0.01,-2.07549 -0.8132,-14.47328 -1.7991,-27.55065 l -1.7926,-23.77703 -1.9834,-2.46147 c -9.8563,-12.23222 -35.5399,-41.77603 -35.7554,-41.12942 -0.096,0.28687 0.8913,14.53588 2.1931,31.66447 1.3019,17.1286 2.5205,34.33088 2.7082,38.2273 0.6199,12.87309 -1.3063,23.97054 -5.1602,29.72971 -2.0848,3.11541 -5.6124,5.30769 -11.8089,7.33884 -4.1259,1.35242 -5.2881,1.50204 -11.6668,1.50204 -6.526,0 -7.3119,-0.10698 -9.9706,-1.35725 -4.7722,-2.24411 -7.3003,-5.21106 -15.2184,-17.86005 -2.5572,-4.08517 -5.4035,-6.54359 -8.1786,-7.0642 -2.5609,-0.48044 -6.1474,1.4327 -10.0044,5.33668 -4.1751,4.22594 -6.7942,8.70365 -11.2421,19.21963 -4.8705,11.51539 -8.4516,18.612 -10.7424,21.2883 -3.3036,3.85954 -7.7129,5.69457 -11.6105,4.832 z m 4.2864,-50.5598 c 3.1493,-0.84126 6.2098,-2.35056 10.6595,-5.25687 3.2292,-2.10916 3.3043,-2.21002 2.9779,-4.00041 -0.1841,-1.01018 -1.1557,-3.31378 -2.1592,-5.11911 -1.9618,-3.52981 -7.852,-11.14876 -8.6191,-11.14876 -0.6323,0 -6.9431,7.41373 -9.5105,11.17263 -3.906,5.71907 -5.6464,11.1808 -4.2296,13.27402 1.2583,1.85909 6.1454,2.34348 10.881,1.0785 z m 86.4052,-116.43966 c -0.327,-0.32703 -0.8224,-0.0273 -1.3922,0.84235 -0.8472,1.293 -0.8327,1.42282 0.3447,3.07353 l 1.2293,1.72351 0.1629,-2.56587 c 0.09,-1.41122 -0.066,-2.79431 -0.3447,-3.07352 z m -180.9927,165.24141 c -0.8782,-1.00025 -1.9131,-2.72443 -2.2997,-3.83152 -1.4285,-4.0906 -0.558,-13.82022 1.2364,-13.82022 0.2845,0 0.395,0.31868 0.2455,0.70818 -0.5532,1.44165 0.8287,5.69796 2.606,8.02628 l 1.8276,2.39425 -0.6426,3.75031 c -0.3534,2.06267 -0.8077,3.93954 -1.0095,4.17083 -0.2018,0.23128 -1.0854,-0.39786 -1.9637,-1.39811 z m 25.3002,-0.72791 c 0.1989,-1.08234 0.5204,-2.1058 0.7144,-2.27435 0.194,-0.16856 10.389,-3.86993 22.6555,-8.22528 12.2665,-4.35535 22.7523,-8.09403 23.3018,-8.30819 0.9116,-0.35526 0.973,-0.19403 0.7001,1.84019 -0.1645,1.22625 -0.4017,2.3322 -0.5271,2.45766 -0.4015,0.40142 -45.7489,16.46986 -46.4919,16.47394 -0.5402,0.003 -0.6262,-0.47583 -0.3528,-1.96397 z m -417.14826,0.95841 c 0.2742,-0.2666 2.9361,-1.45222 5.9153,-2.63474 13.8418,-5.49409 17.5635,-7.927 27.345,-17.87575 8.9411,-9.09391 10.1171,-9.74063 14.3799,-7.90795 4.9416,2.12448 8.3651,0.86797 11.01,-4.04094 1.6612,-3.08326 2.4593,-3.47312 2.4593,-1.20132 0,1.7503 1.0034,2.27328 4.275,2.22813 2.8451,-0.0392 3.1673,-0.38263 2.221,-2.36689 -0.7231,-1.51647 -0.7279,-1.91272 -0.043,-3.52233 l 0.7723,-1.81363 0.8516,1.96037 c 0.8231,1.89497 0.6994,3.83517 -0.4975,7.79942 -0.578,1.91426 -5.5235,2.73142 -7.7403,1.27894 -1.1188,-0.73311 -1.228,-0.66648 -2.3649,1.44312 -2.2194,4.11827 -5.7515,5.42777 -10.3834,3.84953 -5.4418,-1.85422 -7.8375,-0.7447 -15.6912,7.26712 -6.2301,6.35549 -8.3692,7.99243 -14.4173,11.03283 -5.3722,2.70056 -19.9768,6.33642 -18.0922,4.50409 z m -67.3657,-3.21425 c -2.5508,-2.37641 -3.4678,-5.14556 -3.4673,-10.46983 3e-4,-3.15633 0.2686,-5.56289 0.7313,-6.55963 l 0.7309,-1.57431 0.1973,1.31193 c 0.436,2.89742 1.9116,6.48536 3.3332,8.10443 l 1.5026,1.7114 -0.7004,4.02743 c -0.3851,2.21508 -0.8095,4.13659 -0.9429,4.27001 -0.1334,0.13343 -0.7565,-0.23622 -1.3847,-0.82143 z m 662.14256,-0.20838 c 0.3464,-0.41729 4.803,-3.16373 9.9038,-6.10318 5.1007,-2.93946 11.2808,-6.66607 13.7337,-8.28137 13.2725,-8.74046 27.7008,-23.03826 32.1739,-31.88289 1.917,-3.7905 2.1156,-6.58568 1.1889,-16.73339 -0.4481,-4.9066 -2.1184,-24.15254 -3.7119,-42.76876 -5.1418,-60.07153 -5.5581,-64.11705 -7.075,-68.74937 l -1.1155,-3.4065 2.5207,-6.07816 c 1.3863,-3.34298 2.7472,-6.17674 3.0241,-6.29723 1.069,-0.46509 10.2019,25.80208 10.5977,30.47996 l 0.2442,2.88623 -2.9394,-3.14862 -2.9393,-3.14862 0.3065,2.62385 c 1.0453,8.94789 6.6687,73.6671 7.1359,82.1265 0.6109,11.06074 0.3385,19.10252 -0.8948,26.42297 -2.2111,13.12426 -8.2733,24.78718 -17.7883,34.22225 -3.4324,3.40356 -5.2376,4.71145 -9.2178,6.67825 -6.3847,3.155 -12.6508,5.47121 -24.448,9.03696 -10.1828,3.07775 -11.7514,3.38872 -10.6994,2.12112 z M 1021.18,620.1144 c -29.92566,-9.18376 -41.09166,-19.46468 -47.24936,-43.50431 l -1.7581,-6.8636 -0.9026,2.75949 c -1.5395,4.70702 -5.2643,9.77819 -12.2726,16.7089 -7.6518,7.56715 -13.1885,12.13068 -21.3442,17.59284 -9.3198,6.24168 -15.5811,8.63938 -22.5611,8.63938 -9.0126,0 -13.7443,-5.64521 -14.2951,-17.05503 -0.1393,-2.88623 0.01,-6.88928 0.3154,-8.89565 0.3128,-2.00638 0.5179,-3.69213 0.4558,-3.74612 -0.062,-0.054 -2.9466,1.78423 -6.4101,4.08492 -16.1335,10.71701 -31.7263,19.15344 -38.0659,20.59535 -10.2053,2.32114 -41.3463,4.51027 -40.816,2.86926 0.1313,-0.40643 2.2297,-1.41833 4.6631,-2.24866 16.9652,-5.78891 34.7842,-13.12219 45.558,-18.74906 8.3638,-4.36817 22.9467,-13.07838 31.76,-18.96991 15.8214,-10.57635 30.2237,-22.73173 30.2237,-25.50857 0,-0.30429 -1.1964,-3.1016 -2.6586,-6.21623 -4.8668,-10.36657 -6.3629,-14.31657 -8.347,-22.03815 -0.3118,-1.21353 -1.1505,-2.89984 -1.8636,-3.74737 l -1.2966,-1.54096 1.4174,-6.88727 c 0.7797,-3.788 1.5907,-6.82462 1.8023,-6.74803 0.5136,0.18588 12.8054,16.02819 13.6268,17.56287 0.9344,1.74584 0.2217,2.0601 -2.4371,1.07468 -1.2885,-0.47754 -2.3427,-0.67748 -2.3427,-0.4443 0,0.23318 1.3113,3.52887 2.9141,7.32373 4.5795,10.84322 5.4135,17.0162 3.3835,25.04743 -1.8552,7.34002 -4.2201,11.3502 -10.1891,17.27749 -2.9106,2.89027 -8.0077,7.34623 -11.3268,9.90213 -3.3192,2.5559 -6.2227,5.14076 -6.4523,5.74414 -0.2296,0.60337 -0.4175,3.27921 -0.4175,5.94631 0,5.73387 0.9469,8.12533 4.0749,10.29167 5.0689,3.51053 11.6789,3.10865 20.4981,-1.24628 12.973,-6.40612 31.8823,-22.20338 39.7131,-33.17741 l 2.4482,-3.43073 -1.0995,-4.36536 c -3.8582,-15.31824 -7.9847,-27.19282 -14.9178,-42.92744 l -4.0428,-9.17497 1.6924,-5.92957 c 0.9618,-3.37002 1.9354,-5.84853 2.2555,-5.74182 1.4877,0.49587 7.1442,12.34968 11.0704,23.19931 3.7335,10.31689 6.4677,20.66673 11.021,41.71921 1.6533,7.64372 4.8846,17.64296 7.1849,22.23347 3.6908,7.36554 9.2028,13.39652 15.1315,16.55652 1.66886,0.88952 3.17836,1.6173 3.35446,1.6173 0.1761,0 0.3201,-0.78874 0.3201,-1.75275 0,-2.55795 1.8301,-9.29724 3.3224,-12.23453 3.0986,-6.09919 8.5993,-9.38241 26.1959,-15.63542 2.2368,-0.79486 4.0667,-1.48029 4.0663,-1.52316 -3e-4,-0.0429 -12.4284,-0.12803 -27.6179,-0.18923 -15.18946,-0.0612 -27.72456,-0.21854 -27.85566,-0.34963 -0.6074,-0.6074 1.6688,-9.38358 3.3194,-12.79869 3.1394,-6.49524 11.7143,-14.35583 26.17876,-23.99824 4.0407,-2.69365 9.6498,-6.1196 12.4647,-7.61322 l 5.1179,-2.71567 -1.3516,-2.18275 c -2.1689,-3.50259 -2.9969,-5.67585 -3.2524,-8.53692 -0.4658,-5.21527 2.3678,-11.09332 6.3372,-13.14595 5.5212,-2.85512 17.4744,1.69553 25.4208,9.67787 2.222,2.23201 3.8046,4.26555 3.8046,4.88859 0,0.92771 -2.5933,11.45122 -2.9412,11.93511 -0.071,0.0987 -2.2129,0.641 -4.76,1.20513 -2.547,0.56414 -6.9333,1.7333 -9.7474,2.59814 l -5.1165,1.57245 v 3.45272 c 0,3.91413 -0.6544,3.96114 -2.3641,0.16981 -1.1354,-2.51787 -0.9112,-2.55126 -8.6561,1.2892 -9.7697,4.84453 -20.721,11.99002 -29.12466,19.00325 l -3.6734,3.0656 12.06966,0.32929 c 12.3708,0.33751 51.342,-0.2756 68.2201,-1.07326 5.1952,-0.24553 9.5342,-0.36577 9.6421,-0.2672 0.2155,0.19684 -3.4389,10.67723 -4.0282,11.55211 -0.2014,0.29906 -1.191,0.77372 -2.1991,1.05479 -1.6842,0.46963 -1.8685,0.72228 -2.2733,3.11637 -0.7723,4.56768 -0.6971,20.6539 0.1115,23.85849 1.8585,7.36516 5.5892,11.80732 9.9162,11.80732 2.1021,0 2.5435,-0.23592 4.5138,-2.41215 2.8209,-3.11582 4.2577,-7.30611 7.7198,-22.51442 3.0131,-13.23573 4.9134,-19.36425 7.8452,-25.30156 4.8357,-9.79245 9.4623,-13.73608 11.8464,-10.09751 1.2574,1.91908 0.6979,11.53382 -1.3882,23.85413 -2.946,17.39903 -2.159,25.99128 2.8531,31.14827 1.6399,1.68739 3.0907,2.5992 5.0714,3.18741 5.5017,1.63384 13.9118,0.71125 18.5894,-2.03928 4.3794,-2.57519 8.317,-7.62927 10.272,-13.18466 2.8776,-8.17689 1.3191,-26.07341 -3.551,-40.77506 l -1.8742,-5.65782 2.2996,-6.40697 c 1.2647,-3.52383 2.5356,-6.37016 2.8242,-6.32516 0.741,0.11552 6.2502,17.22909 7.5726,23.52302 0.6063,2.88623 1.6971,9.26219 2.424,14.16879 2.6213,17.69539 4.7209,24.25676 9.1063,28.45872 3.8285,3.66841 6.2946,4.6031 12.1209,4.59401 4.4097,-0.007 5.3024,-0.17396 7.7309,-1.44717 1.5101,-0.79167 3.1383,-2.03865 3.6182,-2.77106 1.1274,-1.7207 0.7821,-2.90463 -4.3069,-14.76436 -5.1425,-11.98475 -7.7961,-20.87454 -9.4339,-31.60518 -0.1944,-1.27419 -1.0453,-3.85837 -1.8907,-5.74261 l -1.5371,-3.42589 2.4537,-6.98307 c 1.3496,-3.84069 2.6589,-6.98307 2.9098,-6.98307 0.2508,0 0.456,0.19934 0.456,0.44297 0,0.24363 2.2686,4.08101 5.0413,8.52751 8.7017,13.95443 9.0737,15.16583 3.9246,12.78022 -1.5517,-0.71888 -2.9105,-1.21774 -3.0196,-1.10858 -0.1092,0.10916 1.8001,6.19497 4.2429,13.52402 5.7932,17.38162 6.6258,20.63291 6.974,27.23515 0.7729,14.65659 -6.5074,26.00693 -17.4027,27.13143 -10.9141,1.12644 -20.4951,-7.20018 -24.195,-21.02735 l -1.1428,-4.27058 -0.6143,2.36146 c -1.7842,6.85748 -5.6539,15.18425 -8.7229,18.76976 -4.4861,5.24098 -11.2911,8.11647 -19.4083,8.20109 -4.9372,0.0515 -5.4702,-0.0501 -8.7623,-1.66998 -6.0086,-2.95646 -9.2826,-7.63189 -11.5087,-16.43449 -1.542,-6.09802 -1.16,-16.17075 1.0828,-28.54525 1.8451,-10.18043 1.8555,-10.29141 0.938,-9.93932 -2.6897,1.03214 -6.071,10.76718 -9.5354,27.45308 -3.9852,19.19426 -5.7694,23.44903 -10.9063,26.00886 -1.4847,0.73987 -3.3327,1.34521 -4.1067,1.34521 -5.4034,0 -11.277,-6.79267 -13.8705,-16.04065 -1.6877,-6.01826 -1.658,-20.82726 0.062,-30.78677 l 0.3383,-1.9596 -2.8223,0.82341 c -13.6438,3.98051 -43.9161,15.03546 -51.7308,18.89128 -2.6553,1.31011 -5.8343,3.27523 -7.0645,4.36693 l -2.2367,1.98492 0.9768,1.49079 c 2.3476,3.58278 6.0918,6.02855 14.8722,9.71444 l 5.3934,2.26411 -0.1457,6.81287 c -0.085,3.97965 -0.364,6.86766 -0.6706,6.94462 -0.2886,0.0725 -3.5599,-0.79969 -7.2695,-1.93813 z m 23.6643,-106.67907 c -0.647,-0.54646 -3.1603,-1.95085 -5.585,-3.12087 -4.6619,-2.24955 -10.0116,-3.21184 -10.7964,-1.94201 -0.2106,0.3408 0.6775,2.81302 1.9735,5.49381 l 2.3565,4.87417 6.6139,-2.15577 6.6139,-2.15578 z M 738.95724,621.01298 c -9.8457,-3.51694 -16.2489,-13.74241 -17.7566,-28.35595 -0.245,-2.37468 -0.3133,-5.77507 -0.1517,-7.55641 0.1615,-1.78134 0.1454,-3.2388 -0.036,-3.2388 -0.1812,0 -1.69,1.03387 -3.3527,2.29749 -12.6923,9.6452 -29.5403,17.70729 -43.4788,20.80541 -6.5048,1.44582 -15.6949,1.59785 -20.5358,0.33971 -12.0518,-3.13227 -21.8027,-13.17137 -25.0634,-25.80407 -1.7656,-6.84034 -2.2146,-18.28413 -0.967,-24.64571 l 0.3051,-1.55582 -1.9977,1.75403 c -2.5184,2.21117 -7.4369,4.55534 -11.1948,5.33548 -4.7618,0.98854 -11.3574,0.40525 -14.6775,-1.29801 -8.0221,-4.11547 -12.2132,-13.17721 -12.181,-26.33688 0.015,-6.06777 0.4356,-9.89092 2.1034,-19.11173 1.7928,-9.91155 1.7004,-10.8761 -0.7361,-7.68179 -2.7261,3.57419 -5.6245,13.35655 -8.9616,30.2469 -2.4997,12.65183 -4.6679,17.97365 -8.3883,20.58845 -4.1478,2.91515 -8.2977,2.6066 -12.2063,-0.90757 -6.6426,-5.97227 -9.9298,-18.88712 -8.5489,-33.58728 0.699,-7.44173 2.1577,-14.91335 3.4834,-17.84218 l 0.9501,-2.09908 0.2063,1.5149 c 0.1134,0.83319 -0.059,3.43081 -0.3835,5.77247 -0.9971,7.19889 -1.2804,18.57986 -0.5834,23.43665 1.565,10.90613 7.2843,16.9195 13.1882,13.86647 3.4392,-1.77849 4.9325,-5.59034 9.1664,-23.39792 1.8264,-7.68187 3.9599,-15.82892 4.7411,-18.10457 3.1271,-9.10926 8.4219,-17.70363 11.758,-19.08551 1.5191,-0.62923 1.7708,-0.58845 2.8118,0.45558 1.7848,1.79007 1.5252,10.55807 -0.7008,23.67586 -2.275,13.40593 -2.4341,21.1308 -0.5434,26.38451 2.4152,6.71107 6.6625,9.51328 14.4572,9.53816 13.2823,0.0424 21.9809,-7.87602 24.0199,-21.86564 1.1187,-7.67566 -0.986,-23.12893 -4.6947,-34.46991 l -1.9562,-5.9817 2.0733,-6.02423 c 1.1403,-3.31333 2.3395,-6.39363 2.6649,-6.84512 0.4758,-0.66012 1.1684,0.93304 3.5364,8.13545 3.7764,11.48592 4.6155,15.12964 6.8783,29.86912 2.7924,18.18861 4.2926,22.94787 8.7623,27.79685 1.1677,1.26686 3.4554,2.95761 5.0837,3.75724 2.4934,1.22448 3.6243,1.4528 7.1683,1.44716 3.6184,-0.006 4.6442,-0.22627 7.3233,-1.57431 1.7135,-0.86218 3.5385,-2.15798 4.0556,-2.87954 1.2297,-1.7162 0.8893,-2.93334 -4.0354,-14.43117 -5.4143,-12.64095 -8.0871,-21.511 -9.4877,-31.4862 -0.2026,-1.44312 -1.0767,-4.21801 -1.9424,-6.16643 l -1.574,-3.54259 2.3459,-6.66179 c 1.2903,-3.66399 2.5618,-6.72175 2.8255,-6.79503 0.5201,-0.14452 12.4682,19.26125 13.0515,21.19795 0.4554,1.5122 -0.3622,1.53189 -3.6278,0.0874 -1.3595,-0.60136 -2.5762,-0.98901 -2.7037,-0.86143 -0.1276,0.12757 1.769,6.25916 4.2147,13.62576 6.3422,19.10329 6.7863,20.95843 6.8164,28.47396 0.026,6.46376 -0.8245,10.5264 -3.1542,15.06986 -4.6196,9.00946 -12.102,12.31594 -21.6579,9.57071 -8.1377,-2.33779 -14.4741,-10.13533 -16.9317,-20.83599 -0.3812,-1.65958 -0.8379,-3.01743 -1.015,-3.01743 -0.177,0 -0.6211,1.33691 -0.9867,2.9709 -0.3657,1.634 -1.3691,4.64486 -2.2297,6.69082 -2.1664,5.15024 -2.5957,7.52138 -2.6215,14.4777 -0.034,9.28839 1.803,15.82227 6.2971,22.39455 3.49,5.10368 8.6363,9.07558 14.9735,11.55651 3.5772,1.40042 4.1597,1.46936 12.1536,1.43849 7.7013,-0.0298 8.8958,-0.16778 14.4312,-1.6678 14.4927,-3.92739 29.6302,-11.76529 42.5248,-22.01854 4.0195,-3.19612 11.0216,-10.00802 12.414,-12.07677 0.8387,-1.24604 0.6192,-6.9531 -1.1665,-30.32548 -0.4189,-5.48385 -1.71,-22.48639 -2.869,-37.78344 -3.4806,-45.93939 -4.0704,-51.92511 -5.568,-56.5086 l -1.3173,-4.03161 2.5352,-6.16142 c 1.3943,-3.38877 2.7702,-6.23975 3.0574,-6.3355 0.9951,-0.33167 9.9915,25.51149 10.5827,30.39957 0.1966,1.62653 0.1037,2.49266 -0.2676,2.49266 -0.313,0 -1.6447,-1.32045 -2.9593,-2.93434 -1.3148,-1.61389 -2.3904,-2.71264 -2.3904,-2.44168 0,0.27096 1.4039,18.29877 3.1197,40.06181 1.7157,21.76304 3.2726,43.22943 3.4596,47.70309 0.3675,8.79127 -0.3418,20.82761 -1.5685,26.61506 -1.6272,7.6772 -3.0381,10.08856 -10.4309,17.82731 l -4.8129,5.03818 0.048,5.56519 c 0.079,9.16173 2.741,14.94387 8.7169,18.93438 8.2479,5.50774 20.0195,4.44412 32.7026,-2.95482 9.842,-5.74152 20.1609,-14.68618 27.5729,-23.90088 4.5579,-5.66645 4.4543,-5.15473 2.0212,-9.97907 -0.6236,-1.23648 -1.1806,-2.30429 -1.2378,-2.37292 -0.057,-0.0686 -2.4199,0.4627 -5.2505,1.18073 -6.7424,1.71034 -13.9189,1.81084 -17.2572,0.24168 -2.8948,-1.3607 -5.7303,-4.35386 -6.8321,-7.21192 -3.2087,-8.3232 2.5023,-22.80876 10.4187,-26.42633 2.6438,-1.20814 4.0577,-1.22095 7.3468,-0.0665 3.3704,1.18301 9.7721,7.45148 12.3423,12.08556 3.0666,5.52915 2.4558,5.25679 6.7404,3.00527 2.6514,-1.39324 5.6433,-3.75295 10.0732,-7.9447 4.5286,-4.28518 6.6657,-5.9628 7.5957,-5.9628 1.4799,0 1.571,0.5241 0.6744,3.87668 -0.4852,1.81419 -0.4745,2.96696 0.05,5.30859 1.2736,5.69117 5.8668,8.92838 12.64,8.9083 6.5447,-0.0194 11.8072,-3.70548 19.2078,-13.45391 3.849,-5.07018 6.1945,-7.26351 7.7676,-7.26351 1.0822,0 1.0558,0.45643 -0.2122,3.67339 -3.1134,7.89866 1.2611,13.66192 10.3473,13.6325 3.7867,-0.0123 7.7766,-1.36831 8.3391,-2.83419 0.1669,-0.43493 -0.4374,-2.08573 -1.343,-3.66844 l -1.6464,-2.87766 1.7797,-6.71784 c 0.9788,-3.69481 1.9927,-6.68369 2.2533,-6.64195 0.818,0.13106 2.7085,6.04076 3.355,10.48812 1.374,9.45128 -2.9271,21.28279 -9.1233,25.09631 -6.3755,3.92388 -14.5234,0.34652 -18.5378,-8.13907 -0.8782,-1.85614 -1.6796,-2.93392 -2.0136,-2.70784 -0.3051,0.20655 -1.9853,2.26472 -3.7337,4.57371 -6.1518,8.12428 -10.3155,11.04416 -16.5832,11.62945 -9.9966,0.93349 -15.6695,-3.86068 -17.9523,-15.17165 -0.1603,-0.79371 -0.582,-1.44299 -0.9373,-1.44283 -0.3553,1.5e-4 -2.3548,1.86876 -4.4435,4.15246 -2.0887,2.2837 -4.8043,4.8083 -6.0349,5.61021 l -2.2373,1.45803 -0.03,6.85279 c -0.044,9.94261 -1.4779,14.52814 -6.8225,21.80874 -10.4583,14.24646 -27.7885,27.27378 -41.1535,30.93553 -4.498,1.23239 -10.8071,1.39042 -13.7363,0.34408 z m 46.6514,-68.34332 c 1.1703,-0.31362 1.1674,-0.32783 -0.4934,-2.4247 -3.6546,-4.61426 -9.9601,-5.55941 -13.1643,-1.97323 -1.3298,1.48826 -1.4273,1.8025 -0.7649,2.46489 1.3752,1.37515 4.7848,2.21654 9.0474,2.23265 2.3089,0.009 4.7278,-0.1261 5.3752,-0.29961 z m 509.27876,66.3131 c -2.1619,-2.30128 -3.4419,-6.13193 -3.461,-10.35767 -0.018,-3.92217 0.8906,-7.87155 1.8103,-7.87155 0.2662,0 0.4841,0.8341 0.4841,1.85355 0,2.36639 1.249,5.35787 3.0005,7.1865 l 1.3705,1.43089 -0.6958,4.47278 c -0.3826,2.46002 -0.8527,4.47277 -1.0445,4.47277 -0.1918,0 -0.8506,-0.53428 -1.4641,-1.18727 z m 39.7654,-2.91059 c 0,-0.81071 0.2952,-1.85125 0.656,-2.31232 0.5562,-0.71081 43.3877,-16.42438 43.6939,-16.02995 0.059,0.0756 -0.01,1.04697 -0.1449,2.15866 -0.2154,1.73038 -0.5256,2.13627 -2.1558,2.82048 -3.0756,1.29085 -41.0166,14.83714 -41.5565,14.83714 -0.271,0 -0.4927,-0.66331 -0.4927,-1.47401 z M 539.28284,602.98381 c 0.1385,-0.50509 0.4013,-1.80389 0.5839,-2.88623 0.1826,-1.08234 0.3987,-1.96789 0.4802,-1.96789 0.1669,0 47.2803,-16.43609 57.7538,-20.14811 3.7314,-1.32252 6.8781,-2.31094 6.9925,-2.1965 0.4086,0.40855 -0.5207,5.00252 -1.1084,5.47934 -0.6397,0.51902 -63.6183,22.63774 -64.4564,22.63774 -0.2737,0 -0.3842,-0.41326 -0.2456,-0.91835 z m 215.2463,-7.60916 c -0.121,-0.36078 -0.4926,-1.71862 -0.8257,-3.01743 -0.8199,-3.19696 -3.3647,-8.71776 -5.0169,-10.88396 -1.2446,-1.6318 -1.4059,-1.69967 -2.0254,-0.85247 -0.5953,0.81414 -0.922,0.84587 -2.8284,0.27473 -1.1854,-0.35516 -2.7847,-1.18716 -3.554,-1.84887 -1.5699,-1.35035 -1.5031,-2.50299 0.3159,-5.44996 3.1479,-5.09995 10.7379,1.71157 14.4724,12.98806 l 0.9559,2.88624 1.1289,-6.82201 c 1.2834,-7.75617 1.9663,-10.1244 3.4706,-12.03693 1.612,-2.0493 3.6016,-1.79466 5.9059,0.75588 2.1223,2.34916 2.1219,2.34759 1.3216,4.64311 -0.6343,1.81961 -1.5462,2.10204 -2.6178,0.8108 -1.104,-1.33024 -3.1054,-1.9088 -4.009,-1.15891 -1.165,0.96691 -1.6543,2.61885 -2.5129,8.48338 -1.3192,9.01047 -2.1617,11.8843 -3.4841,11.8843 -0.2624,0 -0.576,-0.29518 -0.697,-0.65596 z m -93.5971,-15.33424 c -2.2541,-2.56727 -3.419,-6.86848 -3.1203,-11.52163 0.2469,-3.84748 1.5003,-7.42922 1.8499,-5.28629 0.5377,3.29602 1.5663,5.9271 3.1055,7.94355 l 1.739,2.27822 -0.7688,4.01828 c -0.4229,2.21006 -0.8603,4.10969 -0.972,4.22141 -0.1117,0.11171 -0.9367,-0.63238 -1.8333,-1.65354 z m 707.66186,1.04257 c -4.9345,-2.57372 -5.8042,-9.10894 -2.4477,-18.39169 0.936,-2.58857 2.439,-6.88758 3.34,-9.55334 2.9754,-8.80334 2.9666,-4.56516 -0.012,5.6249 -1.2399,4.24225 -1.7612,7.08882 -1.7612,9.61742 0,3.27003 0.1374,3.72902 1.534,5.1256 2.1031,2.10309 4.2245,2.06329 6.0563,-0.11364 0.7625,-0.90616 1.5225,-2.32796 1.6888,-3.15954 0.3121,-1.56077 1.2223,-2.60751 1.2086,-1.3899 -0.018,1.60626 -1.6421,7.43654 -2.5877,9.28995 -0.6254,1.22601 -1.7321,2.34562 -2.8366,2.86971 -2.2033,1.04552 -2.328,1.04792 -4.1827,0.0805 z M 697.37714,570.79821 c -0.1317,-0.40904 -0.3865,-3.34133 -0.5661,-6.51618 -0.1797,-3.17486 -1.2637,-18.40631 -2.409,-33.84767 -6.0912,-82.12696 -6.4744,-86.38276 -8.1882,-90.94741 l -1.3416,-3.57321 2.6367,-6.39742 c 1.4503,-3.51858 2.8275,-6.39742 3.0605,-6.39742 0.9991,0 10.6861,28.53114 10.6861,31.47376 0,2.39012 -0.7288,2.04936 -3.5422,-1.65618 l -2.2303,-2.93751 v 1.7788 c 0,1.77442 4.5476,63.39456 6.0369,81.79999 1.0694,13.21619 1.0055,19.82208 -0.2547,26.32278 -1.5565,8.02944 -3.2676,12.82525 -3.8881,10.89767 z m 614.14446,-9.82411 c 0.9874,-0.77825 2.8678,-2.39447 4.1786,-3.5916 l 2.3832,-2.17659 -1.8797,-0.7854 c -2.6772,-1.11859 -3.5912,-2.68785 -3.5912,-6.16549 0,-3.78581 1.1627,-7.64914 3.1119,-10.33999 1.1273,-1.55609 1.6469,-3.01071 1.9117,-5.35156 0.4091,-3.61552 1.7596,-5.8025 3.5832,-5.8025 3.0763,0 12.0064,8.09208 14.8802,13.48393 2.3331,4.37742 2.3673,8.31243 0.1112,12.77164 -1.4201,2.80664 -2.6658,3.2299 -8.9392,3.03729 l -5.4755,-0.16812 -1.3041,1.53424 c -1.3512,1.58973 -8.1394,5.04665 -9.8129,4.99727 -0.7256,-0.0214 -0.5247,-0.36547 0.8426,-1.44312 z m 23.43,-12.23172 c 0.3776,-0.61104 -5.8004,-7.10483 -7.03,-7.38919 -0.6293,-0.14555 -2.6849,4.98717 -2.7069,6.75891 -0.013,1.07062 9.1002,1.66054 9.7369,0.63028 z m -11.6398,-2.17519 c 0.3425,-1.82568 -0.2925,-4.74192 -1.2956,-5.95067 -0.7772,-0.93636 -3.0802,-0.92162 -4.333,0.0277 -1.1031,0.83585 -3.4964,3.96217 -3.4964,4.56716 0,0.635 2.1212,1.62673 4.9853,2.33084 3.7449,0.92062 3.7859,0.91096 4.1397,-0.97506 z m -248.4201,-10.95935 c 0,-0.27465 0.7394,-0.90163 1.6432,-1.3933 5.7493,-3.12775 14.8346,-8.83151 20.9219,-13.13479 6.4435,-4.55505 13.1192,-10.45325 13.1192,-11.59115 0,-0.24915 -0.8529,-0.613 -1.8953,-0.80857 -2.5702,-0.48217 -4.4052,-2.40163 -4.3895,-4.59151 0.01,-0.95114 0.5682,-3.08051 1.2474,-4.73192 1.1977,-2.91231 1.2045,-3.01219 0.228,-3.32214 -1.1094,-0.35211 -0.9616,-1.59513 0.4564,-3.8394 0.6844,-1.08307 1.0851,-1.20925 3.114,-0.98056 5.2522,0.592 11.6276,5.14861 13.2783,9.49017 0.718,1.88859 0.71,5.51446 -0.017,7.59944 -0.743,2.13125 -3.1528,2.87588 -6.9665,2.15262 -2.9642,-0.56213 -2.6399,-0.76895 -5.056,3.22482 -2.8705,4.74508 -15.412,14.15927 -24.6868,18.53095 -5.2276,2.46403 -10.9975,4.24541 -10.9975,3.39534 z m 46.7045,-29.89855 c 0,-1.38753 -5.1009,-7.29945 -6.2828,-7.28175 -0.1522,0.002 -0.3055,1.54036 -0.3404,3.41796 -0.057,3.08095 0.045,3.43674 1.0495,3.64882 0.6122,0.12924 1.5855,0.33487 2.1627,0.45693 2.0465,0.43277 3.411,0.33597 3.411,-0.24196 z m -8.7838,-3.35928 c -0.1203,-1.91614 -1.3338,-3.92661 -2.3702,-3.92661 -0.2727,0 -1.3253,0.8294 -2.339,1.84313 -2.1944,2.19434 -1.8242,3.08422 1.6007,3.84837 2.9923,0.66763 3.2519,0.52026 3.1085,-1.76489 z M 714.91344,522.9879 c -3.0684,-2.8587 -4.4636,-10.08052 -2.9519,-15.28041 0.4775,-1.64277 1.1231,-2.98685 1.4345,-2.98685 0.3114,0 0.444,0.31868 0.2945,0.70818 -0.5521,1.43885 0.8284,5.69754 2.5989,8.017 l 1.8205,2.38498 -0.6301,3.9058 c -0.3465,2.1482 -0.7969,4.00895 -1.0009,4.13502 -0.204,0.12606 -0.9085,-0.27161 -1.5655,-0.88372 z m 41.9658,0.19286 c 0,-0.19556 1.1057,-3.39894 2.4595,-7.11862 l 2.4615,-6.76307 2.7386,-1.21116 c 6.7566,-2.98809 268.26826,-98.10381 268.65736,-97.71472 0.1445,0.14452 -0.8127,3.19976 -2.1272,6.7894 l -2.3899,6.52663 -107.16776,38.94677 c -138.7116,50.41032 -157.9756,57.48497 -161.6128,59.35168 -1.6596,0.85176 -3.0183,1.38865 -3.0193,1.19309 z m 92.4317,-6.22453 c -1.5078,-4.83292 -4.8343,-11.18606 -5.8571,-11.18606 -0.252,0 -0.68,0.39628 -0.9511,0.88062 -0.4609,0.82358 -0.6443,0.82273 -2.8332,-0.0132 -1.2873,-0.4916 -2.889,-1.47767 -3.5594,-2.19127 l -1.2189,-1.29746 1.2296,-2.62511 c 1.1193,-2.38973 1.3885,-2.62511 3.0026,-2.62511 2.6066,0 4.5923,1.24843 6.8983,4.33704 2.3867,3.19665 3.7422,5.81107 5.0975,9.83175 l 0.9729,2.88623 0.467,-2.88623 c 1.1168,-6.90103 2.4108,-12.60733 3.2693,-14.4164 1.7469,-3.68137 4.5956,-3.63146 7.4652,0.13078 1.2384,1.62355 1.2777,1.8598 0.634,3.81009 -0.3774,1.14357 -0.7822,2.07921 -0.8996,2.07921 -0.1174,0 -1.0129,-0.60984 -1.9902,-1.3552 -3.5344,-2.6959 -5.1708,-0.77156 -6.2842,7.39005 -1.0607,7.77585 -1.7425,10.50727 -2.8795,11.53626 -0.912,0.82537 -1.0302,0.62789 -2.5632,-4.28597 z m 467.85086,-0.10912 c -0.401,-3.83619 -1.4238,-6.45538 -3.5659,-9.13105 -1.3965,-1.74446 -1.5488,-2.25179 -1.2343,-4.11343 l 0.3588,-2.12355 1.4823,1.42009 c 2.3387,2.24064 3.7989,6.2131 4.0695,11.07122 0.2966,5.3248 -0.6093,7.6716 -1.1104,2.87672 z m -340.63536,-0.53447 c -0.4178,-0.67603 0.5411,-3.89631 1.2941,-4.34621 1.1699,-0.69894 44.76286,-16.17313 44.97216,-15.96379 0.534,0.53404 -0.6013,4.46023 -1.3561,4.68973 -0.4722,0.14358 -10.7235,3.79233 -22.78076,8.10835 -12.0571,4.31602 -22.0154,7.69638 -22.1294,7.51192 z m 157.77876,-1.96934 c -3.6504,-1.79918 -4.8495,-5.67921 -4.6768,-15.13275 0.094,-5.13607 0.2425,-5.96495 1.3489,-7.5184 0.869,-1.22037 1.4094,-1.57992 1.7948,-1.19444 0.6253,0.62523 0.6457,1.92905 0.1405,8.97523 -0.3935,5.48621 -0.045,6.72065 2.4116,8.54417 1.9043,1.41348 4.6555,0.85683 7.1739,-1.45146 1.6827,-1.54229 1.9195,-2.05623 1.8775,-4.07415 -0.027,-1.27006 -0.4726,-4.11164 -0.9914,-6.31462 -0.7905,-3.35653 -0.8361,-4.26413 -0.2818,-5.60238 0.3638,-0.87833 0.8506,-1.59696 1.0819,-1.59696 0.6059,0 1.3988,2.82108 2.065,7.34678 0.7598,5.16098 1.533,7.66144 2.694,8.71213 2.133,1.93036 6.9025,1.7246 7.5533,-0.32585 0.1788,-0.56339 -0.3417,-2.25985 -1.2385,-4.03635 -2.4558,-4.86487 -2.8323,-6.86417 -1.8901,-10.03673 0.4425,-1.49024 1.0014,-2.70952 1.242,-2.70952 0.2405,0 0.5845,0.92004 0.7643,2.04455 0.1798,1.1245 1.0473,3.65023 1.9278,5.61273 2.0346,4.53464 2.3864,7.18163 1.3406,10.08784 -1.5143,4.20784 -4.4793,6.90952 -7.5899,6.91561 -1.3717,0.003 -2.2487,-0.47801 -3.9184,-2.14771 -1.1832,-1.18315 -2.2257,-1.92774 -2.3167,-1.65464 -0.508,1.52399 -3.5304,4.85447 -5.0672,5.58375 -2.221,1.0539 -3.263,1.04876 -5.4453,-0.0268 z m 114.3947,-5.27295 c -0.6615,-0.12665 -2.0003,-1.02789 -2.9751,-2.00274 -2.2637,-2.26374 -2.8889,-5.27424 -2.8133,-13.54732 0.053,-5.81951 0.1402,-6.31412 1.3669,-7.77202 0.8633,-1.02603 1.487,-1.38007 1.8289,-1.0382 0.6179,0.61791 0.5805,3.95292 -0.089,7.94086 -1.0441,6.21811 1.5981,10.99189 5.6618,10.22952 2.4884,-0.46682 4.7484,-2.1489 5.5885,-4.15942 0.5674,-1.35803 0.5662,-2.32971 -0.01,-5.56327 -0.3819,-2.15481 -0.9298,-4.51841 -1.2174,-5.25244 -0.3762,-0.96003 -0.3244,-1.8069 0.1846,-3.01743 1.4064,-3.34485 1.9917,-2.14938 3.6615,7.47784 0.7544,4.3498 1.1517,5.47042 2.3721,6.69082 1.8405,1.84051 5.5505,2.08072 7.0221,0.45466 0.8764,-0.96845 0.8307,-1.1962 -1.0801,-5.37889 -2.1529,-4.71261 -2.4985,-7.42627 -1.3082,-10.27129 0.9152,-2.18754 1.425,-2.15804 1.792,0.10371 0.1615,0.99507 1.1619,3.97954 2.2232,6.63215 1.5521,3.87922 1.8645,5.23025 1.5968,6.90457 -0.87,5.44038 -5.1711,9.84019 -8.8921,9.096 -0.892,-0.17841 -2.4919,-1.17389 -3.5552,-2.21217 l -1.9332,-1.88778 -0.7859,1.50514 c -1.3821,2.64703 -5.4095,5.70155 -7.0798,5.36945 -0.1976,-0.0393 -0.9006,-0.17509 -1.562,-0.30175 z M 919.03504,497.64367 c 0,-0.14023 2.7097,-1.57257 6.0215,-3.18297 5.3752,-2.61374 6.4594,-3.3857 10.1018,-7.19227 9.4713,-9.89817 10.8231,-10.71013 15.1074,-9.07395 4.9348,1.88461 7.8718,1.05806 10.0976,-2.84172 2.2119,-3.87534 2.4512,-4.07816 2.7567,-2.33658 0.3507,1.99908 2.3707,2.97821 5.2083,2.52446 2.2524,-0.36017 2.5876,-0.9608 1.424,-2.55197 -0.9802,-1.34062 -0.058,-5.33214 1.0249,-4.43375 1.8368,1.52438 1.2023,8.14998 -0.9632,10.05841 -1.3336,1.17522 -5.7599,1.26191 -6.6983,0.13119 -0.9609,-1.15781 -1.2912,-0.98699 -2.0272,1.04844 -0.7995,2.21102 -3.5245,4.41093 -5.9268,4.78485 -0.9755,0.15184 -2.7736,-0.0923 -4.0505,-0.54984 -2.8896,-1.03557 -5.4691,-1.04704 -7.6043,-0.0338 -0.9146,0.43399 -3.7669,2.91275 -6.3385,5.50835 -2.5716,2.59561 -5.6373,5.18223 -6.8127,5.74806 -3.6483,1.75625 -11.3207,3.37813 -11.3207,2.39314 z m 65.1541,-2.2377 c -2.5929,-2.47613 -3.235,-5.35463 -3.0725,-13.77521 0.098,-5.0768 0.2821,-6.26134 1.1596,-7.46149 1.2551,-1.71647 1.6214,-1.781 2.3527,-0.41444 0.3987,0.74493 0.387,2.03507 -0.041,4.49109 -0.3301,1.89526 -0.5012,4.99894 -0.3803,6.89708 0.1892,2.97152 0.4203,3.62368 1.6627,4.69239 2.3349,2.00837 5.1131,1.71726 7.8333,-0.82081 2.1111,-1.9698 2.2046,-2.18726 2.0907,-4.86217 -0.066,-1.54009 -0.4763,-3.97726 -0.9127,-5.41594 -0.9767,-3.21998 -0.9852,-4.85059 -0.034,-6.55157 l 0.7336,-1.31193 0.77,1.8367 c 0.4235,1.01018 1.0432,3.72586 1.3772,6.03485 1.0724,7.41613 2.28596,9.4604 5.97116,10.05842 2.0221,0.32815 4.5459,-0.82807 4.5459,-2.08258 0,-0.36227 -0.7996,-2.32731 -1.777,-4.36677 -2.3007,-4.80085 -2.5839,-6.25955 -1.7625,-9.07927 0.8345,-2.8644 1.716,-3.26284 2.1654,-0.97873 0.1868,0.9493 1.1894,3.83195 2.228,6.40588 2.1778,5.39679 2.1635,7.82985 -0.068,11.63832 -1.8743,3.19814 -3.6239,4.41022 -6.3663,4.41022 -1.9679,0 -2.5828,-0.29207 -4.36286,-2.07224 -1.8711,-1.87104 -2.1039,-1.97267 -2.3978,-1.04671 -0.487,1.53462 -2.8055,4.10469 -4.4875,4.97449 -2.6568,1.37386 -4.9277,0.99697 -7.2278,-1.19958 z m 384.57536,0.5685 c 0,-0.24052 0.3854,-2.56263 0.8543,-5.16024 1.1641,-6.44829 1.1484,-14.86687 -0.035,-18.89172 -1.7023,-5.78917 -5.1944,-11.49204 -11.6699,-19.05747 l -1.9385,-2.26482 0.9715,-3.90122 c 0.5344,-2.14567 1.1381,-3.90122 1.3417,-3.90122 1.2123,0 8.3275,9.347 10.6772,14.02647 3.4124,6.79554 4.5201,11.60059 4.5201,19.60676 0,7.51457 -2.412,19.21046 -4.0761,19.76516 -0.3557,0.11858 -0.6461,0.0188 -0.6452,-0.2217 z m -289.1499,-6.37186 c 0,-0.81071 0.2952,-1.85117 0.656,-2.31214 0.3608,-0.46096 6.7957,-2.97569 14.3,-5.58829 19.8339,-6.90518 49.1804,-17.21365 50.2467,-17.65005 1.0165,-0.416 1.1306,0.11827 0.5961,2.79052 -0.2605,1.30256 -0.7376,1.75824 -2.4926,2.38031 -16.888,5.98623 -62.5324,21.85366 -62.8645,21.85366 -0.2429,0 -0.4417,-0.66331 -0.4417,-1.47401 z m 147.6085,-5.3836 c 0.1586,-1.18259 0.4035,-2.26524 0.5442,-2.4059 0.1406,-0.14065 10.7663,-3.99081 23.6127,-8.55592 12.8463,-4.5651 23.6138,-8.45894 23.9277,-8.65298 0.8111,-0.50126 0.7378,2.96683 -0.085,4.02728 -0.6232,0.80312 -4.6023,2.31693 -24.533,9.33334 -4.7623,1.67652 -12.0553,4.25334 -16.2068,5.72627 l -7.5481,2.67806 z m -677.08256,-0.17576 c 0.4226,-0.40487 3.0103,-1.97149 5.7505,-3.48138 8.8608,-4.8825 19.474,-12.5097 22.1747,-15.93597 0.7938,-1.00693 1.4432,-1.94271 1.4432,-2.07952 0,-0.13679 -0.6974,-0.40189 -1.5497,-0.58909 -0.8523,-0.18719 -2.1511,-0.81346 -2.8862,-1.3917 -1.0961,-0.86217 -1.3345,-1.49301 -1.3251,-3.50592 0.01,-1.35001 0.4872,-3.50306 1.0685,-4.78455 0.9333,-2.05724 0.9627,-2.38279 0.2509,-2.78111 -1.9862,-1.11151 0.2733,-5.12192 2.8856,-5.12192 3.1404,0 7.4788,2.13266 10.5556,5.18893 3.3855,3.36296 4.3976,5.98026 3.815,9.86556 -0.4982,3.32227 -1.7412,4.45118 -4.9431,4.48942 -0.1443,0.002 -1.4479,-0.14526 -2.897,-0.32663 -2.6232,-0.32833 -2.639,-0.32136 -3.6734,1.6235 -3.2943,6.19422 -15.3177,14.63308 -26.049,18.28305 -4.4517,1.51412 -5.7959,1.67335 -4.6205,0.54733 z m 40.545,-24.78421 c 0.7074,-0.70738 -3.3891,-5.93697 -5.5612,-7.09943 -0.9196,-0.49217 -1.0003,-0.41618 -0.7255,0.68349 0.17,0.68048 0.097,2.17519 -0.1623,3.32158 -0.2593,1.14639 -0.3991,2.15676 -0.3106,2.24527 0.1932,0.19314 4.4226,1.04168 5.5973,1.12297 0.457,0.0316 0.98,-0.0916 1.1623,-0.27388 z m -8.5528,-2.78308 c 0,-2.08846 -0.8559,-4.19094 -1.8634,-4.57757 -0.9013,-0.34586 -4.4338,2.69642 -4.4338,3.8185 0,0.66829 2.9265,1.77788 5.9036,2.23834 0.2165,0.0335 0.3936,-0.63219 0.3936,-1.47927 z m 170.0255,24.69568 c 0,-0.25252 4.1196,-3.09415 9.1546,-6.31475 10.7773,-6.89358 16.8747,-11.50713 22.9137,-17.33739 l 4.4032,-4.25099 -1.3072,-0.90601 c -6.991,-4.84537 -7.9411,-9.29518 -3.1049,-14.54182 2.4115,-2.61614 6.6341,-4.65547 8.6118,-4.15909 3.3861,0.84985 4.351,5.49262 2.4267,11.67556 l -0.9828,3.15764 1.9011,1.54207 1.9011,1.54207 -1.2558,2.30024 c -1.832,3.35548 -1.9093,3.39257 -4.0744,1.95575 l -1.96,-1.30074 -3.5392,4.23362 c -6.7427,8.06579 -11.7682,11.81872 -24.3911,18.21483 -8.7886,4.45326 -10.6968,5.20054 -10.6968,4.18901 z m 39.8825,-36.69925 c 0,-1.38796 -0.319,-2.95985 -0.7089,-3.49309 -1.4025,-1.91796 -6.2229,-0.59202 -5.4233,1.49177 0.3083,0.80326 4.9939,4.48724 5.7386,4.51186 0.2165,0.007 0.3936,-1.12259 0.3936,-2.51054 z m 257.67966,36.24002 c 0.01,-0.21647 5.0278,-3.73016 11.1513,-7.80821 12.609,-8.3971 19.5176,-13.7469 26.3469,-20.40233 l 4.7178,-4.59762 -1.3068,-0.84774 c -3.1163,-2.02162 -5.7472,-4.92976 -6.084,-6.72512 -0.9437,-5.03054 3.8526,-10.88014 9.814,-11.96914 4.4953,-0.82117 6.4098,4.34185 4.1853,11.28691 l -1.0925,3.411 1.9238,1.64559 1.924,1.64559 -1.4738,2.55257 c -0.8105,1.40391 -1.5524,2.64617 -1.6486,2.76056 -0.096,0.11439 -1.1117,-0.41198 -2.2567,-1.16972 l -2.0819,-1.37771 -1.1908,1.6945 c -1.6066,2.28623 -8.3893,9.43447 -12.1653,12.82092 -3.9828,3.57185 -8.3498,6.40797 -17.4666,11.34347 -9.739,5.27229 -13.3451,6.82811 -13.2961,5.73648 z m 45.6373,-41.33191 c 0,-2.26646 -0.9426,-4.34962 -2.1402,-4.72971 -0.5122,-0.16258 -1.804,0.069 -2.8706,0.51466 -1.8515,0.77362 -1.9042,0.86367 -1.1653,1.99103 1.0555,1.61025 5.1041,4.66759 5.6963,4.30158 0.2639,-0.16309 0.4798,-1.098 0.4798,-2.07756 z m -301.21386,36.60898 c 0,-0.21647 5.0203,-3.73418 11.1514,-7.81713 12.2359,-8.14848 19.8146,-14.03143 26.6172,-20.66156 l 4.4498,-4.33692 -1.3011,-0.8242 c -0.7157,-0.4533 -2.4229,-1.92107 -3.7939,-3.2617 -2.0793,-2.03332 -2.4926,-2.75728 -2.4926,-4.36601 0,-5.09119 4.507,-10.07518 10.022,-11.08264 4.4954,-0.82117 6.4098,4.34185 4.1853,11.28691 l -1.0925,3.411 1.8887,1.61605 1.8887,1.61605 -1.4929,2.70574 c -0.8211,1.48816 -1.6371,2.70915 -1.8132,2.71331 -0.1763,0.004 -1.1646,-0.56534 -2.1965,-1.26556 l -1.876,-1.27312 -2.1263,2.75615 c -3.3754,4.37506 -13.6028,14.03121 -17.6203,16.63608 -6.309,4.09059 -22.4429,12.54113 -23.9438,12.54113 -0.2519,0 -0.4562,-0.17711 -0.454,-0.39358 z m 45.6509,-41.33191 c 0,-2.26646 -0.9425,-4.34962 -2.1401,-4.72971 -1.0325,-0.32768 -4.6819,1.01305 -4.6819,1.72003 0,0.52925 2.8696,3.28337 4.6773,4.48907 1.6273,1.08538 2.1447,0.72844 2.1447,-1.47939 z m -229.5701,35.89731 c -2.6177,-2.29838 -3.4144,-5.47989 -3.337,-13.32593 0.054,-5.44791 0.211,-6.52678 1.1664,-7.99916 0.6074,-0.93605 1.2873,-1.70352 1.5109,-1.7055 0.9721,-0.009 1.2338,2.64841 0.6718,6.81843 -1.0664,7.91126 0.4971,11.54494 4.9675,11.54494 1.5581,0 2.5099,-0.40241 3.9571,-1.67303 1.048,-0.92017 2.1142,-2.22225 2.3694,-2.89351 0.4681,-1.23107 -0.4556,-7.39802 -1.5228,-10.16679 -0.3969,-1.02976 -0.2968,-1.84216 0.4204,-3.411 l 0.9414,-2.05932 0.7828,1.8367 c 0.4305,1.01018 1.0673,3.82826 1.4151,6.26239 1.0766,7.5355 2.7309,10.00548 6.7011,10.00548 1.6541,0 3.8162,-1.28883 3.8162,-2.27484 0,-0.35255 -0.7996,-2.30965 -1.777,-4.34911 -2.3008,-4.80085 -2.5839,-6.25955 -1.7625,-9.07926 0.8421,-2.89049 1.7299,-3.26733 2.1145,-0.89749 0.1612,0.99319 1.0003,3.42258 1.8647,5.39866 2.8113,6.42664 2.6717,9.62554 -0.6082,13.93501 -3.0328,3.98486 -6.996,4.24211 -10.1495,0.65878 -1.549,-1.76013 -1.6823,-1.81327 -2.0042,-0.7991 -0.5042,1.58863 -2.7984,4.1519 -4.5069,5.03536 -2.4764,1.28061 -4.9343,0.97938 -7.0312,-0.86171 z m 370.9962,-4.71945 c 0.2099,-1.27008 0.4391,-2.37391 0.5093,-2.45296 0.07,-0.079 12.9721,-4.64698 28.67106,-10.15097 15.6991,-5.50399 29.5602,-10.36592 30.8025,-10.80428 1.2422,-0.43836 2.3923,-0.6634 2.5556,-0.50009 0.1633,0.16332 0.1396,1.13588 -0.053,2.16124 -0.2721,1.45054 -0.725,2.02113 -2.0408,2.57089 -0.9301,0.38862 -14.5566,5.21165 -30.2811,10.71785 -15.72446,5.5062 -29.03006,10.18143 -29.56776,10.38941 -0.8948,0.34602 -0.9454,0.18197 -0.596,-1.93109 z m -271.5365,-1.03568 c -2.6364,-3.63946 -3.4233,-11.50572 -1.5973,-15.96712 l 0.6444,-1.57431 0.616,2.88624 c 0.7059,3.30799 1.4868,4.95119 3.2557,6.85171 1.176,1.26349 1.2173,1.52326 0.7091,4.46054 -1.1265,6.50999 -1.2507,6.62449 -3.6279,3.34294 z m 538.25356,-9.01391 c -0.348,-8.30019 -2.2252,-13.65629 -6.8081,-19.42507 l -1.1533,-1.4517 0.9236,-5.35424 c 0.5081,-2.94483 1.0173,-5.44776 1.1316,-5.56205 0.4587,-0.45867 2.9475,3.00963 4.6449,6.4729 3.1978,6.52463 4.2375,11.1527 4.2437,18.89172 0.01,5.01687 -0.238,7.62044 -0.9144,9.83944 -0.506,1.65959 -1.1175,3.01743 -1.3592,3.01743 -0.2416,0 -0.5605,-2.8928 -0.7088,-6.42843 z m -113.7472,-4.14225 c 0,-8.3203 -1.9395,-12.9163 -8.0234,-19.01289 -2.5506,-2.55597 -2.5522,-2.55995 -2.1913,-5.2477 0.5898,-4.39198 0.8092,-4.4397 4.0329,-0.87736 6.6704,7.37103 9.4597,16.97514 7.7136,26.55997 -0.9384,5.15169 -1.5318,4.60085 -1.5318,-1.42202 z m -238.23756,-1.59628 c -1.0529,-4.14262 -2.7163,-8.20456 -4.5792,-11.18282 -1.7538,-2.80387 -1.8894,-2.90354 -2.8127,-2.06793 -1.1299,1.02259 -2.9564,0.72781 -5.6041,-0.9045 -2.0298,-1.25133 -2.1912,-2.67951 -0.6453,-5.70967 0.8115,-1.59063 1.3704,-2.07817 2.3824,-2.07817 4.4278,0 9.0655,5.44894 12.0471,14.15443 l 1.1732,3.42536 0.3207,-1.83669 c 0.1763,-1.01018 0.7042,-4.19816 1.1729,-7.0844 1.356,-8.35026 2.8167,-11.28255 5.6201,-11.28255 1.1682,0 2.0828,0.55161 3.5501,2.141 1.8279,1.97989 1.9349,2.26618 1.4221,3.80458 -0.8392,2.51772 -1.1518,2.62878 -3.2987,1.17182 -2.4025,-1.63033 -2.5695,-1.63975 -3.8927,-0.21945 -1.0783,1.15745 -1.4897,2.84523 -2.8035,11.50337 -1.1734,7.73328 -2.9621,10.45476 -4.0524,6.16562 z m -341.8644,-3.08988 c -1.1815,-4.21085 -2.6088,-7.50726 -4.5932,-10.60822 -1.5135,-2.36497 -1.6638,-2.46239 -2.5548,-1.65606 -1.2224,1.10631 -3.6291,0.61685 -5.7526,-1.16995 -1.8386,-1.54704 -1.9379,-2.62441 -0.5016,-5.43989 0.8115,-1.59063 1.3704,-2.07817 2.3824,-2.07817 2.2653,0 5.2786,1.94855 7.3255,4.73692 2.1048,2.86733 5.4828,10.09246 5.4934,11.7496 0.014,2.28207 0.6394,0.0991 1.3605,-4.75313 0.9543,-6.42163 2.1157,-11.0821 3.158,-12.67281 1.7731,-2.70621 4.5994,-2.28593 7.1545,1.06389 1.2685,1.66309 1.3012,1.85975 0.5909,3.54914 -0.4136,0.98368 -0.8335,1.87 -0.9332,1.96962 -0.1,0.0996 -1.0808,-0.42947 -2.1805,-1.17574 -1.0997,-0.74626 -2.3443,-1.28926 -2.7657,-1.20666 -1.421,0.27848 -2.6167,3.78702 -3.644,10.69252 -1.5241,10.24615 -2.993,12.51081 -4.5396,6.99894 z m 59.9929,3.05594 c -0.034,-0.0722 -0.1202,-2.72881 -0.1912,-5.90367 -0.1821,-8.14496 -2.5817,-15.03115 -6.8574,-19.67887 l -1.2069,-1.31193 1.0052,-5.46137 c 0.5528,-3.00375 1.1081,-5.56428 1.2339,-5.69008 0.4154,-0.41544 3.5651,4.27252 5.0819,7.5638 1.7883,3.88037 3.4421,10.19636 3.8938,14.87021 0.5213,5.39514 -1.0718,15.7431 -2.4238,15.7431 -0.2604,0 -0.5014,-0.059 -0.5355,-0.13119 z m 553.69006,-3.14862 c -1.0913,-4.27333 -3.7517,-10.11541 -5.6763,-12.46489 -1.0125,-1.23596 -1.113,-1.25705 -1.7712,-0.37171 -0.6521,0.87727 -0.8498,0.88494 -3.0254,0.11737 -4.2647,-1.50467 -5.0737,-3.15835 -3.332,-6.81065 0.7535,-1.58011 1.1455,-1.8545 2.6499,-1.8545 4.404,0 8.4178,4.38488 11.49,12.5521 1.8832,5.00645 1.5666,5.29573 2.8247,-2.58147 1.3707,-8.58212 2.8744,-12.37566 5.1302,-12.94182 1.4278,-0.35835 3.2814,0.82044 5.1085,3.24871 1.1316,1.50395 1.1428,1.62962 0.3175,3.54833 l -0.8556,1.98915 -1.807,-1.33319 c -2.1426,-1.58077 -3.2318,-1.67324 -4.4075,-0.37419 -0.8776,0.96971 -1.2454,2.58074 -2.6661,11.67781 -0.4319,2.7652 -1.0249,5.65799 -1.3178,6.42843 -0.8046,2.1163 -2.0052,1.74218 -2.6619,-0.82948 z"
     id="path1043" />
</svg>
